<svg width="691.22275390625px" height="116.01997680664063px" xmlns="http://www.w3.org/2000/svg" viewBox="-95.61137695312499 16.990011596679686 691.22275390625 116.01997680664063" style="background: none;" preserveAspectRatio="xMidYMid"><defs><linearGradient id="editing-shadow-gradient1" x1="0" x2="0" y1="0" y2="1"><stop offset="0" stop-color="#000000" stop-opacity="0"></stop><stop offset="0.2" stop-color="#000000" stop-opacity="0"></stop><stop offset="1" stop-color="#000000" stop-opacity="1"></stop></linearGradient><linearGradient id="editing-shadow-gradient2" x1="-0.2547095802227721" x2="1.2547095802227721" y1="-0.15605902899050716" y2="1.1560590289905073"><stop offset="0" stop-color="#000000"></stop><stop offset="1" stop-color="#000000"></stop></linearGradient><filter id="editing-shadow" x="-100%" y="-100%" width="300%" height="300%"><feGaussianBlur stdDeviation="2"></feGaussianBlur><feComposite operator="in" in2="SourceGraphic"></feComposite><feGaussianBlur stdDeviation="1"></feGaussianBlur></filter></defs><g transform="translate(250,75)"><g transform="translate(-20.4, -1.2)"><g transform="skewX(45)"><g filter="url(#editing-shadow)"><g transform="translate(-212.32498955726624, 25.1200008392334)"><path d="M30.78-11.46L30.78-11.46L30.78-11.46Q30.78 0 18.50 0L18.50 0L2.82 0L2.82-39.74L18.18-39.74L18.18-39.74Q24.26-39.74 27.20-37.28L27.20-37.28L27.20-37.28Q30.14-34.82 30.14-29.44L30.14-29.44L30.14-29.44Q30.14-24.06 25.73-21.25L25.73-21.25L25.73-20.86L25.73-20.86Q30.78-18.88 30.78-11.46ZM15.94-7.10L15.94-7.10Q17.86-7.10 18.53-7.97L18.53-7.97L18.53-7.97Q19.20-8.83 19.20-11.55L19.20-11.55L19.20-11.55Q19.20-14.27 18.50-15.39L18.50-15.39L18.50-15.39Q17.79-16.51 15.94-16.51L15.94-16.51L13.89-16.51L13.89-7.10L15.94-7.10ZM16-22.72L16-22.72Q17.47-22.72 18.05-23.62L18.05-23.62L18.05-23.62Q18.62-24.51 18.62-26.78L18.62-26.78L18.62-26.78Q18.62-29.06 18.02-29.98L18.02-29.98L18.02-29.98Q17.41-30.91 15.94-30.91L15.94-30.91L13.89-30.91L13.89-22.72L16-22.72ZM41.22 0.64L41.22 0.64L41.22 0.64Q33.60 0.64 33.60-7.81L33.60-7.81L33.60-30.66L44.48-30.66L44.48-10.43L44.48-10.43Q44.48-8.83 45.89-8.83L45.89-8.83L45.89-8.83Q47.68-8.83 48.90-9.73L48.90-9.73L48.90-30.66L59.65-30.66L59.65-0.13L49.47-0.13L49.47-2.37L49.22-2.37L49.22-2.37Q45.70 0.64 41.22 0.64ZM81.09-8.45L80.77 0.06L80.77 0.06Q76.03 0.64 72.54 0.64L72.54 0.64L72.54 0.64Q69.06 0.64 67.10-1.18L67.10-1.18L67.10-1.18Q65.15-3.01 65.15-7.49L65.15-7.49L65.15-22.34L62.08-22.34L62.08-30.27L65.66-30.27L66.24-36.16L75.90-36.16L75.90-30.27L81.60-30.27L81.15-22.34L75.84-22.34L75.84-9.60L75.84-9.60Q75.84-8.26 77.12-8.26L77.12-8.26L77.12-8.26Q77.25-8.26 81.09-8.45L81.09-8.45ZM101.38-8.45L101.06 0.06L101.06 0.06Q96.32 0.64 92.83 0.64L92.83 0.64L92.83 0.64Q89.34 0.64 87.39-1.18L87.39-1.18L87.39-1.18Q85.44-3.01 85.44-7.49L85.44-7.49L85.44-22.34L82.37-22.34L82.37-30.27L85.95-30.27L86.53-36.16L96.19-36.16L96.19-30.27L101.89-30.27L101.44-22.34L96.13-22.34L96.13-9.60L96.13-9.60Q96.13-8.26 97.41-8.26L97.41-8.26L97.41-8.26Q97.54-8.26 101.38-8.45L101.38-8.45ZM116.86-22.27L116.86-22.27L116.86-22.27Q115.20-22.27 114.69-21.15L114.69-21.15L114.69-21.15Q114.18-20.03 114.18-17.73L114.18-17.73L119.74-17.73L119.74-19.26L119.74-19.26Q119.74-22.27 116.86-22.27ZM117.12-31.42L117.12-31.42L117.12-31.42Q123.71-31.42 126.56-28.26L126.56-28.26L126.56-28.26Q129.41-25.09 129.41-19.20L129.41-19.20L129.41-19.20Q129.41-18.43 128.96-12.29L128.96-12.29L114.37-12.29L114.37-12.29Q114.37-7.49 118.78-7.49L118.78-7.49L118.78-7.49Q120.90-7.49 127.04-8.96L127.04-8.96L127.94-1.02L127.94-1.02Q122.56 0.64 117.18 0.64L117.18 0.64L117.18 0.64Q110.59 0.64 107.07-3.68L107.07-3.68L107.07-3.68Q103.55-8 103.55-15.42L103.55-15.42L103.55-15.42Q103.55-31.42 117.12-31.42ZM142.98-17.22L142.98-17.22L142.98 0L132.35 0L132.35-30.66L141.70-30.66L142.34-28.80L142.59-28.80L142.59-28.80Q144.06-30.46 145.57-30.94L145.57-30.94L145.57-30.94Q147.07-31.42 150.46-31.42L150.46-31.42L150.02-21.18L147.07-21.18L147.07-21.18Q144.58-21.18 143.78-20.42L143.78-20.42L143.78-20.42Q142.98-19.65 142.98-17.22ZM165.79-22.08L165.79-22.08L165.79-22.08Q163.90-22.08 163.26-20.38L163.26-20.38L163.26-20.38Q162.62-18.69 162.62-15.10L162.62-15.10L162.62-15.10Q162.62-11.52 163.23-9.92L163.23-9.92L163.23-9.92Q163.84-8.32 165.79-8.32L165.79-8.32L165.79-8.32Q167.74-8.32 170.88-9.02L170.88-9.02L172.03-0.83L172.03-0.83Q167.62 0.64 164.16 0.64L164.16 0.64L164.16 0.64Q158.08 0.64 154.98-3.46L154.98-3.46L154.98-3.46Q151.87-7.55 151.87-14.91L151.87-14.91L151.87-14.91Q151.87-22.27 155.07-26.85L155.07-26.85L155.07-26.85Q158.27-31.42 164.35-31.42L164.35-31.42L164.35-31.42Q168.90-31.42 172.54-29.89L172.54-29.89L171.39-20.48L171.39-20.48Q167.68-22.08 165.79-22.08ZM182.08 0.64L182.08 0.64L182.08 0.64Q174.46 0.64 174.46-7.81L174.46-7.81L174.46-30.66L185.34-30.66L185.34-10.43L185.34-10.43Q185.34-8.83 186.75-8.83L186.75-8.83L186.75-8.83Q188.54-8.83 189.76-9.73L189.76-9.73L189.76-30.66L200.51-30.66L200.51-0.13L190.34-0.13L190.34-2.37L190.08-2.37L190.08-2.37Q186.56 0.64 182.08 0.64ZM215.36-0.70L215.10-0.70L215.10 8.77L204.35 8.77L204.35-30.66L213.18-30.66L213.82-28.74L214.14-28.74L214.14-28.74Q215.94-31.36 221.18-31.36L221.18-31.36L221.18-31.36Q226.43-31.36 228.58-27.71L228.58-27.71L228.58-27.71Q230.72-24.06 230.72-15.74L230.72-15.74L230.72-15.74Q230.72-7.42 228.45-3.36L228.45-3.36L228.45-3.36Q226.18 0.70 220.10 0.70L220.10 0.70L220.10 0.70Q217.28 0.70 215.36-0.70L215.36-0.70ZM219.62-9.63L219.62-9.63L219.62-9.63Q219.84-10.75 219.90-11.84L219.90-11.84L219.90-11.84Q219.97-12.93 219.97-15.97L219.97-15.97L219.97-15.97Q219.97-19.01 219.52-20.64L219.52-20.64L219.52-20.64Q219.07-22.27 217.70-22.27L217.70-22.27L217.70-22.27Q216.32-22.27 214.98-21.50L214.98-21.50L214.98-8.26L214.98-8.26Q216.19-7.68 217.31-7.68L217.31-7.68L217.31-7.68Q218.43-7.68 218.91-8.10L218.91-8.10L218.91-8.10Q219.39-8.51 219.62-9.63ZM275.71-27.14L275.71-27.14L275.71-27.14Q275.71-23.55 274.62-21.18L274.62-21.18L274.62-21.18Q273.54-18.82 271.23-16.90L271.23-16.90L276.54 0L264.70 0L260.74-14.34L259.26-14.34L259.26 0L248.51 0L248.51-39.74L263.36-39.74L263.36-39.74Q269.76-39.74 272.74-36.74L272.74-36.74L272.74-36.74Q275.71-33.73 275.71-27.14ZM260.93-21.06L260.93-21.06Q262.59-21.06 263.30-22.02L263.30-22.02L263.30-22.02Q264-22.98 264-25.50L264-25.50L264-25.50Q264-28.03 263.30-29.02L263.30-29.02L263.30-29.02Q262.59-30.02 260.99-30.02L260.99-30.02L259.26-30.02L259.26-21.06L260.93-21.06ZM292.03-22.27L292.03-22.27L292.03-22.27Q290.37-22.27 289.86-21.15L289.86-21.15L289.86-21.15Q289.34-20.03 289.34-17.73L289.34-17.73L294.91-17.73L294.91-19.26L294.91-19.26Q294.91-22.27 292.03-22.27ZM292.29-31.42L292.29-31.42L292.29-31.42Q298.88-31.42 301.73-28.26L301.73-28.26L301.73-28.26Q304.58-25.09 304.58-19.20L304.58-19.20L304.58-19.20Q304.58-18.43 304.13-12.29L304.13-12.29L289.54-12.29L289.54-12.29Q289.54-7.49 293.95-7.49L293.95-7.49L293.95-7.49Q296.06-7.49 302.21-8.96L302.21-8.96L303.10-1.02L303.10-1.02Q297.73 0.64 292.35 0.64L292.35 0.64L292.35 0.64Q285.76 0.64 282.24-3.68L282.24-3.68L282.24-3.68Q278.72-8 278.72-15.42L278.72-15.42L278.72-15.42Q278.72-31.42 292.29-31.42ZM320.93-22.08L320.93-22.08L320.93-22.08Q319.04-22.08 318.40-20.38L318.40-20.38L318.40-20.38Q317.76-18.69 317.76-15.10L317.76-15.10L317.76-15.10Q317.76-11.52 318.37-9.92L318.37-9.92L318.37-9.92Q318.98-8.32 320.93-8.32L320.93-8.32L320.93-8.32Q322.88-8.32 326.02-9.02L326.02-9.02L327.17-0.83L327.17-0.83Q322.75 0.64 319.30 0.64L319.30 0.64L319.30 0.64Q313.22 0.64 310.11-3.46L310.11-3.46L310.11-3.46Q307.01-7.55 307.01-14.91L307.01-14.91L307.01-14.91Q307.01-22.27 310.21-26.85L310.21-26.85L310.21-26.85Q313.41-31.42 319.49-31.42L319.49-31.42L319.49-31.42Q324.03-31.42 327.68-29.89L327.68-29.89L326.53-20.48L326.53-20.48Q322.82-22.08 320.93-22.08ZM340.42-30.34L340.42 0L329.86 0L329.86-30.34L340.42-30.34ZM330.69-32.77L330.69-32.77L330.69-32.77Q329.34-33.92 329.34-36.48L329.34-36.48L329.34-36.48Q329.34-39.04 330.69-40.26L330.69-40.26L330.69-40.26Q332.03-41.47 335.10-41.47L335.10-41.47L335.10-41.47Q338.18-41.47 339.52-40.26L339.52-40.26L339.52-40.26Q340.86-39.04 340.86-36.51L340.86-36.51L340.86-36.51Q340.86-33.98 339.52-32.80L339.52-32.80L339.52-32.80Q338.18-31.62 335.10-31.62L335.10-31.62L335.10-31.62Q332.03-31.62 330.69-32.77ZM355.46-0.70L355.20-0.70L355.20 8.77L344.45 8.77L344.45-30.66L353.28-30.66L353.92-28.74L354.24-28.74L354.24-28.74Q356.03-31.36 361.28-31.36L361.28-31.36L361.28-31.36Q366.53-31.36 368.67-27.71L368.67-27.71L368.67-27.71Q370.82-24.06 370.82-15.74L370.82-15.74L370.82-15.74Q370.82-7.42 368.54-3.36L368.54-3.36L368.54-3.36Q366.27 0.70 360.19 0.70L360.19 0.70L360.19 0.70Q357.38 0.70 355.46-0.70L355.46-0.70ZM359.71-9.63L359.71-9.63L359.71-9.63Q359.94-10.75 360-11.84L360-11.84L360-11.84Q360.06-12.93 360.06-15.97L360.06-15.97L360.06-15.97Q360.06-19.01 359.62-20.64L359.62-20.64L359.62-20.64Q359.17-22.27 357.79-22.27L357.79-22.27L357.79-22.27Q356.42-22.27 355.07-21.50L355.07-21.50L355.07-8.26L355.07-8.26Q356.29-7.68 357.41-7.68L357.41-7.68L357.41-7.68Q358.53-7.68 359.01-8.10L359.01-8.10L359.01-8.10Q359.49-8.51 359.71-9.63ZM387.07-22.27L387.07-22.27L387.07-22.27Q385.41-22.27 384.90-21.15L384.90-21.15L384.90-21.15Q384.38-20.03 384.38-17.73L384.38-17.73L389.95-17.73L389.95-19.26L389.95-19.26Q389.95-22.27 387.07-22.27ZM387.33-31.42L387.33-31.42L387.33-31.42Q393.92-31.42 396.77-28.26L396.77-28.26L396.77-28.26Q399.62-25.09 399.62-19.20L399.62-19.20L399.62-19.20Q399.62-18.43 399.17-12.29L399.17-12.29L384.58-12.29L384.58-12.29Q384.58-7.49 388.99-7.49L388.99-7.49L388.99-7.49Q391.10-7.49 397.25-8.96L397.25-8.96L398.14-1.02L398.14-1.02Q392.77 0.64 387.39 0.64L387.39 0.64L387.39 0.64Q380.80 0.64 377.28-3.68L377.28-3.68L377.28-3.68Q373.76-8 373.76-15.42L373.76-15.42L373.76-15.42Q373.76-31.42 387.33-31.42ZM400.90-21.60L400.90-21.60L400.90-21.60Q400.90-26.24 403.74-28.83L403.74-28.83L403.74-28.83Q406.59-31.42 411.58-31.42L411.58-31.42L411.58-31.42Q416.58-31.42 421.70-30.14L421.70-30.14L420.61-21.25L420.61-21.25Q414.08-22.72 411.84-22.72L411.84-22.72L411.84-22.72Q410.50-22.72 410.50-21.63L410.50-21.63L410.50-21.63Q410.50-20.93 411.97-20.35L411.97-20.35L411.97-20.35Q417.09-18.50 419.68-16.13L419.68-16.13L419.68-16.13Q422.27-13.76 422.27-9.02L422.27-9.02L422.27-9.02Q422.27-4.29 419.84-1.82L419.84-1.82L419.84-1.82Q417.41 0.64 412.38 0.64L412.38 0.64L412.38 0.64Q407.36 0.64 402.37-0.64L402.37-0.64L403.07-9.28L403.07-9.28Q409.47-7.55 411.36-7.55L411.36-7.55L411.36-7.55Q413.25-7.55 413.25-8.45L413.25-8.45L413.25-8.45Q413.25-9.34 411.84-9.86L411.84-9.86L411.84-9.86Q406.14-12.03 403.52-14.50L403.52-14.50L403.52-14.50Q400.90-16.96 400.90-21.60Z" fill="url(#editing-shadow-gradient1)"></path></g></g></g></g><g><g transform="translate(-212.4926073551178, 25.1200008392334)"><path d="M30.78-11.46L30.78-11.46L30.78-11.46Q30.78 0 18.50 0L18.50 0L2.82 0L2.82-39.74L18.18-39.74L18.18-39.74Q24.26-39.74 27.20-37.28L27.20-37.28L27.20-37.28Q30.14-34.82 30.14-29.44L30.14-29.44L30.14-29.44Q30.14-24.06 25.73-21.25L25.73-21.25L25.73-20.86L25.73-20.86Q30.78-18.88 30.78-11.46ZM15.94-7.10L15.94-7.10Q17.86-7.10 18.53-7.97L18.53-7.97L18.53-7.97Q19.20-8.83 19.20-11.55L19.20-11.55L19.20-11.55Q19.20-14.27 18.50-15.39L18.50-15.39L18.50-15.39Q17.79-16.51 15.94-16.51L15.94-16.51L13.89-16.51L13.89-7.10L15.94-7.10ZM16-22.72L16-22.72Q17.47-22.72 18.05-23.62L18.05-23.62L18.05-23.62Q18.62-24.51 18.62-26.78L18.62-26.78L18.62-26.78Q18.62-29.06 18.02-29.98L18.02-29.98L18.02-29.98Q17.41-30.91 15.94-30.91L15.94-30.91L13.89-30.91L13.89-22.72L16-22.72ZM41.22 0.64L41.22 0.64L41.22 0.64Q33.60 0.64 33.60-7.81L33.60-7.81L33.60-30.66L44.48-30.66L44.48-10.43L44.48-10.43Q44.48-8.83 45.89-8.83L45.89-8.83L45.89-8.83Q47.68-8.83 48.90-9.73L48.90-9.73L48.90-30.66L59.65-30.66L59.65-0.13L49.47-0.13L49.47-2.37L49.22-2.37L49.22-2.37Q45.70 0.64 41.22 0.64ZM81.09-8.45L80.77 0.06L80.77 0.06Q76.03 0.64 72.54 0.64L72.54 0.64L72.54 0.64Q69.06 0.64 67.10-1.18L67.10-1.18L67.10-1.18Q65.15-3.01 65.15-7.49L65.15-7.49L65.15-22.34L62.08-22.34L62.08-30.27L65.66-30.27L66.24-36.16L75.90-36.16L75.90-30.27L81.60-30.27L81.15-22.34L75.84-22.34L75.84-9.60L75.84-9.60Q75.84-8.26 77.12-8.26L77.12-8.26L77.12-8.26Q77.25-8.26 81.09-8.45L81.09-8.45ZM101.38-8.45L101.06 0.06L101.06 0.06Q96.32 0.64 92.83 0.64L92.83 0.64L92.83 0.64Q89.34 0.64 87.39-1.18L87.39-1.18L87.39-1.18Q85.44-3.01 85.44-7.49L85.44-7.49L85.44-22.34L82.37-22.34L82.37-30.27L85.95-30.27L86.53-36.16L96.19-36.16L96.19-30.27L101.89-30.27L101.44-22.34L96.13-22.34L96.13-9.60L96.13-9.60Q96.13-8.26 97.41-8.26L97.41-8.26L97.41-8.26Q97.54-8.26 101.38-8.45L101.38-8.45ZM116.86-22.27L116.86-22.27L116.86-22.27Q115.20-22.27 114.69-21.15L114.69-21.15L114.69-21.15Q114.18-20.03 114.18-17.73L114.18-17.73L119.74-17.73L119.74-19.26L119.74-19.26Q119.74-22.27 116.86-22.27ZM117.12-31.42L117.12-31.42L117.12-31.42Q123.71-31.42 126.56-28.26L126.56-28.26L126.56-28.26Q129.41-25.09 129.41-19.20L129.41-19.20L129.41-19.20Q129.41-18.43 128.96-12.29L128.96-12.29L114.37-12.29L114.37-12.29Q114.37-7.49 118.78-7.49L118.78-7.49L118.78-7.49Q120.90-7.49 127.04-8.96L127.04-8.96L127.94-1.02L127.94-1.02Q122.56 0.64 117.18 0.64L117.18 0.64L117.18 0.64Q110.59 0.64 107.07-3.68L107.07-3.68L107.07-3.68Q103.55-8 103.55-15.42L103.55-15.42L103.55-15.42Q103.55-31.42 117.12-31.42ZM142.98-17.22L142.98-17.22L142.98 0L132.35 0L132.35-30.66L141.70-30.66L142.34-28.80L142.59-28.80L142.59-28.80Q144.06-30.46 145.57-30.94L145.57-30.94L145.57-30.94Q147.07-31.42 150.46-31.42L150.46-31.42L150.02-21.18L147.07-21.18L147.07-21.18Q144.58-21.18 143.78-20.42L143.78-20.42L143.78-20.42Q142.98-19.65 142.98-17.22ZM165.79-22.08L165.79-22.08L165.79-22.08Q163.90-22.08 163.26-20.38L163.26-20.38L163.26-20.38Q162.62-18.69 162.62-15.10L162.62-15.10L162.62-15.10Q162.62-11.52 163.23-9.92L163.23-9.92L163.23-9.92Q163.84-8.32 165.79-8.32L165.79-8.32L165.79-8.32Q167.74-8.32 170.88-9.02L170.88-9.02L172.03-0.83L172.03-0.83Q167.62 0.64 164.16 0.64L164.16 0.64L164.16 0.64Q158.08 0.64 154.98-3.46L154.98-3.46L154.98-3.46Q151.87-7.55 151.87-14.91L151.87-14.91L151.87-14.91Q151.87-22.27 155.07-26.85L155.07-26.85L155.07-26.85Q158.27-31.42 164.35-31.42L164.35-31.42L164.35-31.42Q168.90-31.42 172.54-29.89L172.54-29.89L171.39-20.48L171.39-20.48Q167.68-22.08 165.79-22.08ZM182.08 0.64L182.08 0.64L182.08 0.64Q174.46 0.64 174.46-7.81L174.46-7.81L174.46-30.66L185.34-30.66L185.34-10.43L185.34-10.43Q185.34-8.83 186.75-8.83L186.75-8.83L186.75-8.83Q188.54-8.83 189.76-9.73L189.76-9.73L189.76-30.66L200.51-30.66L200.51-0.13L190.34-0.13L190.34-2.37L190.08-2.37L190.08-2.37Q186.56 0.64 182.08 0.64ZM215.36-0.70L215.10-0.70L215.10 8.77L204.35 8.77L204.35-30.66L213.18-30.66L213.82-28.74L214.14-28.74L214.14-28.74Q215.94-31.36 221.18-31.36L221.18-31.36L221.18-31.36Q226.43-31.36 228.58-27.71L228.58-27.71L228.58-27.71Q230.72-24.06 230.72-15.74L230.72-15.74L230.72-15.74Q230.72-7.42 228.45-3.36L228.45-3.36L228.45-3.36Q226.18 0.70 220.10 0.70L220.10 0.70L220.10 0.70Q217.28 0.70 215.36-0.70L215.36-0.70ZM219.62-9.63L219.62-9.63L219.62-9.63Q219.84-10.75 219.90-11.84L219.90-11.84L219.90-11.84Q219.97-12.93 219.97-15.97L219.97-15.97L219.97-15.97Q219.97-19.01 219.52-20.64L219.52-20.64L219.52-20.64Q219.07-22.27 217.70-22.27L217.70-22.27L217.70-22.27Q216.32-22.27 214.98-21.50L214.98-21.50L214.98-8.26L214.98-8.26Q216.19-7.68 217.31-7.68L217.31-7.68L217.31-7.68Q218.43-7.68 218.91-8.10L218.91-8.10L218.91-8.10Q219.39-8.51 219.62-9.63ZM275.71-27.14L275.71-27.14L275.71-27.14Q275.71-23.55 274.62-21.18L274.62-21.18L274.62-21.18Q273.54-18.82 271.23-16.90L271.23-16.90L276.54 0L264.70 0L260.74-14.34L259.26-14.34L259.26 0L248.51 0L248.51-39.74L263.36-39.74L263.36-39.74Q269.76-39.74 272.74-36.74L272.74-36.74L272.74-36.74Q275.71-33.73 275.71-27.14ZM260.93-21.06L260.93-21.06Q262.59-21.06 263.30-22.02L263.30-22.02L263.30-22.02Q264-22.98 264-25.50L264-25.50L264-25.50Q264-28.03 263.30-29.02L263.30-29.02L263.30-29.02Q262.59-30.02 260.99-30.02L260.99-30.02L259.26-30.02L259.26-21.06L260.93-21.06ZM292.03-22.27L292.03-22.27L292.03-22.27Q290.37-22.27 289.86-21.15L289.86-21.15L289.86-21.15Q289.34-20.03 289.34-17.73L289.34-17.73L294.91-17.73L294.91-19.26L294.91-19.26Q294.91-22.27 292.03-22.27ZM292.29-31.42L292.29-31.42L292.29-31.42Q298.88-31.42 301.73-28.26L301.73-28.26L301.73-28.26Q304.58-25.09 304.58-19.20L304.58-19.20L304.58-19.20Q304.58-18.43 304.13-12.29L304.13-12.29L289.54-12.29L289.54-12.29Q289.54-7.49 293.95-7.49L293.95-7.49L293.95-7.49Q296.06-7.49 302.21-8.96L302.21-8.96L303.10-1.02L303.10-1.02Q297.73 0.64 292.35 0.64L292.35 0.64L292.35 0.64Q285.76 0.64 282.24-3.68L282.24-3.68L282.24-3.68Q278.72-8 278.72-15.42L278.72-15.42L278.72-15.42Q278.72-31.42 292.29-31.42ZM320.93-22.08L320.93-22.08L320.93-22.08Q319.04-22.08 318.40-20.38L318.40-20.38L318.40-20.38Q317.76-18.69 317.76-15.10L317.76-15.10L317.76-15.10Q317.76-11.52 318.37-9.92L318.37-9.92L318.37-9.92Q318.98-8.32 320.93-8.32L320.93-8.32L320.93-8.32Q322.88-8.32 326.02-9.02L326.02-9.02L327.17-0.83L327.17-0.83Q322.75 0.64 319.30 0.64L319.30 0.64L319.30 0.64Q313.22 0.64 310.11-3.46L310.11-3.46L310.11-3.46Q307.01-7.55 307.01-14.91L307.01-14.91L307.01-14.91Q307.01-22.27 310.21-26.85L310.21-26.85L310.21-26.85Q313.41-31.42 319.49-31.42L319.49-31.42L319.49-31.42Q324.03-31.42 327.68-29.89L327.68-29.89L326.53-20.48L326.53-20.48Q322.82-22.08 320.93-22.08ZM340.42-30.34L340.42 0L329.86 0L329.86-30.34L340.42-30.34ZM330.69-32.77L330.69-32.77L330.69-32.77Q329.34-33.92 329.34-36.48L329.34-36.48L329.34-36.48Q329.34-39.04 330.69-40.26L330.69-40.26L330.69-40.26Q332.03-41.47 335.10-41.47L335.10-41.47L335.10-41.47Q338.18-41.47 339.52-40.26L339.52-40.26L339.52-40.26Q340.86-39.04 340.86-36.51L340.86-36.51L340.86-36.51Q340.86-33.98 339.52-32.80L339.52-32.80L339.52-32.80Q338.18-31.62 335.10-31.62L335.10-31.62L335.10-31.62Q332.03-31.62 330.69-32.77ZM355.46-0.70L355.20-0.70L355.20 8.77L344.45 8.77L344.45-30.66L353.28-30.66L353.92-28.74L354.24-28.74L354.24-28.74Q356.03-31.36 361.28-31.36L361.28-31.36L361.28-31.36Q366.53-31.36 368.67-27.71L368.67-27.71L368.67-27.71Q370.82-24.06 370.82-15.74L370.82-15.74L370.82-15.74Q370.82-7.42 368.54-3.36L368.54-3.36L368.54-3.36Q366.27 0.70 360.19 0.70L360.19 0.70L360.19 0.70Q357.38 0.70 355.46-0.70L355.46-0.70ZM359.71-9.63L359.71-9.63L359.71-9.63Q359.94-10.75 360-11.84L360-11.84L360-11.84Q360.06-12.93 360.06-15.97L360.06-15.97L360.06-15.97Q360.06-19.01 359.62-20.64L359.62-20.64L359.62-20.64Q359.17-22.27 357.79-22.27L357.79-22.27L357.79-22.27Q356.42-22.27 355.07-21.50L355.07-21.50L355.07-8.26L355.07-8.26Q356.29-7.68 357.41-7.68L357.41-7.68L357.41-7.68Q358.53-7.68 359.01-8.10L359.01-8.10L359.01-8.10Q359.49-8.51 359.71-9.63ZM387.07-22.27L387.07-22.27L387.07-22.27Q385.41-22.27 384.90-21.15L384.90-21.15L384.90-21.15Q384.38-20.03 384.38-17.73L384.38-17.73L389.95-17.73L389.95-19.26L389.95-19.26Q389.95-22.27 387.07-22.27ZM387.33-31.42L387.33-31.42L387.33-31.42Q393.92-31.42 396.77-28.26L396.77-28.26L396.77-28.26Q399.62-25.09 399.62-19.20L399.62-19.20L399.62-19.20Q399.62-18.43 399.17-12.29L399.17-12.29L384.58-12.29L384.58-12.29Q384.58-7.49 388.99-7.49L388.99-7.49L388.99-7.49Q391.10-7.49 397.25-8.96L397.25-8.96L398.14-1.02L398.14-1.02Q392.77 0.64 387.39 0.64L387.39 0.64L387.39 0.64Q380.80 0.64 377.28-3.68L377.28-3.68L377.28-3.68Q373.76-8 373.76-15.42L373.76-15.42L373.76-15.42Q373.76-31.42 387.33-31.42ZM400.90-21.60L400.90-21.60L400.90-21.60Q400.90-26.24 403.74-28.83L403.74-28.83L403.74-28.83Q406.59-31.42 411.58-31.42L411.58-31.42L411.58-31.42Q416.58-31.42 421.70-30.14L421.70-30.14L420.61-21.25L420.61-21.25Q414.08-22.72 411.84-22.72L411.84-22.72L411.84-22.72Q410.50-22.72 410.50-21.63L410.50-21.63L410.50-21.63Q410.50-20.93 411.97-20.35L411.97-20.35L411.97-20.35Q417.09-18.50 419.68-16.13L419.68-16.13L419.68-16.13Q422.27-13.76 422.27-9.02L422.27-9.02L422.27-9.02Q422.27-4.29 419.84-1.82L419.84-1.82L419.84-1.82Q417.41 0.64 412.38 0.64L412.38 0.64L412.38 0.64Q407.36 0.64 402.37-0.64L402.37-0.64L403.07-9.28L403.07-9.28Q409.47-7.55 411.36-7.55L411.36-7.55L411.36-7.55Q413.25-7.55 413.25-8.45L413.25-8.45L413.25-8.45Q413.25-9.34 411.84-9.86L411.84-9.86L411.84-9.86Q406.14-12.03 403.52-14.50L403.52-14.50L403.52-14.50Q400.90-16.96 400.90-21.60Z" fill="url(#editing-shadow-gradient2)"></path></g></g></g><style>text {
  font-size: 64px;
  font-family: Arial Black;
  dominant-baseline: central;
  text-anchor: middle;
}</style></svg>