<svg width="777.425px" height="122px" xmlns="http://www.w3.org/2000/svg" viewBox="-138.71249999999998 14 777.425 122" style="background: rgba(0, 0, 0, 0);" preserveAspectRatio="xMidYMid"><defs><linearGradient id="editing-shiny-gradient" x1="0.04322727117869957" x2="0.9567727288213004" y1="0.2966316784620999" y2="0.7033683215379001" gradientUnits="objectBoundingBox"><stop offset="0.0" stop-color="#ca135a"></stop><stop offset="0.5" stop-color="#c11457"></stop><stop offset="1.0" stop-color="rgba(88.23529411764706%,0%,34.11764705882353%,0.942)"></stop></linearGradient><linearGradient id="editing-shiny-gradient2" x1="0" x2="0" y1="0" y2="1"><stop offset="0.2" stop-color="#fff" stop-opacity="0.8"></stop><stop offset="0.8" stop-color="#fff" stop-opacity="0"></stop></linearGradient><filter id="editing-shiny2" x="-100%" y="-100%" width="300%" height="300%"><feMorphology operator="erode" radius="2"></feMorphology></filter><filter id="editing-shiny" x="-100%" y="-100%" width="300%" height="300%"><feFlood flood-color="#fff" result="flood"></feFlood><feConvolveMatrix in="SourceGraphic" result="conv" order="8,8" divisor="1" kernelMatrix="0 0 0 0 0 0 0 0 0 0 0 1 1 0 0 0 0 0 0 1 1 0 0 0 0 0 1 0 0 1 0 0 0 0 1 0 0 1 0 0 0 1 0 0 0 0 1 0 0 1 1 0 0 1 1 0 0 0 0 1 1 0 0 0 "></feConvolveMatrix><feOffset dx="0" dy="4" in="conv" result="offset"></feOffset><feComposite operator="in" in="flood" in2="offset" result="comp"></feComposite><feGaussianBlur in="offset" stdDeviation="3" result="shadow"></feGaussianBlur><feColorMatrix in="shadow" type="matrix" values="0.7 0 0 0 0  0 0.7 0 0 0  0 0 0.7 0 0  0 0 0 0.3 0" result="dark-shadow"></feColorMatrix><feOffset dx="0" dy="4" in="dark-shadow" result="offset-shadow"></feOffset><feOffset dx="0" dy="2" in="conv" result="offset-2"></feOffset><feComposite operator="out" in="offset" in2="offset-2" result="edge-diff"></feComposite><feGaussianBlur in="edge-diff" stdDeviation="1" result="edge-blur"></feGaussianBlur><feColorMatrix in="edge-blur" result="edge-shadow" type="matrix" values="0 0 0 0 0  0 0 0 0 0  0 0 0 0 0  0 0 0 0.5 0"></feColorMatrix><feComposite operator="in" in="edge-shadow" in2="offset" result="edge-shadow-in"></feComposite><feOffset dx="0" dy="1" in="edge-shadow-in" result="edge-shadow-final"></feOffset><feMerge result="out"><feMergeNode in="offset-shadow"></feMergeNode><feMergeNode in="comp"></feMergeNode><feMergeNode in="edge-shadow-final"></feMergeNode><feMergeNode in="SourceGraphic"></feMergeNode></feMerge></filter></defs><g filter="url(#editing-shiny)"><g transform="translate(-28.115012377500534, 104.76000022888184)"><path d="M0.45-0.32L0.45-0.32L8.51-42.24L8.51-42.24Q16.06-42.88 20.93-42.88L20.93-42.88L20.93-42.88Q25.79-42.88 28.93-42.46L28.93-42.46L28.93-42.46Q32.06-42.05 34.18-40.96L34.18-40.96L34.18-40.96Q38.40-38.91 38.40-33.28L38.40-33.28L38.40-33.28Q38.40-30.02 35.58-27.26L35.58-27.26L35.58-27.26Q32.96-24.77 30.08-24.19L30.08-24.19L30.08-24.19Q33.15-23.68 35.33-21.38L35.33-21.38L35.33-21.38Q37.63-18.94 37.63-15.17L37.63-15.17L37.63-15.17Q37.63-7.87 32.19-3.62L32.19-3.62L32.19-3.62Q26.75 0.64 16.06 0.64L16.06 0.64L16.06 0.64Q8.70 0.64 0.45-0.32ZM17.86-20.61L14.66-4.03L14.66-4.03Q15.23-3.97 15.36-3.97L15.36-3.97L15.94-3.97L15.94-3.97Q21.18-3.97 23.42-7.42L23.42-7.42L23.42-7.42Q25.09-10.11 25.09-15.04L25.09-15.04L25.09-15.04Q25.09-17.66 23.39-19.07L23.39-19.07L23.39-19.07Q21.70-20.48 17.86-20.61L17.86-20.61ZM27.58-33.22L27.58-33.22L27.58-33.22Q27.58-38.53 22.46-38.53L22.46-38.53L21.89-38.53L21.89-38.53Q21.63-38.53 21.25-38.46L21.25-38.46L18.69-24.96L19.33-24.96L19.33-24.96Q27.58-25.15 27.58-33.22ZM62.40-2.69L62.40-2.69L62.40-2.69Q59.33 1.28 51.71 1.28L51.71 1.28L51.71 1.28Q47.74 1.28 44.86-1.12L44.86-1.12L44.86-1.12Q41.98-3.52 41.98-6.98L41.98-6.98L41.98-6.98Q41.98-8.90 42.18-9.86L42.18-9.86L46.46-32.64L59.46-33.92L54.78-9.22L54.78-9.22Q54.53-7.81 54.53-6.98L54.53-6.98L54.53-6.98Q54.53-3.26 56.77-3.26L56.77-3.26L56.77-3.26Q59.26-3.26 61.06-6.66L61.06-6.66L61.06-6.66Q61.63-7.74 61.89-9.15L61.89-9.15L66.43-32.64L79.04-33.92L74.30-8.96L74.30-8.96Q74.11-8 74.11-6.98L74.11-6.98L74.11-6.98Q74.11-5.95 74.69-4.83L74.69-4.83L74.69-4.83Q75.26-3.71 77.12-3.46L77.12-3.46L77.12-3.46Q76.74-1.92 75.39-0.90L75.39-0.90L75.39-0.90Q72.58 1.28 69.54 1.28L69.54 1.28L69.54 1.28Q66.50 1.28 64.70 0.19L64.70 0.19L64.70 0.19Q62.91-0.90 62.40-2.69ZM83.52-6.40L83.52-6.40L83.52-6.40Q83.52-8.13 84.42-12.48L84.42-12.48L87.81-29.76L84.03-29.76L84.29-31.68L84.29-31.68Q91.97-33.98 99.39-39.62L99.39-39.62L102.46-39.62L100.93-32.64L105.92-32.64L105.34-29.76L100.42-29.76L97.15-12.48L97.15-12.48Q96.32-8.51 96.32-7.17L96.32-7.17L96.32-7.17Q96.32-4.10 99.01-3.46L99.01-3.46L99.01-3.46Q98.37-1.28 96.06 0L96.06 0L96.06 0Q93.76 1.28 90.50 1.28L90.50 1.28L90.50 1.28Q87.23 1.28 85.38-0.77L85.38-0.77L85.38-0.77Q83.52-2.82 83.52-6.40ZM106.62-6.40L106.62-6.40L106.62-6.40Q106.62-8.13 107.52-12.48L107.52-12.48L110.91-29.76L107.14-29.76L107.39-31.68L107.39-31.68Q115.07-33.98 122.50-39.62L122.50-39.62L125.57-39.62L124.03-32.64L129.02-32.64L128.45-29.76L123.52-29.76L120.26-12.48L120.26-12.48Q119.42-8.51 119.42-7.17L119.42-7.17L119.42-7.17Q119.42-4.10 122.11-3.46L122.11-3.46L122.11-3.46Q121.47-1.28 119.17 0L119.17 0L119.17 0Q116.86 1.28 113.60 1.28L113.60 1.28L113.60 1.28Q110.34 1.28 108.48-0.77L108.48-0.77L108.48-0.77Q106.62-2.82 106.62-6.40ZM154.37-10.82L154.37-10.82L154.37-10.82Q155.97-9.73 155.97-7.33L155.97-7.33L155.97-7.33Q155.97-4.93 154.75-3.39L154.75-3.39L154.75-3.39Q153.54-1.86 151.55-0.83L151.55-0.83L151.55-0.83Q147.46 1.28 143.04 1.28L143.04 1.28L143.04 1.28Q138.62 1.28 136.03 0.32L136.03 0.32L136.03 0.32Q133.44-0.64 131.71-2.43L131.71-2.43L131.71-2.43Q128.32-5.82 128.32-12.03L128.32-12.03L128.32-12.03Q128.32-21.70 133.57-27.58L133.57-27.58L133.57-27.58Q139.20-33.92 148.99-33.92L148.99-33.92L148.99-33.92Q155.07-33.92 158.08-31.36L158.08-31.36L158.08-31.36Q160.32-29.44 160.32-26.30L160.32-26.30L160.32-26.30Q160.32-15.04 140.86-15.04L140.86-15.04L140.86-15.04Q140.61-13.38 140.61-11.97L140.61-11.97L140.61-11.97Q140.61-9.02 141.92-7.90L141.92-7.90L141.92-7.90Q143.23-6.78 145.66-6.78L145.66-6.78L145.66-6.78Q148.10-6.78 150.69-7.90L150.69-7.90L150.69-7.90Q153.28-9.02 154.37-10.82ZM141.31-17.79L141.31-17.79L141.31-17.79Q145.86-17.79 148.48-20.61L148.48-20.61L148.48-20.61Q151.10-23.30 151.10-27.58L151.10-27.58L151.10-27.58Q151.10-29.06 150.56-29.86L150.56-29.86L150.56-29.86Q150.02-30.66 148.93-30.66L148.93-30.66L148.93-30.66Q147.84-30.66 146.91-30.24L146.91-30.24L146.91-30.24Q145.98-29.82 145.02-28.42L145.02-28.42L145.02-28.42Q142.66-25.22 141.31-17.79ZM182.53-17.98L182.53-17.98L182.53-17.98Q184.83-22.08 184.83-26.24L184.83-26.24L184.83-26.24Q184.83-28.99 182.85-28.99L182.85-28.99L182.85-28.99Q181.31-28.99 179.71-26.37L179.71-26.37L179.71-26.37Q178.05-23.74 177.54-20.35L177.54-20.35L174.21 0L160.96 1.28L167.49-32.64L178.05-33.92L176.90-27.46L176.90-27.46Q180.03-33.92 187.07-33.92L187.07-33.92L187.07-33.92Q190.78-33.92 192.80-32L192.80-32L192.80-32Q194.82-30.08 194.82-26.14L194.82-26.14L194.82-26.14Q194.82-22.21 192.22-19.71L192.22-19.71L192.22-19.71Q189.63-17.22 185.22-17.22L185.22-17.22L185.22-17.22Q183.30-17.22 182.53-17.98ZM227.26-26.62L227.26-26.62L227.26-26.62Q227.26-23.94 225.02-22.27L225.02-22.27L225.02-22.27Q222.78-20.61 219.14-20.61L219.14-20.61L219.14-20.61Q217.60-20.61 216.70-21.06L216.70-21.06L216.70-21.06Q217.41-22.72 217.63-24.80L217.63-24.80L217.63-24.80Q217.86-26.88 217.86-27.46L217.86-27.46L217.86-27.46Q217.86-30.14 216-30.14L216-30.14L216-30.14Q214.72-30.14 213.28-28.54L213.28-28.54L213.28-28.54Q211.84-26.94 210.62-24.45L210.62-24.45L210.62-24.45Q207.94-18.69 207.94-12.86L207.94-12.86L207.94-12.86Q207.94-9.66 209.15-8.22L209.15-8.22L209.15-8.22Q210.37-6.78 213.06-6.78L213.06-6.78L213.06-6.78Q216.77-6.78 219.71-9.86L219.71-9.86L219.71-9.86Q220.54-10.82 220.99-11.90L220.99-11.90L220.99-11.90Q223.42-10.62 223.42-7.10L223.42-7.10L223.42-7.10Q223.42-3.52 219.46-1.15L219.46-1.15L219.46-1.15Q215.36 1.28 208.83 1.28L208.83 1.28L208.83 1.28Q195.84 1.28 195.84-12.48L195.84-12.48L195.84-12.48Q195.84-22.53 201.54-28.29L201.54-28.29L201.54-28.29Q207.04-33.92 217.15-33.92L217.15-33.92L217.15-33.92Q227.26-33.92 227.26-26.62ZM249.54-2.69L249.54-2.69L249.54-2.69Q246.46 1.28 238.85 1.28L238.85 1.28L238.85 1.28Q234.88 1.28 232-1.12L232-1.12L232-1.12Q229.12-3.52 229.12-6.98L229.12-6.98L229.12-6.98Q229.12-8.90 229.31-9.86L229.31-9.86L233.60-32.64L246.59-33.92L241.92-9.22L241.92-9.22Q241.66-7.81 241.66-6.98L241.66-6.98L241.66-6.98Q241.66-3.26 243.90-3.26L243.90-3.26L243.90-3.26Q246.40-3.26 248.19-6.66L248.19-6.66L248.19-6.66Q248.77-7.74 249.02-9.15L249.02-9.15L253.57-32.64L266.18-33.92L261.44-8.96L261.44-8.96Q261.25-8 261.25-6.98L261.25-6.98L261.25-6.98Q261.25-5.95 261.82-4.83L261.82-4.83L261.82-4.83Q262.40-3.71 264.26-3.46L264.26-3.46L264.26-3.46Q263.87-1.92 262.53-0.90L262.53-0.90L262.53-0.90Q259.71 1.28 256.67 1.28L256.67 1.28L256.67 1.28Q253.63 1.28 251.84 0.19L251.84 0.19L251.84 0.19Q250.05-0.90 249.54-2.69ZM299.46-4.38L299.46-4.38L299.46-4.38Q296.77-1.66 293.09-0.19L293.09-0.19L293.09-0.19Q289.41 1.28 285.76 1.28L285.76 1.28L285.76 1.28Q282.11 1.28 280.83 0.64L280.83 0.64L278.85 11.52L265.86 12.80L274.69-32.64L285.12-33.73L284.29-29.31L284.29-29.31Q286.98-33.86 292.54-33.86L292.54-33.86L292.54-33.86Q298.82-33.86 302.14-29.82L302.14-29.82L302.14-29.82Q305.09-26.18 305.09-20.61L305.09-20.61L305.09-20.61Q305.09-15.04 303.62-11.07L303.62-11.07L303.62-11.07Q302.14-7.10 299.46-4.38ZM284.99-22.34L281.60-3.58L281.60-3.58Q282.94-2.43 284.61-2.43L284.61-2.43L284.61-2.43Q286.27-2.43 287.23-3.07L287.23-3.07L287.23-3.07Q288.19-3.71 288.90-4.99L288.90-4.99L288.90-4.99Q290.82-8.45 292.35-18.94L292.35-18.94L292.35-18.94Q292.80-22.02 292.80-25.02L292.80-25.02L292.80-25.02Q292.80-28.03 292.13-28.99L292.13-28.99L292.13-28.99Q291.46-29.95 290.18-29.95L290.18-29.95L290.18-29.95Q286.27-29.95 284.99-22.34L284.99-22.34ZM335.23 0L321.54 0L329.34-42.05L329.34-42.05Q335.68-42.75 344.93-42.75L344.93-42.75L344.93-42.75Q354.18-42.75 358.46-40.06L358.46-40.06L358.46-40.06Q362.75-37.38 362.75-31.97L362.75-31.97L362.75-31.97Q362.75-26.56 359.97-23.17L359.97-23.17L359.97-23.17Q357.18-19.78 352.38-18.69L352.38-18.69L352.38-18.69Q353.47-13.38 355.97-9.09L355.97-9.09L355.97-9.09Q358.27-5.06 360.96-3.78L360.96-3.78L360.96-3.78Q360-1.09 358.05 0.10L358.05 0.10L358.05 0.10Q356.10 1.28 353.31 1.28L353.31 1.28L353.31 1.28Q350.53 1.28 348.35-0.35L348.35-0.35L348.35-0.35Q346.18-1.98 344.45-4.99L344.45-4.99L344.45-4.99Q340.80-11.52 340.42-21.82L340.42-21.82L340.86-21.82L340.86-21.82Q345.60-21.95 347.97-24.42L347.97-24.42L347.97-24.42Q350.34-26.88 350.34-32.06L350.34-32.06L350.34-32.06Q350.34-38.53 344.90-38.78L344.90-38.78L343.49-38.78L343.49-38.78Q342.91-38.78 342.59-38.72L342.59-38.72L335.23 0ZM391.62-10.82L391.62-10.82L391.62-10.82Q393.22-9.73 393.22-7.33L393.22-7.33L393.22-7.33Q393.22-4.93 392-3.39L392-3.39L392-3.39Q390.78-1.86 388.80-0.83L388.80-0.83L388.80-0.83Q384.70 1.28 380.29 1.28L380.29 1.28L380.29 1.28Q375.87 1.28 373.28 0.32L373.28 0.32L373.28 0.32Q370.69-0.64 368.96-2.43L368.96-2.43L368.96-2.43Q365.57-5.82 365.57-12.03L365.57-12.03L365.57-12.03Q365.57-21.70 370.82-27.58L370.82-27.58L370.82-27.58Q376.45-33.92 386.24-33.92L386.24-33.92L386.24-33.92Q392.32-33.92 395.33-31.36L395.33-31.36L395.33-31.36Q397.57-29.44 397.57-26.30L397.57-26.30L397.57-26.30Q397.57-15.04 378.11-15.04L378.11-15.04L378.11-15.04Q377.86-13.38 377.86-11.97L377.86-11.97L377.86-11.97Q377.86-9.02 379.17-7.90L379.17-7.90L379.17-7.90Q380.48-6.78 382.91-6.78L382.91-6.78L382.91-6.78Q385.34-6.78 387.94-7.90L387.94-7.90L387.94-7.90Q390.53-9.02 391.62-10.82ZM378.56-17.79L378.56-17.79L378.56-17.79Q383.10-17.79 385.73-20.61L385.73-20.61L385.73-20.61Q388.35-23.30 388.35-27.58L388.35-27.58L388.35-27.58Q388.35-29.06 387.81-29.86L387.81-29.86L387.81-29.86Q387.26-30.66 386.18-30.66L386.18-30.66L386.18-30.66Q385.09-30.66 384.16-30.24L384.16-30.24L384.16-30.24Q383.23-29.82 382.27-28.42L382.27-28.42L382.27-28.42Q379.90-25.22 378.56-17.79ZM431.17-26.62L431.17-26.62L431.17-26.62Q431.17-23.94 428.93-22.27L428.93-22.27L428.93-22.27Q426.69-20.61 423.04-20.61L423.04-20.61L423.04-20.61Q421.50-20.61 420.61-21.06L420.61-21.06L420.61-21.06Q421.31-22.72 421.54-24.80L421.54-24.80L421.54-24.80Q421.76-26.88 421.76-27.46L421.76-27.46L421.76-27.46Q421.76-30.14 419.90-30.14L419.90-30.14L419.90-30.14Q418.62-30.14 417.18-28.54L417.18-28.54L417.18-28.54Q415.74-26.94 414.53-24.45L414.53-24.45L414.53-24.45Q411.84-18.69 411.84-12.86L411.84-12.86L411.84-12.86Q411.84-9.66 413.06-8.22L413.06-8.22L413.06-8.22Q414.27-6.78 416.96-6.78L416.96-6.78L416.96-6.78Q420.67-6.78 423.62-9.86L423.62-9.86L423.62-9.86Q424.45-10.82 424.90-11.90L424.90-11.90L424.90-11.90Q427.33-10.62 427.33-7.10L427.33-7.10L427.33-7.10Q427.33-3.52 423.36-1.15L423.36-1.15L423.36-1.15Q419.26 1.28 412.74 1.28L412.74 1.28L412.74 1.28Q399.74 1.28 399.74-12.48L399.74-12.48L399.74-12.48Q399.74-22.53 405.44-28.29L405.44-28.29L405.44-28.29Q410.94-33.92 421.06-33.92L421.06-33.92L421.06-33.92Q431.17-33.92 431.17-26.62ZM448.26-3.52L448.26-3.52L448.26-3.52Q446.27 1.28 439.94 1.28L439.94 1.28L439.94 1.28Q436.67 1.28 434.62-0.96L434.62-0.96L434.62-0.96Q432.90-2.94 432.90-4.93L432.90-4.93L432.90-4.93Q432.90-10.11 435.26-20.22L435.26-20.22L437.63-32.64L450.62-33.92L446.72-13.70L446.72-13.70Q445.63-8.96 445.63-7.30L445.63-7.30L445.63-7.30Q445.63-3.65 448.26-3.52ZM438.78-41.54L438.78-41.54L438.78-41.54Q438.78-44.03 440.86-45.38L440.86-45.38L440.86-45.38Q442.94-46.72 445.95-46.72L445.95-46.72L445.95-46.72Q448.96-46.72 450.78-45.38L450.78-45.38L450.78-45.38Q452.61-44.03 452.61-41.54L452.61-41.54L452.61-41.54Q452.61-39.04 450.59-37.76L450.59-37.76L450.59-37.76Q448.58-36.48 445.57-36.48L445.57-36.48L445.57-36.48Q442.56-36.48 440.67-37.76L440.67-37.76L440.67-37.76Q438.78-39.04 438.78-41.54ZM483.52-4.38L483.52-4.38L483.52-4.38Q480.83-1.66 477.15-0.19L477.15-0.19L477.15-0.19Q473.47 1.28 469.82 1.28L469.82 1.28L469.82 1.28Q466.18 1.28 464.90 0.64L464.90 0.64L462.91 11.52L449.92 12.80L458.75-32.64L469.18-33.73L468.35-29.31L468.35-29.31Q471.04-33.86 476.61-33.86L476.61-33.86L476.61-33.86Q482.88-33.86 486.21-29.82L486.21-29.82L486.21-29.82Q489.15-26.18 489.15-20.61L489.15-20.61L489.15-20.61Q489.15-15.04 487.68-11.07L487.68-11.07L487.68-11.07Q486.21-7.10 483.52-4.38ZM469.06-22.34L465.66-3.58L465.66-3.58Q467.01-2.43 468.67-2.43L468.67-2.43L468.67-2.43Q470.34-2.43 471.30-3.07L471.30-3.07L471.30-3.07Q472.26-3.71 472.96-4.99L472.96-4.99L472.96-4.99Q474.88-8.45 476.42-18.94L476.42-18.94L476.42-18.94Q476.86-22.02 476.86-25.02L476.86-25.02L476.86-25.02Q476.86-28.03 476.19-28.99L476.19-28.99L476.19-28.99Q475.52-29.95 474.24-29.95L474.24-29.95L474.24-29.95Q470.34-29.95 469.06-22.34L469.06-22.34ZM518.91-10.82L518.91-10.82L518.91-10.82Q520.51-9.73 520.51-7.33L520.51-7.33L520.51-7.33Q520.51-4.93 519.30-3.39L519.30-3.39L519.30-3.39Q518.08-1.86 516.10-0.83L516.10-0.83L516.10-0.83Q512 1.28 507.58 1.28L507.58 1.28L507.58 1.28Q503.17 1.28 500.58 0.32L500.58 0.32L500.58 0.32Q497.98-0.64 496.26-2.43L496.26-2.43L496.26-2.43Q492.86-5.82 492.86-12.03L492.86-12.03L492.86-12.03Q492.86-21.70 498.11-27.58L498.11-27.58L498.11-27.58Q503.74-33.92 513.54-33.92L513.54-33.92L513.54-33.92Q519.62-33.92 522.62-31.36L522.62-31.36L522.62-31.36Q524.86-29.44 524.86-26.30L524.86-26.30L524.86-26.30Q524.86-15.04 505.41-15.04L505.41-15.04L505.41-15.04Q505.15-13.38 505.15-11.97L505.15-11.97L505.15-11.97Q505.15-9.02 506.46-7.90L506.46-7.90L506.46-7.90Q507.78-6.78 510.21-6.78L510.21-6.78L510.21-6.78Q512.64-6.78 515.23-7.90L515.23-7.90L515.23-7.90Q517.82-9.02 518.91-10.82ZM505.86-17.79L505.86-17.79L505.86-17.79Q510.40-17.79 513.02-20.61L513.02-20.61L513.02-20.61Q515.65-23.30 515.65-27.58L515.65-27.58L515.65-27.58Q515.65-29.06 515.10-29.86L515.10-29.86L515.10-29.86Q514.56-30.66 513.47-30.66L513.47-30.66L513.47-30.66Q512.38-30.66 511.46-30.24L511.46-30.24L511.46-30.24Q510.53-29.82 509.57-28.42L509.57-28.42L509.57-28.42Q507.20-25.22 505.86-17.79ZM546.18-22.46L546.18-22.46L546.18-22.46Q547.07-24.83 547.07-26.88L547.07-26.88L547.07-26.88Q547.07-30.66 544-30.66L544-30.66L544-30.66Q542.40-30.66 541.09-29.22L541.09-29.22L541.09-29.22Q539.78-27.78 539.78-25.98L539.78-25.98L539.78-25.98Q539.78-24.70 540.80-23.68L540.80-23.68L540.80-23.68Q542.27-22.27 546.05-19.97L546.05-19.97L546.05-19.97Q549.82-17.66 551.26-15.78L551.26-15.78L551.26-15.78Q552.70-13.89 552.70-11.30L552.70-11.30L552.70-11.30Q552.70-8.70 551.46-6.34L551.46-6.34L551.46-6.34Q550.21-3.97 547.97-2.30L547.97-2.30L547.97-2.30Q543.17 1.28 535.49 1.28L535.49 1.28L535.49 1.28Q531.33 1.28 528.13-0.90L528.13-0.90L528.13-0.90Q524.93-3.01 524.93-5.50L524.93-5.50L524.93-5.50Q524.93-8 526.75-9.47L526.75-9.47L526.75-9.47Q528.58-10.94 531.26-10.94L531.26-10.94L531.26-10.94Q533.95-10.94 535.62-9.92L535.62-9.92L535.62-9.92Q534.78-7.81 534.78-6.40L534.78-6.40L534.78-6.40Q534.78-2.18 538.37-2.18L538.37-2.18L538.37-2.18Q539.90-2.18 540.93-3.14L540.93-3.14L540.93-3.14Q541.95-4.10 541.95-5.76L541.95-5.76L541.95-5.76Q541.95-9.02 536.45-12.48L536.45-12.48L536.45-12.48Q531.97-15.42 530.94-16.58L530.94-16.58L530.94-16.58Q529.22-18.62 529.22-21.18L529.22-21.18L529.22-21.18Q529.22-23.74 530.43-26.18L530.43-26.18L530.43-26.18Q531.65-28.61 533.89-30.34L533.89-30.34L533.89-30.34Q538.56-33.92 546.69-33.92L546.69-33.92L546.69-33.92Q550.85-33.92 553.31-32.26L553.31-32.26L553.31-32.26Q555.78-30.59 555.78-27.78L555.78-27.78L555.78-27.78Q555.78-24.96 554.08-23.36L554.08-23.36L554.08-23.36Q552.38-21.76 549.31-21.76L549.31-21.76L549.31-21.76Q547.20-21.76 546.18-22.46Z" fill="url(#editing-shiny-gradient)"></path></g></g><g filter="url(#editing-shiny2)"><g transform="translate(-28.114985674619675, 104.76000785827637)"><path d="M0.45-0.32L0.45-0.32L8.51-42.24L8.51-42.24Q16.06-42.88 20.93-42.88L20.93-42.88L20.93-42.88Q25.79-42.88 28.93-42.46L28.93-42.46L28.93-42.46Q32.06-42.05 34.18-40.96L34.18-40.96L34.18-40.96Q38.40-38.91 38.40-33.28L38.40-33.28L38.40-33.28Q38.40-30.02 35.58-27.26L35.58-27.26L35.58-27.26Q32.96-24.77 30.08-24.19L30.08-24.19L30.08-24.19Q33.15-23.68 35.33-21.38L35.33-21.38L35.33-21.38Q37.63-18.94 37.63-15.17L37.63-15.17L37.63-15.17Q37.63-7.87 32.19-3.62L32.19-3.62L32.19-3.62Q26.75 0.64 16.06 0.64L16.06 0.64L16.06 0.64Q8.70 0.64 0.45-0.32ZM17.86-20.61L14.66-4.03L14.66-4.03Q15.23-3.97 15.36-3.97L15.36-3.97L15.94-3.97L15.94-3.97Q21.18-3.97 23.42-7.42L23.42-7.42L23.42-7.42Q25.09-10.11 25.09-15.04L25.09-15.04L25.09-15.04Q25.09-17.66 23.39-19.07L23.39-19.07L23.39-19.07Q21.70-20.48 17.86-20.61L17.86-20.61ZM27.58-33.22L27.58-33.22L27.58-33.22Q27.58-38.53 22.46-38.53L22.46-38.53L21.89-38.53L21.89-38.53Q21.63-38.53 21.25-38.46L21.25-38.46L18.69-24.96L19.33-24.96L19.33-24.96Q27.58-25.15 27.58-33.22ZM62.40-2.69L62.40-2.69L62.40-2.69Q59.33 1.28 51.71 1.28L51.71 1.28L51.71 1.28Q47.74 1.28 44.86-1.12L44.86-1.12L44.86-1.12Q41.98-3.52 41.98-6.98L41.98-6.98L41.98-6.98Q41.98-8.90 42.18-9.86L42.18-9.86L46.46-32.64L59.46-33.92L54.78-9.22L54.78-9.22Q54.53-7.81 54.53-6.98L54.53-6.98L54.53-6.98Q54.53-3.26 56.77-3.26L56.77-3.26L56.77-3.26Q59.26-3.26 61.06-6.66L61.06-6.66L61.06-6.66Q61.63-7.74 61.89-9.15L61.89-9.15L66.43-32.64L79.04-33.92L74.30-8.96L74.30-8.96Q74.11-8 74.11-6.98L74.11-6.98L74.11-6.98Q74.11-5.95 74.69-4.83L74.69-4.83L74.69-4.83Q75.26-3.71 77.12-3.46L77.12-3.46L77.12-3.46Q76.74-1.92 75.39-0.90L75.39-0.90L75.39-0.90Q72.58 1.28 69.54 1.28L69.54 1.28L69.54 1.28Q66.50 1.28 64.70 0.19L64.70 0.19L64.70 0.19Q62.91-0.90 62.40-2.69ZM83.52-6.40L83.52-6.40L83.52-6.40Q83.52-8.13 84.42-12.48L84.42-12.48L87.81-29.76L84.03-29.76L84.29-31.68L84.29-31.68Q91.97-33.98 99.39-39.62L99.39-39.62L102.46-39.62L100.93-32.64L105.92-32.64L105.34-29.76L100.42-29.76L97.15-12.48L97.15-12.48Q96.32-8.51 96.32-7.17L96.32-7.17L96.32-7.17Q96.32-4.10 99.01-3.46L99.01-3.46L99.01-3.46Q98.37-1.28 96.06 0L96.06 0L96.06 0Q93.76 1.28 90.50 1.28L90.50 1.28L90.50 1.28Q87.23 1.28 85.38-0.77L85.38-0.77L85.38-0.77Q83.52-2.82 83.52-6.40ZM106.62-6.40L106.62-6.40L106.62-6.40Q106.62-8.13 107.52-12.48L107.52-12.48L110.91-29.76L107.14-29.76L107.39-31.68L107.39-31.68Q115.07-33.98 122.50-39.62L122.50-39.62L125.57-39.62L124.03-32.64L129.02-32.64L128.45-29.76L123.52-29.76L120.26-12.48L120.26-12.48Q119.42-8.51 119.42-7.17L119.42-7.17L119.42-7.17Q119.42-4.10 122.11-3.46L122.11-3.46L122.11-3.46Q121.47-1.28 119.17 0L119.17 0L119.17 0Q116.86 1.28 113.60 1.28L113.60 1.28L113.60 1.28Q110.34 1.28 108.48-0.77L108.48-0.77L108.48-0.77Q106.62-2.82 106.62-6.40ZM154.37-10.82L154.37-10.82L154.37-10.82Q155.97-9.73 155.97-7.33L155.97-7.33L155.97-7.33Q155.97-4.93 154.75-3.39L154.75-3.39L154.75-3.39Q153.54-1.86 151.55-0.83L151.55-0.83L151.55-0.83Q147.46 1.28 143.04 1.28L143.04 1.28L143.04 1.28Q138.62 1.28 136.03 0.32L136.03 0.32L136.03 0.32Q133.44-0.64 131.71-2.43L131.71-2.43L131.71-2.43Q128.32-5.82 128.32-12.03L128.32-12.03L128.32-12.03Q128.32-21.70 133.57-27.58L133.57-27.58L133.57-27.58Q139.20-33.92 148.99-33.92L148.99-33.92L148.99-33.92Q155.07-33.92 158.08-31.36L158.08-31.36L158.08-31.36Q160.32-29.44 160.32-26.30L160.32-26.30L160.32-26.30Q160.32-15.04 140.86-15.04L140.86-15.04L140.86-15.04Q140.61-13.38 140.61-11.97L140.61-11.97L140.61-11.97Q140.61-9.02 141.92-7.90L141.92-7.90L141.92-7.90Q143.23-6.78 145.66-6.78L145.66-6.78L145.66-6.78Q148.10-6.78 150.69-7.90L150.69-7.90L150.69-7.90Q153.28-9.02 154.37-10.82ZM141.31-17.79L141.31-17.79L141.31-17.79Q145.86-17.79 148.48-20.61L148.48-20.61L148.48-20.61Q151.10-23.30 151.10-27.58L151.10-27.58L151.10-27.58Q151.10-29.06 150.56-29.86L150.56-29.86L150.56-29.86Q150.02-30.66 148.93-30.66L148.93-30.66L148.93-30.66Q147.84-30.66 146.91-30.24L146.91-30.24L146.91-30.24Q145.98-29.82 145.02-28.42L145.02-28.42L145.02-28.42Q142.66-25.22 141.31-17.79ZM182.53-17.98L182.53-17.98L182.53-17.98Q184.83-22.08 184.83-26.24L184.83-26.24L184.83-26.24Q184.83-28.99 182.85-28.99L182.85-28.99L182.85-28.99Q181.31-28.99 179.71-26.37L179.71-26.37L179.71-26.37Q178.05-23.74 177.54-20.35L177.54-20.35L174.21 0L160.96 1.28L167.49-32.64L178.05-33.92L176.90-27.46L176.90-27.46Q180.03-33.92 187.07-33.92L187.07-33.92L187.07-33.92Q190.78-33.92 192.80-32L192.80-32L192.80-32Q194.82-30.08 194.82-26.14L194.82-26.14L194.82-26.14Q194.82-22.21 192.22-19.71L192.22-19.71L192.22-19.71Q189.63-17.22 185.22-17.22L185.22-17.22L185.22-17.22Q183.30-17.22 182.53-17.98ZM227.26-26.62L227.26-26.62L227.26-26.62Q227.26-23.94 225.02-22.27L225.02-22.27L225.02-22.27Q222.78-20.61 219.14-20.61L219.14-20.61L219.14-20.61Q217.60-20.61 216.70-21.06L216.70-21.06L216.70-21.06Q217.41-22.72 217.63-24.80L217.63-24.80L217.63-24.80Q217.86-26.88 217.86-27.46L217.86-27.46L217.86-27.46Q217.86-30.14 216-30.14L216-30.14L216-30.14Q214.72-30.14 213.28-28.54L213.28-28.54L213.28-28.54Q211.84-26.94 210.62-24.45L210.62-24.45L210.62-24.45Q207.94-18.69 207.94-12.86L207.94-12.86L207.94-12.86Q207.94-9.66 209.15-8.22L209.15-8.22L209.15-8.22Q210.37-6.78 213.06-6.78L213.06-6.78L213.06-6.78Q216.77-6.78 219.71-9.86L219.71-9.86L219.71-9.86Q220.54-10.82 220.99-11.90L220.99-11.90L220.99-11.90Q223.42-10.62 223.42-7.10L223.42-7.10L223.42-7.10Q223.42-3.52 219.46-1.15L219.46-1.15L219.46-1.15Q215.36 1.28 208.83 1.28L208.83 1.28L208.83 1.28Q195.84 1.28 195.84-12.48L195.84-12.48L195.84-12.48Q195.84-22.53 201.54-28.29L201.54-28.29L201.54-28.29Q207.04-33.92 217.15-33.92L217.15-33.92L217.15-33.92Q227.26-33.92 227.26-26.62ZM249.54-2.69L249.54-2.69L249.54-2.69Q246.46 1.28 238.85 1.28L238.85 1.28L238.85 1.28Q234.88 1.28 232-1.12L232-1.12L232-1.12Q229.12-3.52 229.12-6.98L229.12-6.98L229.12-6.98Q229.12-8.90 229.31-9.86L229.31-9.86L233.60-32.64L246.59-33.92L241.92-9.22L241.92-9.22Q241.66-7.81 241.66-6.98L241.66-6.98L241.66-6.98Q241.66-3.26 243.90-3.26L243.90-3.26L243.90-3.26Q246.40-3.26 248.19-6.66L248.19-6.66L248.19-6.66Q248.77-7.74 249.02-9.15L249.02-9.15L253.57-32.64L266.18-33.92L261.44-8.96L261.44-8.96Q261.25-8 261.25-6.98L261.25-6.98L261.25-6.98Q261.25-5.95 261.82-4.83L261.82-4.83L261.82-4.83Q262.40-3.71 264.26-3.46L264.26-3.46L264.26-3.46Q263.87-1.92 262.53-0.90L262.53-0.90L262.53-0.90Q259.71 1.28 256.67 1.28L256.67 1.28L256.67 1.28Q253.63 1.28 251.84 0.19L251.84 0.19L251.84 0.19Q250.05-0.90 249.54-2.69ZM299.46-4.38L299.46-4.38L299.46-4.38Q296.77-1.66 293.09-0.19L293.09-0.19L293.09-0.19Q289.41 1.28 285.76 1.28L285.76 1.28L285.76 1.28Q282.11 1.28 280.83 0.64L280.83 0.64L278.85 11.52L265.86 12.80L274.69-32.64L285.12-33.73L284.29-29.31L284.29-29.31Q286.98-33.86 292.54-33.86L292.54-33.86L292.54-33.86Q298.82-33.86 302.14-29.82L302.14-29.82L302.14-29.82Q305.09-26.18 305.09-20.61L305.09-20.61L305.09-20.61Q305.09-15.04 303.62-11.07L303.62-11.07L303.62-11.07Q302.14-7.10 299.46-4.38ZM284.99-22.34L281.60-3.58L281.60-3.58Q282.94-2.43 284.61-2.43L284.61-2.43L284.61-2.43Q286.27-2.43 287.23-3.07L287.23-3.07L287.23-3.07Q288.19-3.71 288.90-4.99L288.90-4.99L288.90-4.99Q290.82-8.45 292.35-18.94L292.35-18.94L292.35-18.94Q292.80-22.02 292.80-25.02L292.80-25.02L292.80-25.02Q292.80-28.03 292.13-28.99L292.13-28.99L292.13-28.99Q291.46-29.95 290.18-29.95L290.18-29.95L290.18-29.95Q286.27-29.95 284.99-22.34L284.99-22.34ZM335.23 0L321.54 0L329.34-42.05L329.34-42.05Q335.68-42.75 344.93-42.75L344.93-42.75L344.93-42.75Q354.18-42.75 358.46-40.06L358.46-40.06L358.46-40.06Q362.75-37.38 362.75-31.97L362.75-31.97L362.75-31.97Q362.75-26.56 359.97-23.17L359.97-23.17L359.97-23.17Q357.18-19.78 352.38-18.69L352.38-18.69L352.38-18.69Q353.47-13.38 355.97-9.09L355.97-9.09L355.97-9.09Q358.27-5.06 360.96-3.78L360.96-3.78L360.96-3.78Q360-1.09 358.05 0.10L358.05 0.10L358.05 0.10Q356.10 1.28 353.31 1.28L353.31 1.28L353.31 1.28Q350.53 1.28 348.35-0.35L348.35-0.35L348.35-0.35Q346.18-1.98 344.45-4.99L344.45-4.99L344.45-4.99Q340.80-11.52 340.42-21.82L340.42-21.82L340.86-21.82L340.86-21.82Q345.60-21.95 347.97-24.42L347.97-24.42L347.97-24.42Q350.34-26.88 350.34-32.06L350.34-32.06L350.34-32.06Q350.34-38.53 344.90-38.78L344.90-38.78L343.49-38.78L343.49-38.78Q342.91-38.78 342.59-38.72L342.59-38.72L335.23 0ZM391.62-10.82L391.62-10.82L391.62-10.82Q393.22-9.73 393.22-7.33L393.22-7.33L393.22-7.33Q393.22-4.93 392-3.39L392-3.39L392-3.39Q390.78-1.86 388.80-0.83L388.80-0.83L388.80-0.83Q384.70 1.28 380.29 1.28L380.29 1.28L380.29 1.28Q375.87 1.28 373.28 0.32L373.28 0.32L373.28 0.32Q370.69-0.64 368.96-2.43L368.96-2.43L368.96-2.43Q365.57-5.82 365.57-12.03L365.57-12.03L365.57-12.03Q365.57-21.70 370.82-27.58L370.82-27.58L370.82-27.58Q376.45-33.92 386.24-33.92L386.24-33.92L386.24-33.92Q392.32-33.92 395.33-31.36L395.33-31.36L395.33-31.36Q397.57-29.44 397.57-26.30L397.57-26.30L397.57-26.30Q397.57-15.04 378.11-15.04L378.11-15.04L378.11-15.04Q377.86-13.38 377.86-11.97L377.86-11.97L377.86-11.97Q377.86-9.02 379.17-7.90L379.17-7.90L379.17-7.90Q380.48-6.78 382.91-6.78L382.91-6.78L382.91-6.78Q385.34-6.78 387.94-7.90L387.94-7.90L387.94-7.90Q390.53-9.02 391.62-10.82ZM378.56-17.79L378.56-17.79L378.56-17.79Q383.10-17.79 385.73-20.61L385.73-20.61L385.73-20.61Q388.35-23.30 388.35-27.58L388.35-27.58L388.35-27.58Q388.35-29.06 387.81-29.86L387.81-29.86L387.81-29.86Q387.26-30.66 386.18-30.66L386.18-30.66L386.18-30.66Q385.09-30.66 384.16-30.24L384.16-30.24L384.16-30.24Q383.23-29.82 382.27-28.42L382.27-28.42L382.27-28.42Q379.90-25.22 378.56-17.79ZM431.17-26.62L431.17-26.62L431.17-26.62Q431.17-23.94 428.93-22.27L428.93-22.27L428.93-22.27Q426.69-20.61 423.04-20.61L423.04-20.61L423.04-20.61Q421.50-20.61 420.61-21.06L420.61-21.06L420.61-21.06Q421.31-22.72 421.54-24.80L421.54-24.80L421.54-24.80Q421.76-26.88 421.76-27.46L421.76-27.46L421.76-27.46Q421.76-30.14 419.90-30.14L419.90-30.14L419.90-30.14Q418.62-30.14 417.18-28.54L417.18-28.54L417.18-28.54Q415.74-26.94 414.53-24.45L414.53-24.45L414.53-24.45Q411.84-18.69 411.84-12.86L411.84-12.86L411.84-12.86Q411.84-9.66 413.06-8.22L413.06-8.22L413.06-8.22Q414.27-6.78 416.96-6.78L416.96-6.78L416.96-6.78Q420.67-6.78 423.62-9.86L423.62-9.86L423.62-9.86Q424.45-10.82 424.90-11.90L424.90-11.90L424.90-11.90Q427.33-10.62 427.33-7.10L427.33-7.10L427.33-7.10Q427.33-3.52 423.36-1.15L423.36-1.15L423.36-1.15Q419.26 1.28 412.74 1.28L412.74 1.28L412.74 1.28Q399.74 1.28 399.74-12.48L399.74-12.48L399.74-12.48Q399.74-22.53 405.44-28.29L405.44-28.29L405.44-28.29Q410.94-33.92 421.06-33.92L421.06-33.92L421.06-33.92Q431.17-33.92 431.17-26.62ZM448.26-3.52L448.26-3.52L448.26-3.52Q446.27 1.28 439.94 1.28L439.94 1.28L439.94 1.28Q436.67 1.28 434.62-0.96L434.62-0.96L434.62-0.96Q432.90-2.94 432.90-4.93L432.90-4.93L432.90-4.93Q432.90-10.11 435.26-20.22L435.26-20.22L437.63-32.64L450.62-33.92L446.72-13.70L446.72-13.70Q445.63-8.96 445.63-7.30L445.63-7.30L445.63-7.30Q445.63-3.65 448.26-3.52ZM438.78-41.54L438.78-41.54L438.78-41.54Q438.78-44.03 440.86-45.38L440.86-45.38L440.86-45.38Q442.94-46.72 445.95-46.72L445.95-46.72L445.95-46.72Q448.96-46.72 450.78-45.38L450.78-45.38L450.78-45.38Q452.61-44.03 452.61-41.54L452.61-41.54L452.61-41.54Q452.61-39.04 450.59-37.76L450.59-37.76L450.59-37.76Q448.58-36.48 445.57-36.48L445.57-36.48L445.57-36.48Q442.56-36.48 440.67-37.76L440.67-37.76L440.67-37.76Q438.78-39.04 438.78-41.54ZM483.52-4.38L483.52-4.38L483.52-4.38Q480.83-1.66 477.15-0.19L477.15-0.19L477.15-0.19Q473.47 1.28 469.82 1.28L469.82 1.28L469.82 1.28Q466.18 1.28 464.90 0.64L464.90 0.64L462.91 11.52L449.92 12.80L458.75-32.64L469.18-33.73L468.35-29.31L468.35-29.31Q471.04-33.86 476.61-33.86L476.61-33.86L476.61-33.86Q482.88-33.86 486.21-29.82L486.21-29.82L486.21-29.82Q489.15-26.18 489.15-20.61L489.15-20.61L489.15-20.61Q489.15-15.04 487.68-11.07L487.68-11.07L487.68-11.07Q486.21-7.10 483.52-4.38ZM469.06-22.34L465.66-3.58L465.66-3.58Q467.01-2.43 468.67-2.43L468.67-2.43L468.67-2.43Q470.34-2.43 471.30-3.07L471.30-3.07L471.30-3.07Q472.26-3.71 472.96-4.99L472.96-4.99L472.96-4.99Q474.88-8.45 476.42-18.94L476.42-18.94L476.42-18.94Q476.86-22.02 476.86-25.02L476.86-25.02L476.86-25.02Q476.86-28.03 476.19-28.99L476.19-28.99L476.19-28.99Q475.52-29.95 474.24-29.95L474.24-29.95L474.24-29.95Q470.34-29.95 469.06-22.34L469.06-22.34ZM518.91-10.82L518.91-10.82L518.91-10.82Q520.51-9.73 520.51-7.33L520.51-7.33L520.51-7.33Q520.51-4.93 519.30-3.39L519.30-3.39L519.30-3.39Q518.08-1.86 516.10-0.83L516.10-0.83L516.10-0.83Q512 1.28 507.58 1.28L507.58 1.28L507.58 1.28Q503.17 1.28 500.58 0.32L500.58 0.32L500.58 0.32Q497.98-0.64 496.26-2.43L496.26-2.43L496.26-2.43Q492.86-5.82 492.86-12.03L492.86-12.03L492.86-12.03Q492.86-21.70 498.11-27.58L498.11-27.58L498.11-27.58Q503.74-33.92 513.54-33.92L513.54-33.92L513.54-33.92Q519.62-33.92 522.62-31.36L522.62-31.36L522.62-31.36Q524.86-29.44 524.86-26.30L524.86-26.30L524.86-26.30Q524.86-15.04 505.41-15.04L505.41-15.04L505.41-15.04Q505.15-13.38 505.15-11.97L505.15-11.97L505.15-11.97Q505.15-9.02 506.46-7.90L506.46-7.90L506.46-7.90Q507.78-6.78 510.21-6.78L510.21-6.78L510.21-6.78Q512.64-6.78 515.23-7.90L515.23-7.90L515.23-7.90Q517.82-9.02 518.91-10.82ZM505.86-17.79L505.86-17.79L505.86-17.79Q510.40-17.79 513.02-20.61L513.02-20.61L513.02-20.61Q515.65-23.30 515.65-27.58L515.65-27.58L515.65-27.58Q515.65-29.06 515.10-29.86L515.10-29.86L515.10-29.86Q514.56-30.66 513.47-30.66L513.47-30.66L513.47-30.66Q512.38-30.66 511.46-30.24L511.46-30.24L511.46-30.24Q510.53-29.82 509.57-28.42L509.57-28.42L509.57-28.42Q507.20-25.22 505.86-17.79ZM546.18-22.46L546.18-22.46L546.18-22.46Q547.07-24.83 547.07-26.88L547.07-26.88L547.07-26.88Q547.07-30.66 544-30.66L544-30.66L544-30.66Q542.40-30.66 541.09-29.22L541.09-29.22L541.09-29.22Q539.78-27.78 539.78-25.98L539.78-25.98L539.78-25.98Q539.78-24.70 540.80-23.68L540.80-23.68L540.80-23.68Q542.27-22.27 546.05-19.97L546.05-19.97L546.05-19.97Q549.82-17.66 551.26-15.78L551.26-15.78L551.26-15.78Q552.70-13.89 552.70-11.30L552.70-11.30L552.70-11.30Q552.70-8.70 551.46-6.34L551.46-6.34L551.46-6.34Q550.21-3.97 547.97-2.30L547.97-2.30L547.97-2.30Q543.17 1.28 535.49 1.28L535.49 1.28L535.49 1.28Q531.33 1.28 528.13-0.90L528.13-0.90L528.13-0.90Q524.93-3.01 524.93-5.50L524.93-5.50L524.93-5.50Q524.93-8 526.75-9.47L526.75-9.47L526.75-9.47Q528.58-10.94 531.26-10.94L531.26-10.94L531.26-10.94Q533.95-10.94 535.62-9.92L535.62-9.92L535.62-9.92Q534.78-7.81 534.78-6.40L534.78-6.40L534.78-6.40Q534.78-2.18 538.37-2.18L538.37-2.18L538.37-2.18Q539.90-2.18 540.93-3.14L540.93-3.14L540.93-3.14Q541.95-4.10 541.95-5.76L541.95-5.76L541.95-5.76Q541.95-9.02 536.45-12.48L536.45-12.48L536.45-12.48Q531.97-15.42 530.94-16.58L530.94-16.58L530.94-16.58Q529.22-18.62 529.22-21.18L529.22-21.18L529.22-21.18Q529.22-23.74 530.43-26.18L530.43-26.18L530.43-26.18Q531.65-28.61 533.89-30.34L533.89-30.34L533.89-30.34Q538.56-33.92 546.69-33.92L546.69-33.92L546.69-33.92Q550.85-33.92 553.31-32.26L553.31-32.26L553.31-32.26Q555.78-30.59 555.78-27.78L555.78-27.78L555.78-27.78Q555.78-24.96 554.08-23.36L554.08-23.36L554.08-23.36Q552.38-21.76 549.31-21.76L549.31-21.76L549.31-21.76Q547.20-21.76 546.18-22.46Z" fill="url(#editing-shiny-gradient2)"></path></g></g><style>text {
  font-size: 64px;
  font-family: Arial Black;
  dominant-baseline: central;
  text-anchor: middle;
}</style></svg>