<svg width="354.2387451171875px" height="95.6px" xmlns="http://www.w3.org/2000/svg" viewBox="72.88062744140626 27.200000000000003 354.2387451171875 95.6" style="background: none;" preserveAspectRatio="xMidYMid"><defs><linearGradient id="editing-shiny-gradient" x1="0.04322727117869957" x2="0.9567727288213004" y1="0.2966316784620999" y2="0.7033683215379001" gradientUnits="objectBoundingBox"><stop offset="0.0" stop-color="#0a0a0a"></stop><stop offset="0.5" stop-color="#3c3a3a"></stop><stop offset="1.0" stop-color="#0a0a0a"></stop></linearGradient><linearGradient id="editing-shiny-gradient2" x1="0" x2="0" y1="0" y2="1"><stop offset="0.2" stop-color="#fff" stop-opacity="0.8"></stop><stop offset="0.8" stop-color="#fff" stop-opacity="0"></stop></linearGradient><filter id="editing-shiny2" x="-100%" y="-100%" width="300%" height="300%"><feMorphology operator="erode" radius="2"></feMorphology></filter><filter id="editing-shiny" x="-100%" y="-100%" width="300%" height="300%"><feFlood flood-color="#fff" result="flood"></feFlood><feConvolveMatrix in="SourceGraphic" result="conv" order="8,8" divisor="1" kernelMatrix="0 0 0 0 0 0 0 0 0 0 0 1 1 0 0 0 0 0 0 1 1 0 0 0 0 0 1 0 0 1 0 0 0 0 1 0 0 1 0 0 0 1 0 0 0 0 1 0 0 1 1 0 0 1 1 0 0 0 0 1 1 0 0 0 "></feConvolveMatrix><feOffset dx="0" dy="4" in="conv" result="offset"></feOffset><feComposite operator="in" in="flood" in2="offset" result="comp"></feComposite><feGaussianBlur in="offset" stdDeviation="3" result="shadow"></feGaussianBlur><feColorMatrix in="shadow" type="matrix" values="0.7 0 0 0 0  0 0.7 0 0 0  0 0 0.7 0 0  0 0 0 0.3 0" result="dark-shadow"></feColorMatrix><feOffset dx="0" dy="4" in="dark-shadow" result="offset-shadow"></feOffset><feOffset dx="0" dy="2" in="conv" result="offset-2"></feOffset><feComposite operator="out" in="offset" in2="offset-2" result="edge-diff"></feComposite><feGaussianBlur in="edge-diff" stdDeviation="1" result="edge-blur"></feGaussianBlur><feColorMatrix in="edge-blur" result="edge-shadow" type="matrix" values="0 0 0 0 0  0 0 0 0 0  0 0 0 0 0  0 0 0 0.5 0"></feColorMatrix><feComposite operator="in" in="edge-shadow" in2="offset" result="edge-shadow-in"></feComposite><feOffset dx="0" dy="1" in="edge-shadow-in" result="edge-shadow-final"></feOffset><feMerge result="out"><feMergeNode in="offset-shadow"></feMergeNode><feMergeNode in="comp"></feMergeNode><feMergeNode in="edge-shadow-final"></feMergeNode><feMergeNode in="SourceGraphic"></feMergeNode></feMerge></filter></defs><g filter="url(#editing-shiny)"><g transform="translate(128.7281036376953, 96.4000015258789)"><path d="M11.98-1.13L11.18-1.00L11.18-1.00Q10.01-3.90 9.54-6.54L9.54-6.54L9.54-6.54Q9.06-9.19 9.06-11.55L9.06-11.55L9.06-11.55Q9.06-11.89 9.06-12.24L9.06-12.24L9.06-12.24Q9.06-12.59 9.11-12.94L9.11-12.94L9.11-12.94Q7.75-13.10 7.04-13.50L7.04-13.50L7.04-13.50Q6.34-13.90 6.34-14.50L6.34-14.50L6.34-14.50Q6.34-15.09 7.17-15.48L7.17-15.48L7.17-15.48Q8.00-15.87 9.45-16.04L9.45-16.04L9.45-16.04Q9.78-18.05 10.32-19.67L10.32-19.67L10.32-19.67Q10.85-21.29 11.35-22.43L11.35-22.43L11.35-22.43Q11.85-23.56 12.22-24.19L12.22-24.19L12.22-24.19Q12.59-24.81 12.59-24.86L12.59-24.86L13.35-24.61L13.35-24.61Q13.27-24.36 13.05-23.72L13.05-23.72L13.05-23.72Q12.84-23.07 12.56-22.02L12.56-22.02L12.56-22.02Q12.28-20.96 12.00-19.49L12.00-19.49L12.00-19.49Q11.71-18.03 11.50-16.16L11.50-16.16L11.55-16.16L11.55-16.16Q13.10-16.16 14.62-16.01L14.62-16.01L14.62-16.01Q16.14-15.85 17.55-15.50L17.55-15.50L17.55-15.50Q18.52-16.04 19.36-16.72L19.36-16.72L19.36-16.72Q20.20-17.41 20.83-18.24L20.83-18.24L20.83-18.24Q21.45-19.07 21.81-20.05L21.81-20.05L21.81-20.05Q22.17-21.02 22.17-22.13L22.17-22.13L22.17-22.13Q22.17-23.67 21.64-24.79L21.64-24.79L21.64-24.79Q21.10-25.92 20.27-26.73L20.27-26.73L20.27-26.73Q19.44-27.54 18.40-28.05L18.40-28.05L18.40-28.05Q17.35-28.57 16.33-28.85L16.33-28.85L16.33-28.85Q15.32-29.14 14.44-29.25L14.44-29.25L14.44-29.25Q13.56-29.37 13.02-29.37L13.02-29.37L13.02-29.37Q11.03-29.37 9.39-29.01L9.39-29.01L9.39-29.01Q7.75-28.65 6.45-28.11L6.45-28.11L6.45-28.11Q5.15-27.56 4.18-26.94L4.18-26.94L4.18-26.94Q3.22-26.31 2.58-25.77L2.58-25.77L2.58-25.77Q1.95-25.22 1.63-24.87L1.63-24.87L1.63-24.87Q1.31-24.51 1.29-24.49L1.29-24.49L0.68-25.00L0.68-25.00Q0.72-25.06 1.08-25.47L1.08-25.47L1.08-25.47Q1.44-25.88 2.12-26.44L2.12-26.44L2.12-26.44Q2.81-27.01 3.81-27.67L3.81-27.67L3.81-27.67Q4.82-28.32 6.15-28.86L6.15-28.86L6.15-28.86Q7.49-29.41 9.14-29.78L9.14-29.78L9.14-29.78Q10.79-30.15 12.78-30.15L12.78-30.15L12.78-30.15Q14.11-30.15 15.51-29.97L15.51-29.97L15.51-29.97Q16.92-29.80 18.24-29.41L18.24-29.41L18.24-29.41Q19.56-29.02 20.75-28.40L20.75-28.40L20.75-28.40Q21.94-27.79 22.83-26.91L22.83-26.91L22.83-26.91Q23.71-26.02 24.22-24.86L24.22-24.86L24.22-24.86Q24.73-23.69 24.73-22.21L24.73-22.21L24.73-22.21Q24.73-21.23 24.34-20.24L24.34-20.24L24.34-20.24Q23.95-19.26 23.24-18.31L23.24-18.31L23.24-18.31Q22.52-17.37 21.51-16.53L21.51-16.53L21.51-16.53Q20.51-15.69 19.28-14.99L19.28-14.99L19.28-14.99Q20.65-14.50 21.82-13.79L21.82-13.79L21.82-13.79Q22.99-13.08 23.83-12.13L23.83-12.13L23.83-12.13Q24.67-11.18 25.14-9.97L25.14-9.97L25.14-9.97Q25.61-8.76 25.61-7.26L25.61-7.26L25.61-7.26Q25.61-5.66 25.04-4.22L25.04-4.22L25.04-4.22Q24.47-2.79 23.43-1.58L23.43-1.58L23.43-1.58Q22.39-0.37 20.96 0.60L20.96 0.60L20.96 0.60Q19.52 1.58 17.80 2.26L17.80 2.26L17.80 2.26Q16.08 2.93 14.12 3.29L14.12 3.29L14.12 3.29Q12.16 3.65 10.09 3.65L10.09 3.65L10.09 3.65Q7.49 3.65 5.59 3.05L5.59 3.05L5.59 3.05Q3.69 2.44 2.45 1.44L2.45 1.44L2.45 1.44Q1.21 0.43 0.60-0.87L0.60-0.87L0.60-0.87Q0-2.17 0-3.57L0-3.57L0-3.57Q0-4.47 0.28-5.28L0.28-5.28L0.28-5.28Q0.55-6.09 1.06-6.78L1.06-6.78L1.06-6.78Q1.56-7.46 2.28-7.99L2.28-7.99L2.28-7.99Q2.99-8.51 3.90-8.82L3.90-8.82L4.16-8.18L4.16-8.18Q3.38-7.90 2.86-7.32L2.86-7.32L2.86-7.32Q2.34-6.75 2.02-6.07L2.02-6.07L2.02-6.07Q1.70-5.39 1.57-4.70L1.57-4.70L1.57-4.70Q1.44-4.00 1.44-3.49L1.44-3.49L1.44-3.49Q1.44-2.87 1.60-2.15L1.60-2.15L1.60-2.15Q1.76-1.44 2.15-0.74L2.15-0.74L2.15-0.74Q2.54-0.04 3.19 0.62L3.19 0.62L3.19 0.62Q3.83 1.27 4.80 1.76L4.80 1.76L4.80 1.76Q5.76 2.26 7.08 2.55L7.08 2.55L7.08 2.55Q8.39 2.85 10.09 2.85L10.09 2.85L10.09 2.85Q11.40 2.85 12.90 2.57L12.90 2.57L12.90 2.57Q14.40 2.30 15.85 1.74L15.85 1.74L15.85 1.74Q17.31 1.19 18.64 0.37L18.64 0.37L18.64 0.37Q19.97-0.45 21-1.56L21-1.56L21-1.56Q22.03-2.67 22.63-4.04L22.63-4.04L22.63-4.04Q23.24-5.41 23.24-7.05L23.24-7.05L23.24-7.05Q23.24-8.53 22.83-9.68L22.83-9.68L22.83-9.68Q22.42-10.83 21.69-11.71L21.69-11.71L21.69-11.71Q20.96-12.59 20.00-13.22L20.00-13.22L20.00-13.22Q19.03-13.84 17.92-14.27L17.92-14.27L17.92-14.27Q16.41-13.62 14.73-13.24L14.73-13.24L14.73-13.24Q13.06-12.86 11.26-12.86L11.26-12.86L11.26-12.86Q11.22-12.14 11.20-11.37L11.20-11.37L11.20-11.37Q11.18-10.60 11.18-9.78L11.18-9.78L11.18-9.78Q11.18-7.81 11.38-5.66L11.38-5.66L11.38-5.66Q11.59-3.51 11.98-1.13L11.98-1.13ZM11.30-13.70L11.30-13.70L11.30-13.70Q12.39-13.74 13.65-14.02L13.65-14.02L13.65-14.02Q14.91-14.29 16.16-14.83L16.16-14.83L16.16-14.83Q14.99-15.11 13.81-15.25L13.81-15.25L13.81-15.25Q12.63-15.38 11.55-15.38L11.55-15.38L11.42-15.38L11.42-15.38Q11.38-14.97 11.36-14.55L11.36-14.55L11.36-14.55Q11.34-14.13 11.30-13.70ZM7.18-14.46L7.18-14.46L7.18-14.46Q7.18-14.31 7.63-14.11L7.63-14.11L7.63-14.11Q8.08-13.90 9.15-13.78L9.15-13.78L9.15-13.78Q9.19-14.15 9.23-14.52L9.23-14.52L9.23-14.52Q9.27-14.89 9.33-15.24L9.33-15.24L9.33-15.24Q8.16-15.07 7.67-14.83L7.67-14.83L7.67-14.83Q7.18-14.58 7.18-14.46ZM37.47-4.74L37.47-4.74L37.47-4.74Q36.83-3.59 36.24-2.83L36.24-2.83L36.24-2.83Q35.64-2.07 35.06-1.62L35.06-1.62L35.06-1.62Q34.47-1.17 33.88-0.98L33.88-0.98L33.88-0.98Q33.28-0.80 32.65-0.80L32.65-0.80L32.65-0.80Q32.14-0.80 31.48-0.96L31.48-0.96L31.48-0.96Q30.82-1.13 30.24-1.65L30.24-1.65L30.24-1.65Q29.65-2.17 29.25-3.16L29.25-3.16L29.25-3.16Q28.85-4.14 28.85-5.80L28.85-5.80L28.85-5.80Q28.85-7.46 29.24-8.93L29.24-8.93L29.24-8.93Q29.63-10.40 30.11-11.50L30.11-11.50L30.11-11.50Q30.66-12.78 31.38-13.86L31.38-13.86L32.14-13.62L32.14-13.62Q32.12-13.60 32.00-13.25L32.00-13.25L32.00-13.25Q31.89-12.90 31.72-12.30L31.72-12.30L31.72-12.30Q31.54-11.71 31.35-10.93L31.35-10.93L31.35-10.93Q31.15-10.15 30.98-9.28L30.98-9.28L30.98-9.28Q30.80-8.41 30.69-7.51L30.69-7.51L30.69-7.51Q30.58-6.60 30.58-5.76L30.58-5.76L30.58-5.76Q30.58-3.83 31.26-2.72L31.26-2.72L31.26-2.72Q31.95-1.60 33.06-1.60L33.06-1.60L33.06-1.60Q34.29-1.60 35.44-3.02L35.44-3.02L35.44-3.02Q36.59-4.45 37.63-7.01L37.63-7.01L37.63-7.01Q37.82-8.20 38.13-9.23L38.13-9.23L38.13-9.23Q38.45-10.25 38.77-11.05L38.77-11.05L38.77-11.05Q39.09-11.85 39.35-12.39L39.35-12.39L39.35-12.39Q39.62-12.92 39.74-13.10L39.74-13.10L40.46-12.94L40.46-12.94Q40.13-11.40 39.90-10.18L39.90-10.18L39.90-10.18Q39.66-8.96 39.52-7.98L39.52-7.98L39.52-7.98Q39.38-6.99 39.30-6.22L39.30-6.22L39.30-6.22Q39.23-5.46 39.23-4.84L39.23-4.84L39.23-4.84Q39.23-3.61 39.62-2.87L39.62-2.87L39.62-2.87Q40.01-2.13 40.83-2.13L40.83-2.13L40.83-2.13Q41.38-2.13 41.90-2.54L41.90-2.54L41.90-2.54Q42.41-2.95 42.96-3.90L42.96-3.90L42.96-3.90Q43.52-4.84 44.13-6.34L44.13-6.34L44.13-6.34Q44.75-7.83 45.53-10.03L45.53-10.03L46.33-9.82L46.33-9.82Q45.98-8.96 45.63-7.98L45.63-7.98L45.63-7.98Q45.28-6.99 44.88-6.01L44.88-6.01L44.88-6.01Q44.48-5.02 44.04-4.12L44.04-4.12L44.04-4.12Q43.60-3.22 43.06-2.52L43.06-2.52L43.06-2.52Q42.51-1.83 41.88-1.42L41.88-1.42L41.88-1.42Q41.24-1.00 40.46-1.00L40.46-1.00L40.46-1.00Q39.72-1.00 39.17-1.29L39.17-1.29L39.17-1.29Q38.62-1.58 38.24-2.07L38.24-2.07L38.24-2.07Q37.86-2.56 37.66-3.25L37.66-3.25L37.66-3.25Q37.47-3.94 37.47-4.74ZM40.87-16.51L41.20-17.27L41.20-17.27Q41.51-17.08 41.94-16.84L41.94-16.84L41.94-16.84Q42.37-16.59 42.94-16.37L42.94-16.37L42.94-16.37Q43.52-16.14 44.23-15.94L44.23-15.94L44.23-15.94Q44.93-15.75 45.77-15.67L45.77-15.67L45.77-15.67Q46.06-17.51 46.51-19.00L46.51-19.00L46.51-19.00Q46.96-20.49 47.51-21.54L47.51-21.54L47.51-21.54Q48.05-22.60 48.63-23.16L48.63-23.16L48.63-23.16Q49.22-23.73 49.77-23.73L49.77-23.73L49.77-23.73Q50.41-23.73 50.67-23.24L50.67-23.24L50.67-23.24Q50.94-22.74 50.94-21.92L50.94-21.92L50.94-21.92Q50.94-21.33 50.82-20.61L50.82-20.61L50.82-20.61Q50.70-19.89 50.49-19.08L50.49-19.08L50.49-19.08Q50.29-18.27 50.00-17.40L50.00-17.40L50.00-17.40Q49.71-16.53 49.40-15.67L49.40-15.67L49.40-15.67Q51.45-15.85 53.19-16.34L53.19-16.34L53.19-16.34Q54.92-16.84 56.19-17.35L56.19-17.35L56.58-16.59L56.58-16.59Q54.90-15.96 53.09-15.45L53.09-15.45L53.09-15.45Q51.29-14.95 49.05-14.83L49.05-14.83L49.05-14.83Q48.54-13.49 48.00-12.29L48.00-12.29L48.00-12.29Q47.46-11.09 47.00-10.21L47.00-10.21L47.00-10.21Q47.02-9.06 47.14-7.72L47.14-7.72L47.14-7.72Q47.25-6.38 47.59-5.21L47.59-5.21L47.59-5.21Q47.93-4.04 48.55-3.26L48.55-3.26L48.55-3.26Q49.18-2.48 50.20-2.48L50.20-2.48L50.20-2.48Q51.06-2.48 51.78-3.21L51.78-3.21L51.78-3.21Q52.50-3.94 53.10-5.06L53.10-5.06L53.10-5.06Q53.71-6.17 54.22-7.51L54.22-7.51L54.22-7.51Q54.74-8.84 55.19-10.03L55.19-10.03L55.99-9.82L55.99-9.82Q55.70-9.08 55.37-8.16L55.37-8.16L55.37-8.16Q55.04-7.24 54.63-6.29L54.63-6.29L54.63-6.29Q54.22-5.33 53.73-4.44L53.73-4.44L53.73-4.44Q53.24-3.55 52.64-2.84L52.64-2.84L52.64-2.84Q52.05-2.13 51.33-1.71L51.33-1.71L51.33-1.71Q50.61-1.29 49.77-1.29L49.77-1.29L49.77-1.29Q48.87-1.29 48.08-1.70L48.08-1.70L48.08-1.70Q47.29-2.11 46.71-3.17L46.71-3.17L46.71-3.17Q46.12-4.22 45.78-6.04L45.78-6.04L45.78-6.04Q45.45-7.85 45.45-10.66L45.45-10.66L45.45-10.66Q45.45-12.92 45.69-14.87L45.69-14.87L45.69-14.87Q43.93-15.09 42.73-15.58L42.73-15.58L42.73-15.58Q41.53-16.06 40.87-16.51L40.87-16.51ZM49.90-22.64L49.90-22.64L49.90-22.64Q49.71-22.64 49.34-22.27L49.34-22.27L49.34-22.27Q48.97-21.90 48.56-21.07L48.56-21.07L48.56-21.07Q48.15-20.24 47.77-18.90L47.77-18.90L47.77-18.90Q47.39-17.55 47.17-15.59L47.17-15.59L47.56-15.59L48.56-15.59L48.56-15.59Q48.93-16.61 49.21-17.58L49.21-17.58L49.21-17.58Q49.49-18.54 49.69-19.37L49.69-19.37L49.69-19.37Q49.90-20.20 50.00-20.87L50.00-20.87L50.00-20.87Q50.10-21.53 50.10-21.96L50.10-21.96L50.10-21.96Q50.10-22.64 49.90-22.64ZM47.00-11.89L47.00-11.85L47.00-11.85Q47.35-12.57 47.66-13.30L47.66-13.30L47.66-13.30Q47.97-14.03 48.25-14.79L48.25-14.79L47.50-14.79L47.09-14.79L47.09-14.79Q47.04-14.13 47.02-13.40L47.02-13.40L47.02-13.40Q47.00-12.67 47.00-11.89L47.00-11.89ZM50.53-16.51L50.86-17.27L50.86-17.27Q51.17-17.08 51.60-16.84L51.60-16.84L51.60-16.84Q52.03-16.59 52.60-16.37L52.60-16.37L52.60-16.37Q53.18-16.14 53.88-15.94L53.88-15.94L53.88-15.94Q54.59-15.75 55.43-15.67L55.43-15.67L55.43-15.67Q55.72-17.51 56.17-19.00L56.17-19.00L56.17-19.00Q56.62-20.49 57.17-21.54L57.17-21.54L57.17-21.54Q57.71-22.60 58.29-23.16L58.29-23.16L58.29-23.16Q58.88-23.73 59.43-23.73L59.43-23.73L59.43-23.73Q60.07-23.73 60.33-23.24L60.33-23.24L60.33-23.24Q60.60-22.74 60.60-21.92L60.60-21.92L60.60-21.92Q60.60-21.33 60.48-20.61L60.48-20.61L60.48-20.61Q60.35-19.89 60.15-19.08L60.15-19.08L60.15-19.08Q59.94-18.27 59.66-17.40L59.66-17.40L59.66-17.40Q59.37-16.53 59.06-15.67L59.06-15.67L59.06-15.67Q61.11-15.85 62.85-16.34L62.85-16.34L62.85-16.34Q64.58-16.84 65.85-17.35L65.85-17.35L66.24-16.59L66.24-16.59Q64.56-15.96 62.75-15.45L62.75-15.45L62.75-15.45Q60.95-14.95 58.71-14.83L58.71-14.83L58.71-14.83Q58.20-13.49 57.66-12.29L57.66-12.29L57.66-12.29Q57.11-11.09 56.66-10.21L56.66-10.21L56.66-10.21Q56.68-9.06 56.80-7.72L56.80-7.72L56.80-7.72Q56.91-6.38 57.25-5.21L57.25-5.21L57.25-5.21Q57.59-4.04 58.21-3.26L58.21-3.26L58.21-3.26Q58.84-2.48 59.86-2.48L59.86-2.48L59.86-2.48Q60.72-2.48 61.44-3.21L61.44-3.21L61.44-3.21Q62.16-3.94 62.76-5.06L62.76-5.06L62.76-5.06Q63.37-6.17 63.88-7.51L63.88-7.51L63.88-7.51Q64.39-8.84 64.85-10.03L64.85-10.03L65.65-9.82L65.65-9.82Q65.36-9.08 65.03-8.16L65.03-8.16L65.03-8.16Q64.70-7.24 64.29-6.29L64.29-6.29L64.29-6.29Q63.88-5.33 63.39-4.44L63.39-4.44L63.39-4.44Q62.90-3.55 62.30-2.84L62.30-2.84L62.30-2.84Q61.71-2.13 60.99-1.71L60.99-1.71L60.99-1.71Q60.27-1.29 59.43-1.29L59.43-1.29L59.43-1.29Q58.53-1.29 57.74-1.70L57.74-1.70L57.74-1.70Q56.95-2.11 56.37-3.17L56.37-3.17L56.37-3.17Q55.78-4.22 55.44-6.04L55.44-6.04L55.44-6.04Q55.10-7.85 55.10-10.66L55.10-10.66L55.10-10.66Q55.10-12.92 55.35-14.87L55.35-14.87L55.35-14.87Q53.59-15.09 52.39-15.58L52.39-15.58L52.39-15.58Q51.19-16.06 50.53-16.51L50.53-16.51ZM59.55-22.64L59.55-22.64L59.55-22.64Q59.37-22.64 59.00-22.27L59.00-22.27L59.00-22.27Q58.63-21.90 58.22-21.07L58.22-21.07L58.22-21.07Q57.81-20.24 57.43-18.90L57.43-18.90L57.43-18.90Q57.05-17.55 56.83-15.59L56.83-15.59L57.22-15.59L58.22-15.59L58.22-15.59Q58.59-16.61 58.87-17.58L58.87-17.58L58.87-17.58Q59.14-18.54 59.35-19.37L59.35-19.37L59.35-19.37Q59.55-20.20 59.66-20.87L59.66-20.87L59.66-20.87Q59.76-21.53 59.76-21.96L59.76-21.96L59.76-21.96Q59.76-22.64 59.55-22.64ZM56.66-11.89L56.66-11.85L56.66-11.85Q57.01-12.57 57.32-13.30L57.32-13.30L57.32-13.30Q57.63-14.03 57.91-14.79L57.91-14.79L57.16-14.79L56.75-14.79L56.75-14.79Q56.70-14.13 56.68-13.40L56.68-13.40L56.68-13.40Q56.66-12.67 56.66-11.89L56.66-11.89ZM69.34-0.29L69.34-0.29L69.34-0.29Q68.29-0.29 67.33-0.66L67.33-0.66L67.33-0.66Q66.36-1.03 65.64-1.77L65.64-1.77L65.64-1.77Q64.91-2.52 64.48-3.65L64.48-3.65L64.48-3.65Q64.05-4.78 64.05-6.30L64.05-6.30L64.05-6.30Q64.05-8.14 64.58-9.59L64.58-9.59L64.58-9.59Q65.11-11.03 65.94-12.03L65.94-12.03L65.94-12.03Q66.77-13.02 67.80-13.55L67.80-13.55L67.80-13.55Q68.82-14.07 69.81-14.07L69.81-14.07L69.81-14.07Q71.08-14.07 71.83-13.23L71.83-13.23L71.83-13.23Q72.58-12.39 72.58-11.05L72.58-11.05L72.58-11.05Q72.58-9.91 72.15-8.97L72.15-8.97L72.15-8.97Q71.72-8.04 71.01-7.37L71.01-7.37L71.01-7.37Q70.30-6.71 69.39-6.34L69.39-6.34L69.39-6.34Q68.48-5.97 67.49-5.97L67.49-5.97L67.49-5.97Q67.02-5.97 66.60-6.02L66.60-6.02L66.60-6.02Q66.18-6.07 65.85-6.13L65.85-6.13L65.85-6.13Q65.97-4.86 66.34-3.94L66.34-3.94L66.34-3.94Q66.71-3.01 67.27-2.42L67.27-2.42L67.27-2.42Q67.82-1.83 68.51-1.54L68.51-1.54L68.51-1.54Q69.19-1.25 69.93-1.25L69.93-1.25L69.93-1.25Q70.85-1.25 71.63-1.70L71.63-1.70L71.63-1.70Q72.41-2.15 73.07-2.88L73.07-2.88L73.07-2.88Q73.73-3.61 74.27-4.55L74.27-4.55L74.27-4.55Q74.81-5.50 75.24-6.47L75.24-6.47L75.24-6.47Q75.67-7.44 76.01-8.38L76.01-8.38L76.01-8.38Q76.35-9.31 76.62-10.03L76.62-10.03L77.42-9.82L77.42-9.82Q77.15-9.15 76.79-8.18L76.79-8.18L76.79-8.18Q76.43-7.22 75.96-6.16L75.96-6.16L75.96-6.16Q75.49-5.11 74.85-4.05L74.85-4.05L74.85-4.05Q74.22-2.99 73.42-2.16L73.42-2.16L73.42-2.16Q72.62-1.33 71.60-0.81L71.60-0.81L71.60-0.81Q70.59-0.29 69.34-0.29ZM69.85-13.27L69.85-13.27L69.85-13.27Q69.09-13.27 68.36-12.79L68.36-12.79L68.36-12.79Q67.63-12.30 67.06-11.46L67.06-11.46L67.06-11.46Q66.49-10.62 66.13-9.47L66.13-9.47L66.13-9.47Q65.77-8.33 65.77-7.01L65.77-7.01L65.77-7.01Q66.04-6.91 66.52-6.84L66.52-6.84L66.52-6.84Q67.00-6.77 67.70-6.77L67.70-6.77L67.70-6.77Q68.43-6.77 69.16-7.09L69.16-7.09L69.16-7.09Q69.89-7.40 70.48-7.97L70.48-7.97L70.48-7.97Q71.06-8.53 71.42-9.31L71.42-9.31L71.42-9.31Q71.78-10.09 71.78-11.01L71.78-11.01L71.78-11.01Q71.78-11.46 71.65-11.87L71.65-11.87L71.65-11.87Q71.53-12.28 71.29-12.59L71.29-12.59L71.29-12.59Q71.04-12.90 70.68-13.08L70.68-13.08L70.68-13.08Q70.32-13.27 69.85-13.27ZM77.79-10.91L77.79-10.91L77.79-10.91Q77.58-10.19 77.38-9.68L77.38-9.68L77.38-9.68Q77.17-9.17 76.92-8.73L76.92-8.73L76.92-8.73Q76.68-8.29 76.38-7.89L76.38-7.89L76.38-7.89Q76.08-7.49 75.71-7.01L75.71-7.01L75.55-7.18L75.55-7.18Q76.02-8.39 76.38-9.45L76.38-9.45L76.38-9.45Q76.74-10.52 77.03-11.59L77.03-11.59L77.03-11.59Q76.70-12.06 76.46-12.77L76.46-12.77L76.46-12.77Q76.23-13.47 76.23-14.46L76.23-14.46L76.23-14.46Q76.23-15.34 76.50-15.92L76.50-15.92L76.50-15.92Q76.78-16.51 77.23-16.51L77.23-16.51L77.23-16.51Q77.48-16.51 77.69-16.28L77.69-16.28L77.69-16.28Q77.91-16.06 78.05-15.69L78.05-15.69L78.05-15.69Q78.20-15.32 78.28-14.84L78.28-14.84L78.28-14.84Q78.36-14.36 78.36-13.82L78.36-13.82L78.36-13.82Q78.36-13.58 78.33-13.29L78.33-13.29L78.33-13.29Q78.30-13.00 78.26-12.70L78.26-12.70L78.26-12.70Q78.22-12.41 78.16-12.13L78.16-12.13L78.16-12.13Q78.09-11.85 78.03-11.67L78.03-11.67L78.03-11.67Q78.16-11.57 78.43-11.49L78.43-11.49L78.43-11.49Q78.71-11.42 79.16-11.42L79.16-11.42L79.16-11.42Q79.94-11.42 80.53-11.65L80.53-11.65L80.53-11.65Q81.13-11.87 81.48-12.22L81.48-12.22L81.48-12.22Q81.79-12.71 81.96-12.98L81.96-12.98L81.96-12.98Q82.13-13.25 82.24-13.38L82.24-13.38L82.24-13.38Q82.34-13.51 82.39-13.55L82.39-13.55L82.39-13.55Q82.44-13.58 82.52-13.58L82.52-13.58L82.52-13.58Q82.75-13.58 82.89-13.45L82.89-13.45L82.89-13.45Q83.04-13.33 83.04-13.10L83.04-13.10L83.04-13.10Q83.04-13.04 82.97-12.94L82.97-12.94L82.97-12.94Q82.91-12.84 82.81-12.67L82.81-12.67L82.81-12.67Q81.95-11.42 81.46-9.93L81.46-9.93L81.46-9.93Q80.96-8.43 80.96-6.60L80.96-6.60L80.96-6.60Q80.96-4.49 81.65-3.55L81.65-3.55L81.65-3.55Q82.34-2.60 83.61-2.60L83.61-2.60L83.61-2.60Q84.31-2.60 84.94-3.02L84.94-3.02L84.94-3.02Q85.58-3.45 86.19-4.34L86.19-4.34L86.19-4.34Q86.81-5.23 87.44-6.63L87.44-6.63L87.44-6.63Q88.06-8.04 88.78-10.03L88.78-10.03L89.58-9.82L89.58-9.82Q88.70-7.22 87.92-5.55L87.92-5.55L87.92-5.55Q87.14-3.88 86.38-2.90L86.38-2.90L86.38-2.90Q85.62-1.93 84.82-1.55L84.82-1.55L84.82-1.55Q84.02-1.17 83.08-1.17L83.08-1.17L83.08-1.17Q82.48-1.17 81.85-1.44L81.85-1.44L81.85-1.44Q81.21-1.70 80.69-2.28L80.69-2.28L80.69-2.28Q80.17-2.85 79.84-3.76L79.84-3.76L79.84-3.76Q79.51-4.68 79.51-5.97L79.51-5.97L79.51-5.97Q79.51-6.60 79.62-7.29L79.62-7.29L79.62-7.29Q79.73-7.98 79.92-8.62L79.92-8.62L79.92-8.62Q80.10-9.27 80.33-9.87L80.33-9.87L80.33-9.87Q80.55-10.48 80.80-10.97L80.80-10.97L80.80-10.97Q80.06-10.62 79.20-10.62L79.20-10.62L79.20-10.62Q78.36-10.62 77.79-10.91ZM93.70-10.66L93.70-10.66L93.70-10.66Q93.70-11.89 94.28-12.80L94.28-12.80L94.28-12.80Q94.87-13.70 95.79-14.54L95.79-14.54L95.79-14.54Q95.50-14.72 95.18-14.82L95.18-14.82L95.18-14.82Q94.85-14.91 94.54-14.91L94.54-14.91L94.54-14.91Q93.86-14.91 93.10-14.57L93.10-14.57L93.10-14.57Q92.33-14.23 91.68-13.43L91.68-13.43L91.68-13.43Q91.03-12.63 90.60-11.29L90.60-11.29L90.60-11.29Q90.17-9.95 90.17-7.94L90.17-7.94L90.17-7.94Q90.17-6.28 90.57-5.09L90.57-5.09L90.57-5.09Q90.97-3.90 91.67-3.13L91.67-3.13L91.67-3.13Q92.37-2.36 93.29-2.00L93.29-2.00L93.29-2.00Q94.21-1.64 95.26-1.64L95.26-1.64L95.26-1.64Q96.51-1.64 97.49-2.29L97.49-2.29L97.49-2.29Q98.48-2.93 99.30-4.07L99.30-4.07L99.30-4.07Q100.12-5.21 100.83-6.74L100.83-6.74L100.83-6.74Q101.53-8.26 102.23-10.03L102.23-10.03L103.01-9.82L103.01-9.82Q102.60-8.82 102.16-7.75L102.16-7.75L102.16-7.75Q101.72-6.69 101.20-5.65L101.20-5.65L101.20-5.65Q100.67-4.61 100.05-3.69L100.05-3.69L100.05-3.69Q99.42-2.77 98.61-2.07L98.61-2.07L98.61-2.07Q97.80-1.37 96.80-0.96L96.80-0.96L96.80-0.96Q95.79-0.55 94.54-0.55L94.54-0.55L94.54-0.55Q93.27-0.55 92.13-0.97L92.13-0.97L92.13-0.97Q90.99-1.39 90.13-2.25L90.13-2.25L90.13-2.25Q89.27-3.10 88.76-4.39L88.76-4.39L88.76-4.39Q88.25-5.68 88.25-7.42L88.25-7.42L88.25-7.42Q88.25-9.19 88.83-10.71L88.83-10.71L88.83-10.71Q89.41-12.22 90.32-13.33L90.32-13.33L90.32-13.33Q91.22-14.44 92.31-15.07L92.31-15.07L92.31-15.07Q93.39-15.71 94.38-15.71L94.38-15.71L94.38-15.71Q95.53-15.71 96.43-15.11L96.43-15.11L96.43-15.11Q96.59-15.24 96.75-15.37L96.75-15.37L96.75-15.37Q96.90-15.50 97.06-15.67L97.06-15.67L97.51-15.03L97.51-15.03Q97.39-14.91 97.27-14.81L97.27-14.81L97.27-14.81Q97.15-14.70 97.02-14.58L97.02-14.58L97.02-14.58Q97.39-14.13 97.63-13.51L97.63-13.51L97.63-13.51Q97.86-12.90 97.86-12.14L97.86-12.14L97.86-12.14Q97.86-11.30 97.67-10.65L97.67-10.65L97.67-10.65Q97.47-10.01 97.14-9.56L97.14-9.56L97.14-9.56Q96.80-9.11 96.37-8.88L96.37-8.88L96.37-8.88Q95.94-8.65 95.46-8.65L95.46-8.65L95.46-8.65Q95.22-8.65 94.91-8.77L94.91-8.77L94.91-8.77Q94.60-8.88 94.34-9.12L94.34-9.12L94.34-9.12Q94.07-9.35 93.88-9.73L93.88-9.73L93.88-9.73Q93.70-10.11 93.70-10.66ZM97.02-12.14L97.02-12.14L97.02-12.14Q97.02-12.74 96.85-13.21L96.85-13.21L96.85-13.21Q96.67-13.68 96.39-14.03L96.39-14.03L96.39-14.03Q95.63-13.37 95.08-12.56L95.08-12.56L95.08-12.56Q94.54-11.75 94.54-10.66L94.54-10.66L94.54-10.66Q94.54-10.09 94.83-9.77L94.83-9.77L94.83-9.77Q95.12-9.45 95.50-9.45L95.50-9.45L95.50-9.45Q95.96-9.45 96.25-9.74L96.25-9.74L96.25-9.74Q96.55-10.03 96.71-10.45L96.71-10.45L96.71-10.45Q96.88-10.87 96.95-11.33L96.95-11.33L96.95-11.33Q97.02-11.79 97.02-12.14ZM110.07-4.74L110.07-4.74L110.07-4.74Q109.43-3.59 108.83-2.83L108.83-2.83L108.83-2.83Q108.24-2.07 107.66-1.62L107.66-1.62L107.66-1.62Q107.07-1.17 106.48-0.98L106.48-0.98L106.48-0.98Q105.88-0.80 105.25-0.80L105.25-0.80L105.25-0.80Q104.73-0.80 104.08-0.96L104.08-0.96L104.08-0.96Q103.42-1.13 102.84-1.65L102.84-1.65L102.84-1.65Q102.25-2.17 101.85-3.16L101.85-3.16L101.85-3.16Q101.45-4.14 101.45-5.80L101.45-5.80L101.45-5.80Q101.45-7.46 101.84-8.93L101.84-8.93L101.84-8.93Q102.23-10.40 102.70-11.50L102.70-11.50L102.70-11.50Q103.26-12.78 103.97-13.86L103.97-13.86L104.73-13.62L104.73-13.62Q104.71-13.60 104.60-13.25L104.60-13.25L104.60-13.25Q104.49-12.90 104.31-12.30L104.31-12.30L104.31-12.30Q104.14-11.71 103.94-10.93L103.94-10.93L103.94-10.93Q103.75-10.15 103.57-9.28L103.57-9.28L103.57-9.28Q103.40-8.41 103.29-7.51L103.29-7.51L103.29-7.51Q103.17-6.60 103.17-5.76L103.17-5.76L103.17-5.76Q103.17-3.83 103.86-2.72L103.86-2.72L103.86-2.72Q104.55-1.60 105.66-1.60L105.66-1.60L105.66-1.60Q106.89-1.60 108.04-3.02L108.04-3.02L108.04-3.02Q109.18-4.45 110.23-7.01L110.23-7.01L110.23-7.01Q110.41-8.20 110.73-9.23L110.73-9.23L110.73-9.23Q111.05-10.25 111.37-11.05L111.37-11.05L111.37-11.05Q111.69-11.85 111.95-12.39L111.95-12.39L111.95-12.39Q112.22-12.92 112.34-13.10L112.34-13.10L113.06-12.94L113.06-12.94Q112.73-11.40 112.50-10.18L112.50-10.18L112.50-10.18Q112.26-8.96 112.12-7.98L112.12-7.98L112.12-7.98Q111.97-6.99 111.90-6.22L111.90-6.22L111.90-6.22Q111.83-5.46 111.83-4.84L111.83-4.84L111.83-4.84Q111.83-3.61 112.22-2.87L112.22-2.87L112.22-2.87Q112.61-2.13 113.43-2.13L113.43-2.13L113.43-2.13Q113.98-2.13 114.50-2.54L114.50-2.54L114.50-2.54Q115.01-2.95 115.56-3.90L115.56-3.90L115.56-3.90Q116.12-4.84 116.73-6.34L116.73-6.34L116.73-6.34Q117.35-7.83 118.13-10.03L118.13-10.03L118.92-9.82L118.92-9.82Q118.58-8.96 118.23-7.98L118.23-7.98L118.23-7.98Q117.88-6.99 117.48-6.01L117.48-6.01L117.48-6.01Q117.08-5.02 116.64-4.12L116.64-4.12L116.64-4.12Q116.20-3.22 115.65-2.52L115.65-2.52L115.65-2.52Q115.11-1.83 114.47-1.42L114.47-1.42L114.47-1.42Q113.84-1.00 113.06-1.00L113.06-1.00L113.06-1.00Q112.32-1.00 111.77-1.29L111.77-1.29L111.77-1.29Q111.21-1.58 110.83-2.07L110.83-2.07L110.83-2.07Q110.46-2.56 110.26-3.25L110.26-3.25L110.26-3.25Q110.07-3.94 110.07-4.74ZM128.26-2.77L128.26-2.77L128.26-2.77Q128.93-2.77 129.54-3.15L129.54-3.15L129.54-3.15Q130.14-3.53 130.69-4.15L130.69-4.15L130.69-4.15Q131.23-4.78 131.71-5.57L131.71-5.57L131.71-5.57Q132.19-6.36 132.59-7.17L132.59-7.17L132.59-7.17Q132.99-7.98 133.31-8.73L133.31-8.73L133.31-8.73Q133.63-9.47 133.88-10.03L133.88-10.03L134.67-9.82L134.67-9.82Q134.41-9.15 134.07-8.31L134.07-8.31L134.07-8.31Q133.73-7.46 133.29-6.58L133.29-6.58L133.29-6.58Q132.85-5.70 132.33-4.87L132.33-4.87L132.33-4.87Q131.80-4.04 131.17-3.38L131.17-3.38L131.17-3.38Q130.53-2.73 129.79-2.33L129.79-2.33L129.79-2.33Q129.06-1.93 128.21-1.93L128.21-1.93L128.21-1.93Q127.39-1.93 126.57-2.28L126.57-2.28L126.57-2.28Q125.88-1.74 125.04-1.44L125.04-1.44L125.04-1.44Q124.20-1.13 123.17-1.13L123.17-1.13L123.17-1.13Q122.53-1.13 122.14-1.29L122.14-1.29L122.14-1.29Q121.75-1.46 121.54-1.69L121.54-1.69L121.54-1.69Q121.32-1.93 121.24-2.17L121.24-2.17L121.24-2.17Q121.16-2.42 121.16-2.60L121.16-2.60L121.16-2.60Q121.16-3.01 121.34-3.33L121.34-3.33L121.34-3.33Q121.53-3.65 121.84-3.88L121.84-3.88L121.84-3.88Q122.14-4.10 122.54-4.21L122.54-4.21L122.54-4.21Q122.94-4.33 123.38-4.33L123.38-4.33L123.38-4.33Q124.07-4.33 124.71-4.07L124.71-4.07L124.71-4.07Q125.34-3.81 125.94-3.53L125.94-3.53L125.94-3.53Q126.41-4.12 126.78-4.86L126.78-4.86L126.78-4.86Q127.15-5.60 127.39-6.39L127.39-6.39L127.39-6.39Q127.64-7.18 127.77-7.96L127.77-7.96L127.77-7.96Q127.91-8.74 127.91-9.41L127.91-9.41L127.91-9.41Q127.91-10.99 127.38-11.69L127.38-11.69L127.38-11.69Q126.86-12.39 126.14-12.39L126.14-12.39L126.14-12.39Q125.34-12.39 124.60-11.89L124.60-11.89L124.60-11.89Q123.85-11.40 123.08-10.36L123.08-10.36L123.08-10.36Q122.31-9.31 121.50-7.70L121.50-7.70L121.50-7.70Q120.69-6.09 119.77-3.86L119.77-3.86L119.77-3.86Q119.66-3.67 119.60-3.47L119.60-3.47L119.60-3.47Q119.54-3.26 119.44-3.08L119.44-3.08L119.44-3.08Q119.62-0.66 119.82 1.57L119.82 1.57L119.82 1.57Q120.01 3.79 120.01 5.54L120.01 5.54L120.01 5.54Q120.01 8.84 119.25 10.43L119.25 10.43L119.25 10.43Q118.49 12.02 116.92 12.02L116.92 12.02L116.92 12.02Q116.30 12.02 115.85 11.73L115.85 11.73L115.85 11.73Q115.40 11.44 115.10 10.95L115.10 10.95L115.10 10.95Q114.80 10.46 114.66 9.79L114.66 9.79L114.66 9.79Q114.52 9.13 114.52 8.37L114.52 8.37L114.52 8.37Q114.52 7.18 114.81 5.74L114.81 5.74L114.81 5.74Q115.11 4.31 115.60 2.76L115.60 2.76L115.60 2.76Q116.09 1.21 116.75-0.43L116.75-0.43L116.75-0.43Q117.41-2.07 118.13-3.69L118.13-3.69L118.13-3.69Q117.94-5.74 117.81-7.72L117.81-7.72L117.81-7.72Q117.67-9.70 117.67-11.55L117.67-11.55L117.67-11.55Q117.67-13.15 117.90-14.05L117.90-14.05L117.90-14.05Q118.13-14.95 118.60-14.95L118.60-14.95L118.60-14.95Q118.74-14.95 118.98-14.87L118.98-14.87L118.98-14.87Q119.21-14.79 119.42-14.61L119.42-14.61L119.42-14.61Q119.62-14.44 119.78-14.19L119.78-14.19L119.78-14.19Q119.93-13.95 119.93-13.62L119.93-13.62L119.93-13.62Q119.93-12.78 119.70-11.89L119.70-11.89L119.70-11.89Q119.48-11.01 119.09-10.13L119.09-10.13L119.09-10.13Q119.09-9.17 119.12-8.16L119.12-8.16L119.12-8.16Q119.15-7.16 119.21-6.13L119.21-6.13L119.21-6.13Q120.11-8.02 120.98-9.36L120.98-9.36L120.98-9.36Q121.84-10.71 122.70-11.56L122.70-11.56L122.70-11.56Q123.56-12.41 124.41-12.80L124.41-12.80L124.41-12.80Q125.26-13.19 126.14-13.19L126.14-13.19L126.14-13.19Q126.90-13.19 127.52-12.86L127.52-12.86L127.52-12.86Q128.13-12.53 128.56-11.97L128.56-11.97L128.56-11.97Q128.99-11.40 129.23-10.62L129.23-10.62L129.23-10.62Q129.47-9.84 129.47-8.94L129.47-8.94L129.47-8.94Q129.47-7.28 128.93-5.68L128.93-5.68L128.93-5.68Q128.40-4.08 127.33-2.93L127.33-2.93L127.33-2.93Q127.72-2.77 128.26-2.77ZM118.84 6.97L118.84 6.97L118.84 6.97Q118.84 5.17 118.72 3.25L118.72 3.25L118.72 3.25Q118.60 1.33 118.43-0.59L118.43-0.59L118.43-0.59Q117.22 2.34 116.45 4.70L116.45 4.70L116.45 4.70Q115.68 7.05 115.68 8.98L115.68 8.98L115.68 8.98Q115.68 9.91 116.03 10.56L116.03 10.56L116.03 10.56Q116.38 11.22 117.08 11.22L117.08 11.22L117.08 11.22Q117.45 11.22 117.77 11.01L117.77 11.01L117.77 11.01Q118.08 10.81 118.32 10.32L118.32 10.32L118.32 10.32Q118.56 9.82 118.70 9.00L118.70 9.00L118.70 9.00Q118.84 8.18 118.84 6.97ZM123.09-1.93L123.09-1.93L123.09-1.93Q123.72-1.93 124.28-2.17L124.28-2.17L124.28-2.17Q124.83-2.42 125.30-2.85L125.30-2.85L125.30-2.85Q124.75-3.12 124.27-3.32L124.27-3.32L124.27-3.32Q123.79-3.53 123.33-3.53L123.33-3.53L123.33-3.53Q122.55-3.53 122.26-3.23L122.26-3.23L122.26-3.23Q121.96-2.93 121.96-2.65L121.96-2.65L121.96-2.65Q121.96-2.42 122.23-2.17L122.23-2.17L122.23-2.17Q122.49-1.93 123.09-1.93ZM157.58-8.94L157.58-8.94L157.58-8.94Q156.80-8.94 155.78-9.01L155.78-9.01L155.78-9.01Q154.75-9.08 153.71-9.25L153.71-9.25L153.71-9.25Q153.75-8.72 153.77-8.18L153.77-8.18L153.77-8.18Q153.79-7.65 153.79-7.14L153.79-7.14L153.79-7.14Q153.79-4.82 153.38-2.91L153.38-2.91L153.38-2.91Q152.97-1.00 152.15 0.35L152.15 0.35L152.15 0.35Q151.33 1.70 150.11 2.45L150.11 2.45L150.11 2.45Q148.89 3.20 147.29 3.20L147.29 3.20L147.29 3.20Q146.08 3.20 144.57 2.75L144.57 2.75L144.57 2.75Q143.06 2.30 141.20 1.13L141.20 1.13L141.61 0.47L141.61 0.47Q143.21 1.46 144.63 1.93L144.63 1.93L144.63 1.93Q146.06 2.40 147.29 2.40L147.29 2.40L147.29 2.40Q148.62 2.40 149.48 1.92L149.48 1.92L149.48 1.92Q150.34 1.44 150.85 0.65L150.85 0.65L150.85 0.65Q151.35-0.14 151.54-1.15L151.54-1.15L151.54-1.15Q151.74-2.15 151.74-3.20L151.74-3.20L151.74-3.20Q151.74-4.66 151.54-6.32L151.54-6.32L151.54-6.32Q151.35-7.98 151.18-9.82L151.18-9.82L151.18-9.82Q150.24-10.15 149.65-10.59L149.65-10.59L149.65-10.59Q149.05-11.03 149.05-11.63L149.05-11.63L149.05-11.63Q149.05-12.20 149.59-12.62L149.59-12.62L149.59-12.62Q150.14-13.04 151.02-13.27L151.02-13.27L151.02-13.27Q151.02-15.03 151.29-16.72L151.29-16.72L151.29-16.72Q151.55-18.42 151.95-19.91L151.95-19.91L151.95-19.91Q152.35-21.41 152.81-22.68L152.81-22.68L152.81-22.68Q153.28-23.95 153.69-24.87L153.69-24.87L153.69-24.87Q154.10-25.78 154.37-26.29L154.37-26.29L154.37-26.29Q154.65-26.80 154.67-26.80L154.67-26.80L155.39-26.46L155.39-26.46Q155.39-26.43 155.06-25.65L155.06-25.65L155.06-25.65Q154.73-24.86 154.34-23.42L154.34-23.42L154.34-23.42Q153.95-21.98 153.62-19.97L153.62-19.97L153.62-19.97Q153.30-17.96 153.30-15.50L153.30-15.50L153.30-15.50Q153.30-15.03 153.30-14.51L153.30-14.51L153.30-14.51Q153.30-13.99 153.34-13.47L153.34-13.47L153.34-13.47Q155.61-13.37 157.20-12.45L157.20-12.45L157.20-12.45Q158.79-11.53 159.96-9.91L159.96-9.91L159.96-9.91Q161.72-10.27 163.35-11.17L163.35-11.17L163.35-11.17Q164.99-12.06 166.23-13.43L166.23-13.43L166.23-13.43Q167.47-14.81 168.22-16.63L168.22-16.63L168.22-16.63Q168.96-18.46 168.96-20.67L168.96-20.67L168.96-20.67Q168.96-22.44 168.44-23.82L168.44-23.82L168.44-23.82Q167.92-25.20 167.05-26.24L167.05-26.24L167.05-26.24Q166.17-27.28 165.04-27.99L165.04-27.99L165.04-27.99Q163.90-28.71 162.69-29.15L162.69-29.15L162.69-29.15Q161.48-29.59 160.28-29.79L160.28-29.79L160.28-29.79Q159.08-29.98 158.07-29.98L158.07-29.98L158.07-29.98Q155.24-29.98 152.98-29.55L152.98-29.55L152.98-29.55Q150.71-29.12 148.97-28.46L148.97-28.46L148.97-28.46Q147.23-27.81 145.96-27.05L145.96-27.05L145.96-27.05Q144.70-26.29 143.88-25.63L143.88-25.63L143.88-25.63Q143.06-24.98 142.67-24.53L142.67-24.53L142.67-24.53Q142.28-24.08 142.28-24.08L142.28-24.08L141.61-24.53L141.61-24.53Q141.67-24.59 142.10-25.08L142.10-25.08L142.10-25.08Q142.53-25.57 143.38-26.26L143.38-26.26L143.38-26.26Q144.23-26.95 145.53-27.75L145.53-27.75L145.53-27.75Q146.84-28.55 148.65-29.21L148.65-29.21L148.65-29.21Q150.47-29.88 152.80-30.33L152.80-30.33L152.80-30.33Q155.14-30.78 158.07-30.78L158.07-30.78L158.07-30.78Q159.76-30.78 161.42-30.53L161.42-30.53L161.42-30.53Q163.08-30.27 164.58-29.75L164.58-29.75L164.58-29.75Q166.07-29.22 167.35-28.40L167.35-28.40L167.35-28.40Q168.64-27.58 169.57-26.47L169.57-26.47L169.57-26.47Q170.50-25.35 171.04-23.90L171.04-23.90L171.04-23.90Q171.57-22.46 171.57-20.67L171.57-20.67L171.57-20.67Q171.57-18.11 170.64-16.13L170.64-16.13L170.64-16.13Q169.70-14.15 168.15-12.73L168.15-12.73L168.15-12.73Q166.61-11.30 164.61-10.41L164.61-10.41L164.61-10.41Q162.61-9.52 160.47-9.15L160.47-9.15L160.47-9.15Q161.19-8.04 161.72-6.69L161.72-6.69L161.72-6.69Q162.36-5.17 162.88-3.54L162.88-3.54L162.88-3.54Q163.41-1.91 163.98-0.35L163.98-0.35L163.98-0.35Q164.55 1.21 165.24 2.60L165.24 2.60L165.24 2.60Q165.93 4.00 166.86 5.06L166.86 5.06L166.86 5.06Q167.79 6.11 169.06 6.73L169.06 6.73L169.06 6.73Q170.32 7.34 172.06 7.34L172.06 7.34L172.06 7.34Q173.29 7.34 174.57 6.80L174.57 6.80L174.57 6.80Q175.85 6.25 177.19 5.04L177.19 5.04L177.70 5.62L177.70 5.62Q176.94 6.36 176.14 7.02L176.14 7.02L176.14 7.02Q175.34 7.69 174.47 8.19L174.47 8.19L174.47 8.19Q173.60 8.70 172.63 8.99L172.63 8.99L172.63 8.99Q171.67 9.29 170.56 9.29L170.56 9.29L170.56 9.29Q168.90 9.29 167.68 8.83L167.68 8.83L167.68 8.83Q166.46 8.37 165.56 7.54L165.56 7.54L165.56 7.54Q164.66 6.71 164.04 5.58L164.04 5.58L164.04 5.58Q163.43 4.45 162.98 3.13L162.98 3.13L162.98 3.13Q162.52 1.80 162.19 0.32L162.19 0.32L162.19 0.32Q161.85-1.17 161.52-2.69L161.52-2.69L161.52-2.69Q161.11-4.55 160.61-6.15L160.61-6.15L160.61-6.15Q160.10-7.75 159.35-9.02L159.35-9.02L159.35-9.02Q158.89-8.96 158.45-8.95L158.45-8.95L158.45-8.95Q158.01-8.94 157.58-8.94ZM153.42-12.67L153.42-12.67L153.42-12.67Q153.46-12.02 153.53-11.33L153.53-11.33L153.53-11.33Q153.60-10.64 153.67-9.99L153.67-9.99L153.67-9.99Q154.44-9.82 155.45-9.76L155.45-9.76L155.45-9.76Q156.45-9.70 157.66-9.70L157.66-9.70L157.66-9.70Q157.95-9.70 158.26-9.70L158.26-9.70L158.26-9.70Q158.57-9.70 158.87-9.74L158.87-9.74L158.87-9.74Q157.93-11.03 156.63-11.80L156.63-11.80L156.63-11.80Q155.33-12.57 153.42-12.67ZM151.10-10.71L151.10-10.71L151.10-10.71Q151.06-11.12 151.04-11.56L151.04-11.56L151.04-11.56Q151.02-12.00 151.02-12.43L151.02-12.43L151.02-12.43Q150.49-12.30 150.17-12.10L150.17-12.10L150.17-12.10Q149.85-11.89 149.85-11.67L149.85-11.67L149.85-11.67Q149.85-11.50 150.15-11.25L150.15-11.25L150.15-11.25Q150.45-10.99 151.10-10.71ZM178.64-0.29L178.64-0.29L178.64-0.29Q177.60-0.29 176.63-0.66L176.63-0.66L176.63-0.66Q175.67-1.03 174.94-1.77L174.94-1.77L174.94-1.77Q174.21-2.52 173.78-3.65L173.78-3.65L173.78-3.65Q173.35-4.78 173.35-6.30L173.35-6.30L173.35-6.30Q173.35-8.14 173.89-9.59L173.89-9.59L173.89-9.59Q174.42-11.03 175.25-12.03L175.25-12.03L175.25-12.03Q176.08-13.02 177.11-13.55L177.11-13.55L177.11-13.55Q178.13-14.07 179.12-14.07L179.12-14.07L179.12-14.07Q180.39-14.07 181.14-13.23L181.14-13.23L181.14-13.23Q181.88-12.39 181.88-11.05L181.88-11.05L181.88-11.05Q181.88-9.91 181.45-8.97L181.45-8.97L181.45-8.97Q181.02-8.04 180.31-7.37L180.31-7.37L180.31-7.37Q179.61-6.71 178.69-6.34L178.69-6.34L178.69-6.34Q177.78-5.97 176.80-5.97L176.80-5.97L176.80-5.97Q176.33-5.97 175.91-6.02L175.91-6.02L175.91-6.02Q175.49-6.07 175.16-6.13L175.16-6.13L175.16-6.13Q175.28-4.86 175.65-3.94L175.65-3.94L175.65-3.94Q176.02-3.01 176.57-2.42L176.57-2.42L176.57-2.42Q177.13-1.83 177.81-1.54L177.81-1.54L177.81-1.54Q178.50-1.25 179.24-1.25L179.24-1.25L179.24-1.25Q180.16-1.25 180.94-1.70L180.94-1.70L180.94-1.70Q181.72-2.15 182.38-2.88L182.38-2.88L182.38-2.88Q183.03-3.61 183.58-4.55L183.58-4.55L183.58-4.55Q184.12-5.50 184.55-6.47L184.55-6.47L184.55-6.47Q184.98-7.44 185.32-8.38L185.32-8.38L185.32-8.38Q185.66-9.31 185.92-10.03L185.92-10.03L186.72-9.82L186.72-9.82Q186.46-9.15 186.10-8.18L186.10-8.18L186.10-8.18Q185.74-7.22 185.27-6.16L185.27-6.16L185.27-6.16Q184.80-5.11 184.16-4.05L184.16-4.05L184.16-4.05Q183.52-2.99 182.72-2.16L182.72-2.16L182.72-2.16Q181.92-1.33 180.91-0.81L180.91-0.81L180.91-0.81Q179.89-0.29 178.64-0.29ZM179.16-13.27L179.16-13.27L179.16-13.27Q178.40-13.27 177.67-12.79L177.67-12.79L177.67-12.79Q176.94-12.30 176.37-11.46L176.37-11.46L176.37-11.46Q175.79-10.62 175.43-9.47L175.43-9.47L175.43-9.47Q175.08-8.33 175.08-7.01L175.08-7.01L175.08-7.01Q175.34-6.91 175.82-6.84L175.82-6.84L175.82-6.84Q176.31-6.77 177.00-6.77L177.00-6.77L177.00-6.77Q177.74-6.77 178.47-7.09L178.47-7.09L178.47-7.09Q179.20-7.40 179.78-7.97L179.78-7.97L179.78-7.97Q180.37-8.53 180.73-9.31L180.73-9.31L180.73-9.31Q181.08-10.09 181.08-11.01L181.08-11.01L181.08-11.01Q181.08-11.46 180.96-11.87L180.96-11.87L180.96-11.87Q180.84-12.28 180.59-12.59L180.59-12.59L180.59-12.59Q180.35-12.90 179.99-13.08L179.99-13.08L179.99-13.08Q179.63-13.27 179.16-13.27ZM190.83-10.66L190.83-10.66L190.83-10.66Q190.83-11.89 191.41-12.80L191.41-12.80L191.41-12.80Q191.99-13.70 192.92-14.54L192.92-14.54L192.92-14.54Q192.63-14.72 192.30-14.82L192.30-14.82L192.30-14.82Q191.97-14.91 191.67-14.91L191.67-14.91L191.67-14.91Q190.99-14.91 190.22-14.57L190.22-14.57L190.22-14.57Q189.45-14.23 188.81-13.43L188.81-13.43L188.81-13.43Q188.16-12.63 187.73-11.29L187.73-11.29L187.73-11.29Q187.30-9.95 187.30-7.94L187.30-7.94L187.30-7.94Q187.30-6.28 187.70-5.09L187.70-5.09L187.70-5.09Q188.10-3.90 188.79-3.13L188.79-3.13L188.79-3.13Q189.49-2.36 190.42-2.00L190.42-2.00L190.42-2.00Q191.34-1.64 192.38-1.64L192.38-1.64L192.38-1.64Q193.63-1.64 194.62-2.29L194.62-2.29L194.62-2.29Q195.60-2.93 196.42-4.07L196.42-4.07L196.42-4.07Q197.24-5.21 197.95-6.74L197.95-6.74L197.95-6.74Q198.66-8.26 199.36-10.03L199.36-10.03L200.14-9.82L200.14-9.82Q199.73-8.82 199.28-7.75L199.28-7.75L199.28-7.75Q198.84-6.69 198.32-5.65L198.32-5.65L198.32-5.65Q197.80-4.61 197.17-3.69L197.17-3.69L197.17-3.69Q196.55-2.77 195.74-2.07L195.74-2.07L195.74-2.07Q194.93-1.37 193.92-0.96L193.92-0.96L193.92-0.96Q192.92-0.55 191.67-0.55L191.67-0.55L191.67-0.55Q190.39-0.55 189.26-0.97L189.26-0.97L189.26-0.97Q188.12-1.39 187.26-2.25L187.26-2.25L187.26-2.25Q186.40-3.10 185.88-4.39L185.88-4.39L185.88-4.39Q185.37-5.68 185.37-7.42L185.37-7.42L185.37-7.42Q185.37-9.19 185.95-10.71L185.95-10.71L185.95-10.71Q186.54-12.22 187.44-13.33L187.44-13.33L187.44-13.33Q188.34-14.44 189.43-15.07L189.43-15.07L189.43-15.07Q190.52-15.71 191.50-15.71L191.50-15.71L191.50-15.71Q192.65-15.71 193.55-15.11L193.55-15.11L193.55-15.11Q193.72-15.24 193.87-15.37L193.87-15.37L193.87-15.37Q194.02-15.50 194.19-15.67L194.19-15.67L194.64-15.03L194.64-15.03Q194.52-14.91 194.39-14.81L194.39-14.81L194.39-14.81Q194.27-14.70 194.15-14.58L194.15-14.58L194.15-14.58Q194.52-14.13 194.75-13.51L194.75-13.51L194.75-13.51Q194.99-12.90 194.99-12.14L194.99-12.14L194.99-12.14Q194.99-11.30 194.79-10.65L194.79-10.65L194.79-10.65Q194.60-10.01 194.26-9.56L194.26-9.56L194.26-9.56Q193.92-9.11 193.49-8.88L193.49-8.88L193.49-8.88Q193.06-8.65 192.59-8.65L192.59-8.65L192.59-8.65Q192.34-8.65 192.04-8.77L192.04-8.77L192.04-8.77Q191.73-8.88 191.46-9.12L191.46-9.12L191.46-9.12Q191.19-9.35 191.01-9.73L191.01-9.73L191.01-9.73Q190.83-10.11 190.83-10.66ZM194.15-12.14L194.15-12.14L194.15-12.14Q194.15-12.74 193.97-13.21L193.97-13.21L193.97-13.21Q193.80-13.68 193.51-14.03L193.51-14.03L193.51-14.03Q192.75-13.37 192.21-12.56L192.21-12.56L192.21-12.56Q191.67-11.75 191.67-10.66L191.67-10.66L191.67-10.66Q191.67-10.09 191.95-9.77L191.95-9.77L191.95-9.77Q192.24-9.45 192.63-9.45L192.63-9.45L192.63-9.45Q193.08-9.45 193.38-9.74L193.38-9.74L193.38-9.74Q193.68-10.03 193.84-10.45L193.84-10.45L193.84-10.45Q194.00-10.87 194.08-11.33L194.08-11.33L194.08-11.33Q194.15-11.79 194.15-12.14ZM201.69-2.13L201.69-2.13L201.69-2.13Q200.40-2.13 199.55-3.18L199.55-3.18L199.55-3.18Q198.70-4.22 198.70-6.34L198.70-6.34L198.70-6.34Q198.70-7.73 199.26-9.90L199.26-9.90L199.26-9.90Q199.83-12.06 201.22-14.79L201.22-14.79L201.98-14.58L201.98-14.58Q201.86-14.05 201.58-13.13L201.58-13.13L201.58-13.13Q201.30-12.20 201.03-11.06L201.03-11.06L201.03-11.06Q200.75-9.93 200.55-8.69L200.55-8.69L200.55-8.69Q200.34-7.44 200.34-6.30L200.34-6.30L200.34-6.30Q200.34-5.33 200.48-4.73L200.48-4.73L200.48-4.73Q200.63-4.12 200.86-3.78L200.86-3.78L200.86-3.78Q201.10-3.45 201.42-3.32L201.42-3.32L201.42-3.32Q201.74-3.20 202.10-3.20L202.10-3.20L202.10-3.20Q202.70-3.20 203.23-3.57L203.23-3.57L203.23-3.57Q203.77-3.94 204.25-4.54L204.25-4.54L204.25-4.54Q204.73-5.15 205.15-5.90L205.15-5.90L205.15-5.90Q205.57-6.64 205.91-7.40L205.91-7.40L205.91-7.40Q206.25-8.16 206.51-8.85L206.51-8.85L206.51-8.85Q206.78-9.54 206.94-10.03L206.94-10.03L207.74-9.82L207.74-9.82Q207.52-9.21 207.22-8.40L207.22-8.40L207.22-8.40Q206.92-7.59 206.54-6.73L206.54-6.73L206.54-6.73Q206.17-5.87 205.69-5.04L205.69-5.04L205.69-5.04Q205.22-4.22 204.63-3.58L204.63-3.58L204.63-3.58Q204.03-2.93 203.30-2.53L203.30-2.53L203.30-2.53Q202.58-2.13 201.69-2.13ZM205.02-21.25L205.02-21.25L205.02-21.25Q205.02-20.53 204.46-20.14L204.46-20.14L204.46-20.14Q203.91-19.75 203.07-19.75L203.07-19.75L203.07-19.75Q202.64-19.75 202.26-19.88L202.26-19.88L202.26-19.88Q201.88-20.02 201.60-20.23L201.60-20.23L201.60-20.23Q201.33-20.45 201.17-20.74L201.17-20.74L201.17-20.74Q201.02-21.04 201.02-21.37L201.02-21.37L201.02-21.37Q201.02-22.07 201.56-22.50L201.56-22.50L201.56-22.50Q202.10-22.93 202.82-22.93L202.82-22.93L202.82-22.93Q203.33-22.93 203.75-22.77L203.75-22.77L203.75-22.77Q204.16-22.62 204.44-22.37L204.44-22.37L204.44-22.37Q204.73-22.13 204.87-21.83L204.87-21.83L204.87-21.83Q205.02-21.53 205.02-21.25ZM203.91-21.25L203.91-21.25L203.91-21.25Q203.91-21.45 203.73-21.63L203.73-21.63L203.73-21.63Q203.56-21.80 203.21-21.80L203.21-21.80L203.21-21.80Q202.58-21.80 202.58-21.33L202.58-21.33L202.58-21.33Q202.58-21.10 202.77-20.95L202.77-20.95L202.77-20.95Q202.97-20.79 203.29-20.79L203.29-20.79L203.29-20.79Q203.60-20.79 203.76-20.93L203.76-20.93L203.76-20.93Q203.91-21.06 203.91-21.25ZM217.08-2.77L217.08-2.77L217.08-2.77Q217.75-2.77 218.36-3.15L218.36-3.15L218.36-3.15Q218.96-3.53 219.51-4.15L219.51-4.15L219.51-4.15Q220.05-4.78 220.53-5.57L220.53-5.57L220.53-5.57Q221.01-6.36 221.41-7.17L221.41-7.17L221.41-7.17Q221.81-7.98 222.13-8.73L222.13-8.73L222.13-8.73Q222.45-9.47 222.69-10.03L222.69-10.03L223.49-9.82L223.49-9.82Q223.23-9.15 222.89-8.31L222.89-8.31L222.89-8.31Q222.55-7.46 222.11-6.58L222.11-6.58L222.11-6.58Q221.67-5.70 221.15-4.87L221.15-4.87L221.15-4.87Q220.62-4.04 219.99-3.38L219.99-3.38L219.99-3.38Q219.35-2.73 218.61-2.33L218.61-2.33L218.61-2.33Q217.88-1.93 217.03-1.93L217.03-1.93L217.03-1.93Q216.21-1.93 215.39-2.28L215.39-2.28L215.39-2.28Q214.70-1.74 213.86-1.44L213.86-1.44L213.86-1.44Q213.01-1.13 211.99-1.13L211.99-1.13L211.99-1.13Q211.35-1.13 210.96-1.29L210.96-1.29L210.96-1.29Q210.57-1.46 210.36-1.69L210.36-1.69L210.36-1.69Q210.14-1.93 210.06-2.17L210.06-2.17L210.06-2.17Q209.98-2.42 209.98-2.60L209.98-2.60L209.98-2.60Q209.98-3.01 210.16-3.33L210.16-3.33L210.16-3.33Q210.35-3.65 210.66-3.88L210.66-3.88L210.66-3.88Q210.96-4.10 211.36-4.21L211.36-4.21L211.36-4.21Q211.76-4.33 212.19-4.33L212.19-4.33L212.19-4.33Q212.89-4.33 213.53-4.07L213.53-4.07L213.53-4.07Q214.16-3.81 214.76-3.53L214.76-3.53L214.76-3.53Q215.23-4.12 215.60-4.86L215.60-4.86L215.60-4.86Q215.97-5.60 216.21-6.39L216.21-6.39L216.21-6.39Q216.46-7.18 216.59-7.96L216.59-7.96L216.59-7.96Q216.73-8.74 216.73-9.41L216.73-9.41L216.73-9.41Q216.73-10.99 216.20-11.69L216.20-11.69L216.20-11.69Q215.68-12.39 214.96-12.39L214.96-12.39L214.96-12.39Q214.16-12.39 213.41-11.89L213.41-11.89L213.41-11.89Q212.67-11.40 211.90-10.36L211.90-10.36L211.90-10.36Q211.13-9.31 210.32-7.70L210.32-7.70L210.32-7.70Q209.51-6.09 208.58-3.86L208.58-3.86L208.58-3.86Q208.48-3.67 208.42-3.47L208.42-3.47L208.42-3.47Q208.36-3.26 208.26-3.08L208.26-3.08L208.26-3.08Q208.44-0.66 208.64 1.57L208.64 1.57L208.64 1.57Q208.83 3.79 208.83 5.54L208.83 5.54L208.83 5.54Q208.83 8.84 208.07 10.43L208.07 10.43L208.07 10.43Q207.31 12.02 205.73 12.02L205.73 12.02L205.73 12.02Q205.12 12.02 204.67 11.73L204.67 11.73L204.67 11.73Q204.22 11.44 203.92 10.95L203.92 10.95L203.92 10.95Q203.62 10.46 203.48 9.79L203.48 9.79L203.48 9.79Q203.33 9.13 203.33 8.37L203.33 8.37L203.33 8.37Q203.33 7.18 203.63 5.74L203.63 5.74L203.63 5.74Q203.93 4.31 204.42 2.76L204.42 2.76L204.42 2.76Q204.91 1.21 205.57-0.43L205.57-0.43L205.57-0.43Q206.23-2.07 206.94-3.69L206.94-3.69L206.94-3.69Q206.76-5.74 206.63-7.72L206.63-7.72L206.63-7.72Q206.49-9.70 206.49-11.55L206.49-11.55L206.49-11.55Q206.49-13.15 206.72-14.05L206.72-14.05L206.72-14.05Q206.94-14.95 207.42-14.95L207.42-14.95L207.42-14.95Q207.56-14.95 207.80-14.87L207.80-14.87L207.80-14.87Q208.03-14.79 208.24-14.61L208.24-14.61L208.24-14.61Q208.44-14.44 208.60-14.19L208.60-14.19L208.60-14.19Q208.75-13.95 208.75-13.62L208.75-13.62L208.75-13.62Q208.75-12.78 208.52-11.89L208.52-11.89L208.52-11.89Q208.30-11.01 207.91-10.13L207.91-10.13L207.91-10.13Q207.91-9.17 207.94-8.16L207.94-8.16L207.94-8.16Q207.97-7.16 208.03-6.13L208.03-6.13L208.03-6.13Q208.93-8.02 209.79-9.36L209.79-9.36L209.79-9.36Q210.66-10.71 211.52-11.56L211.52-11.56L211.52-11.56Q212.38-12.41 213.23-12.80L213.23-12.80L213.23-12.80Q214.08-13.19 214.96-13.19L214.96-13.19L214.96-13.19Q215.72-13.19 216.34-12.86L216.34-12.86L216.34-12.86Q216.95-12.53 217.38-11.97L217.38-11.97L217.38-11.97Q217.81-11.40 218.05-10.62L218.05-10.62L218.05-10.62Q218.29-9.84 218.29-8.94L218.29-8.94L218.29-8.94Q218.29-7.28 217.75-5.68L217.75-5.68L217.75-5.68Q217.22-4.08 216.15-2.93L216.15-2.93L216.15-2.93Q216.54-2.77 217.08-2.77ZM207.66 6.97L207.66 6.97L207.66 6.97Q207.66 5.17 207.54 3.25L207.54 3.25L207.54 3.25Q207.42 1.33 207.25-0.59L207.25-0.59L207.25-0.59Q206.04 2.34 205.27 4.70L205.27 4.70L205.27 4.70Q204.50 7.05 204.50 8.98L204.50 8.98L204.50 8.98Q204.50 9.91 204.85 10.56L204.85 10.56L204.85 10.56Q205.20 11.22 205.90 11.22L205.90 11.22L205.90 11.22Q206.27 11.22 206.59 11.01L206.59 11.01L206.59 11.01Q206.90 10.81 207.14 10.32L207.14 10.32L207.14 10.32Q207.38 9.82 207.52 9.00L207.52 9.00L207.52 9.00Q207.66 8.18 207.66 6.97ZM211.91-1.93L211.91-1.93L211.91-1.93Q212.54-1.93 213.10-2.17L213.10-2.17L213.10-2.17Q213.65-2.42 214.12-2.85L214.12-2.85L214.12-2.85Q213.57-3.12 213.09-3.32L213.09-3.32L213.09-3.32Q212.60-3.53 212.15-3.53L212.15-3.53L212.15-3.53Q211.37-3.53 211.08-3.23L211.08-3.23L211.08-3.23Q210.78-2.93 210.78-2.65L210.78-2.65L210.78-2.65Q210.78-2.42 211.05-2.17L211.05-2.17L211.05-2.17Q211.31-1.93 211.91-1.93ZM227.19-0.29L227.19-0.29L227.19-0.29Q226.14-0.29 225.18-0.66L225.18-0.66L225.18-0.66Q224.21-1.03 223.48-1.77L223.48-1.77L223.48-1.77Q222.76-2.52 222.33-3.65L222.33-3.65L222.33-3.65Q221.89-4.78 221.89-6.30L221.89-6.30L221.89-6.30Q221.89-8.14 222.43-9.59L222.43-9.59L222.43-9.59Q222.96-11.03 223.79-12.03L223.79-12.03L223.79-12.03Q224.62-13.02 225.65-13.55L225.65-13.55L225.65-13.55Q226.67-14.07 227.66-14.07L227.66-14.07L227.66-14.07Q228.93-14.07 229.68-13.23L229.68-13.23L229.68-13.23Q230.43-12.39 230.43-11.05L230.43-11.05L230.43-11.05Q230.43-9.91 230.00-8.97L230.00-8.97L230.00-8.97Q229.56-8.04 228.86-7.37L228.86-7.37L228.86-7.37Q228.15-6.71 227.24-6.34L227.24-6.34L227.24-6.34Q226.32-5.97 225.34-5.97L225.34-5.97L225.34-5.97Q224.87-5.97 224.45-6.02L224.45-6.02L224.45-6.02Q224.03-6.07 223.70-6.13L223.70-6.13L223.70-6.13Q223.82-4.86 224.19-3.94L224.19-3.94L224.19-3.94Q224.56-3.01 225.11-2.42L225.11-2.42L225.11-2.42Q225.67-1.83 226.35-1.54L226.35-1.54L226.35-1.54Q227.04-1.25 227.78-1.25L227.78-1.25L227.78-1.25Q228.70-1.25 229.48-1.70L229.48-1.70L229.48-1.70Q230.26-2.15 230.92-2.88L230.92-2.88L230.92-2.88Q231.57-3.61 232.12-4.55L232.12-4.55L232.12-4.55Q232.66-5.50 233.09-6.47L233.09-6.47L233.09-6.47Q233.52-7.44 233.86-8.38L233.86-8.38L233.86-8.38Q234.20-9.31 234.47-10.03L234.47-10.03L235.27-9.82L235.27-9.82Q235.00-9.15 234.64-8.18L234.64-8.18L234.64-8.18Q234.28-7.22 233.81-6.16L233.81-6.16L233.81-6.16Q233.34-5.11 232.70-4.05L232.70-4.05L232.70-4.05Q232.07-2.99 231.27-2.16L231.27-2.16L231.27-2.16Q230.47-1.33 229.45-0.81L229.45-0.81L229.45-0.81Q228.44-0.29 227.19-0.29ZM227.70-13.27L227.70-13.27L227.70-13.27Q226.94-13.27 226.21-12.79L226.21-12.79L226.21-12.79Q225.48-12.30 224.91-11.46L224.91-11.46L224.91-11.46Q224.33-10.62 223.98-9.47L223.98-9.47L223.98-9.47Q223.62-8.33 223.62-7.01L223.62-7.01L223.62-7.01Q223.88-6.91 224.37-6.84L224.37-6.84L224.37-6.84Q224.85-6.77 225.54-6.77L225.54-6.77L225.54-6.77Q226.28-6.77 227.01-7.09L227.01-7.09L227.01-7.09Q227.74-7.40 228.32-7.97L228.32-7.97L228.32-7.97Q228.91-8.53 229.27-9.31L229.27-9.31L229.27-9.31Q229.63-10.09 229.63-11.01L229.63-11.01L229.63-11.01Q229.63-11.46 229.50-11.87L229.50-11.87L229.50-11.87Q229.38-12.28 229.13-12.59L229.13-12.59L229.13-12.59Q228.89-12.90 228.53-13.08L228.53-13.08L228.53-13.08Q228.17-13.27 227.70-13.27ZM235.92-11.59L235.92-11.59L235.92-11.59Q235.70-10.99 235.48-10.42L235.48-10.42L235.48-10.42Q235.27-9.84 235.01-9.27L235.01-9.27L235.01-9.27Q234.75-8.70 234.40-8.14L234.40-8.14L234.40-8.14Q234.06-7.59 233.56-7.01L233.56-7.01L233.40-7.18L233.40-7.18Q233.93-8.47 234.34-9.82L234.34-9.82L234.34-9.82Q234.75-11.18 235.16-12.86L235.16-12.86L235.16-12.86Q235.06-13.15 234.98-13.35L234.98-13.35L234.98-13.35Q234.90-13.56 234.83-13.73L234.83-13.73L234.83-13.73Q234.77-13.90 234.73-14.10L234.73-14.10L234.73-14.10Q234.69-14.29 234.69-14.54L234.69-14.54L234.69-14.54Q234.69-14.87 234.78-15.27L234.78-15.27L234.78-15.27Q234.88-15.67 235.05-16.02L235.05-16.02L235.05-16.02Q235.22-16.37 235.45-16.60L235.45-16.60L235.45-16.60Q235.68-16.84 235.92-16.84L235.92-16.84L235.92-16.84Q236.21-16.84 236.38-16.70L236.38-16.70L236.38-16.70Q236.56-16.57 236.66-16.37L236.66-16.37L236.66-16.37Q236.76-16.16 236.80-15.93L236.80-15.93L236.80-15.93Q236.84-15.71 236.84-15.50L236.84-15.50L236.84-15.50Q236.84-15.20 236.77-14.80L236.77-14.80L236.77-14.80Q236.70-14.40 236.61-14.02L236.61-14.02L236.61-14.02Q236.52-13.64 236.44-13.35L236.44-13.35L236.44-13.35Q236.37-13.06 236.37-12.98L236.37-12.98L236.37-12.98Q236.54-12.43 236.94-11.85L236.94-11.85L236.94-11.85Q237.34-11.28 237.85-10.68L237.85-10.68L237.85-10.68Q238.36-10.09 238.93-9.44L238.93-9.44L238.93-9.44Q239.49-8.80 239.95-8.08L239.95-8.08L239.95-8.08Q240.41-7.36 240.71-6.55L240.71-6.55L240.71-6.55Q241.01-5.74 241.01-4.84L241.01-4.84L241.01-4.84Q241.01-3.55 240.63-2.75L240.63-2.75L240.63-2.75Q240.25-1.95 239.61-1.52L239.61-1.52L239.61-1.52Q240.54-1.89 241.35-2.83L241.35-2.83L241.35-2.83Q242.16-3.77 242.84-4.99L242.84-4.99L242.84-4.99Q243.53-6.21 244.11-7.55L244.11-7.55L244.11-7.55Q244.70-8.88 245.15-10.03L245.15-10.03L245.95-9.82L245.95-9.82Q245.25-8.04 244.47-6.34L244.47-6.34L244.47-6.34Q243.69-4.63 242.71-3.30L242.71-3.30L242.71-3.30Q241.73-1.97 240.48-1.15L240.48-1.15L240.48-1.15Q239.24-0.33 237.64-0.33L237.64-0.33L237.64-0.33Q237.21-0.33 236.77-0.40L236.77-0.40L236.77-0.40Q236.33-0.47 235.91-0.63L235.91-0.63L235.91-0.63Q235.49-0.78 235.12-1.05L235.12-1.05L235.12-1.05Q234.75-1.31 234.49-1.68L234.49-1.68L235.16-2.13L235.16-2.13Q235.35-1.85 235.74-1.60L235.74-1.60L235.74-1.60Q236.13-1.35 236.76-1.35L236.76-1.35L236.76-1.35Q237.38-1.35 237.84-1.61L237.84-1.61L237.84-1.61Q238.30-1.87 238.62-2.31L238.62-2.31L238.62-2.31Q238.94-2.75 239.09-3.34L239.09-3.34L239.09-3.34Q239.24-3.94 239.24-4.61L239.24-4.61L239.24-4.61Q239.24-6.01 238.84-7.01L238.84-7.01L238.84-7.01Q238.44-8.02 237.90-8.81L237.90-8.81L237.90-8.81Q237.36-9.60 236.79-10.25L236.79-10.25L236.79-10.25Q236.23-10.91 235.92-11.59Z" fill="url(#editing-shiny-gradient)"></path></g></g><g filter="url(#editing-shiny2)"><g transform="translate(128.6719207763672, 96.40000343322754)"><path d="M11.98-1.13L11.18-1.00L11.18-1.00Q10.01-3.90 9.54-6.54L9.54-6.54L9.54-6.54Q9.06-9.19 9.06-11.55L9.06-11.55L9.06-11.55Q9.06-11.89 9.06-12.24L9.06-12.24L9.06-12.24Q9.06-12.59 9.11-12.94L9.11-12.94L9.11-12.94Q7.75-13.10 7.04-13.50L7.04-13.50L7.04-13.50Q6.34-13.90 6.34-14.50L6.34-14.50L6.34-14.50Q6.34-15.09 7.17-15.48L7.17-15.48L7.17-15.48Q8.00-15.87 9.45-16.04L9.45-16.04L9.45-16.04Q9.78-18.05 10.32-19.67L10.32-19.67L10.32-19.67Q10.85-21.29 11.35-22.43L11.35-22.43L11.35-22.43Q11.85-23.56 12.22-24.19L12.22-24.19L12.22-24.19Q12.59-24.81 12.59-24.86L12.59-24.86L13.35-24.61L13.35-24.61Q13.27-24.36 13.05-23.72L13.05-23.72L13.05-23.72Q12.84-23.07 12.56-22.02L12.56-22.02L12.56-22.02Q12.28-20.96 12.00-19.49L12.00-19.49L12.00-19.49Q11.71-18.03 11.50-16.16L11.50-16.16L11.55-16.16L11.55-16.16Q13.10-16.16 14.62-16.01L14.62-16.01L14.62-16.01Q16.14-15.85 17.55-15.50L17.55-15.50L17.55-15.50Q18.52-16.04 19.36-16.72L19.36-16.72L19.36-16.72Q20.20-17.41 20.83-18.24L20.83-18.24L20.83-18.24Q21.45-19.07 21.81-20.05L21.81-20.05L21.81-20.05Q22.17-21.02 22.17-22.13L22.17-22.13L22.17-22.13Q22.17-23.67 21.64-24.79L21.64-24.79L21.64-24.79Q21.10-25.92 20.27-26.73L20.27-26.73L20.27-26.73Q19.44-27.54 18.40-28.05L18.40-28.05L18.40-28.05Q17.35-28.57 16.33-28.85L16.33-28.85L16.33-28.85Q15.32-29.14 14.44-29.25L14.44-29.25L14.44-29.25Q13.56-29.37 13.02-29.37L13.02-29.37L13.02-29.37Q11.03-29.37 9.39-29.01L9.39-29.01L9.39-29.01Q7.75-28.65 6.45-28.11L6.45-28.11L6.45-28.11Q5.15-27.56 4.18-26.94L4.18-26.94L4.18-26.94Q3.22-26.31 2.58-25.77L2.58-25.77L2.58-25.77Q1.95-25.22 1.63-24.87L1.63-24.87L1.63-24.87Q1.31-24.51 1.29-24.49L1.29-24.49L0.68-25.00L0.68-25.00Q0.72-25.06 1.08-25.47L1.08-25.47L1.08-25.47Q1.44-25.88 2.12-26.44L2.12-26.44L2.12-26.44Q2.81-27.01 3.81-27.67L3.81-27.67L3.81-27.67Q4.82-28.32 6.15-28.86L6.15-28.86L6.15-28.86Q7.49-29.41 9.14-29.78L9.14-29.78L9.14-29.78Q10.79-30.15 12.78-30.15L12.78-30.15L12.78-30.15Q14.11-30.15 15.51-29.97L15.51-29.97L15.51-29.97Q16.92-29.80 18.24-29.41L18.24-29.41L18.24-29.41Q19.56-29.02 20.75-28.40L20.75-28.40L20.75-28.40Q21.94-27.79 22.83-26.91L22.83-26.91L22.83-26.91Q23.71-26.02 24.22-24.86L24.22-24.86L24.22-24.86Q24.73-23.69 24.73-22.21L24.73-22.21L24.73-22.21Q24.73-21.23 24.34-20.24L24.34-20.24L24.34-20.24Q23.95-19.26 23.24-18.31L23.24-18.31L23.24-18.31Q22.52-17.37 21.51-16.53L21.51-16.53L21.51-16.53Q20.51-15.69 19.28-14.99L19.28-14.99L19.28-14.99Q20.65-14.50 21.82-13.79L21.82-13.79L21.82-13.79Q22.99-13.08 23.83-12.13L23.83-12.13L23.83-12.13Q24.67-11.18 25.14-9.97L25.14-9.97L25.14-9.97Q25.61-8.76 25.61-7.26L25.61-7.26L25.61-7.26Q25.61-5.66 25.04-4.22L25.04-4.22L25.04-4.22Q24.47-2.79 23.43-1.58L23.43-1.58L23.43-1.58Q22.39-0.37 20.96 0.60L20.96 0.60L20.96 0.60Q19.52 1.58 17.80 2.26L17.80 2.26L17.80 2.26Q16.08 2.93 14.12 3.29L14.12 3.29L14.12 3.29Q12.16 3.65 10.09 3.65L10.09 3.65L10.09 3.65Q7.49 3.65 5.59 3.05L5.59 3.05L5.59 3.05Q3.69 2.44 2.45 1.44L2.45 1.44L2.45 1.44Q1.21 0.43 0.60-0.87L0.60-0.87L0.60-0.87Q0-2.17 0-3.57L0-3.57L0-3.57Q0-4.47 0.28-5.28L0.28-5.28L0.28-5.28Q0.55-6.09 1.06-6.78L1.06-6.78L1.06-6.78Q1.56-7.46 2.28-7.99L2.28-7.99L2.28-7.99Q2.99-8.51 3.90-8.82L3.90-8.82L4.16-8.18L4.16-8.18Q3.38-7.90 2.86-7.32L2.86-7.32L2.86-7.32Q2.34-6.75 2.02-6.07L2.02-6.07L2.02-6.07Q1.70-5.39 1.57-4.70L1.57-4.70L1.57-4.70Q1.44-4.00 1.44-3.49L1.44-3.49L1.44-3.49Q1.44-2.87 1.60-2.15L1.60-2.15L1.60-2.15Q1.76-1.44 2.15-0.74L2.15-0.74L2.15-0.74Q2.54-0.04 3.19 0.62L3.19 0.62L3.19 0.62Q3.83 1.27 4.80 1.76L4.80 1.76L4.80 1.76Q5.76 2.26 7.08 2.55L7.08 2.55L7.08 2.55Q8.39 2.85 10.09 2.85L10.09 2.85L10.09 2.85Q11.40 2.85 12.90 2.57L12.90 2.57L12.90 2.57Q14.40 2.30 15.85 1.74L15.85 1.74L15.85 1.74Q17.31 1.19 18.64 0.37L18.64 0.37L18.64 0.37Q19.97-0.45 21-1.56L21-1.56L21-1.56Q22.03-2.67 22.63-4.04L22.63-4.04L22.63-4.04Q23.24-5.41 23.24-7.05L23.24-7.05L23.24-7.05Q23.24-8.53 22.83-9.68L22.83-9.68L22.83-9.68Q22.42-10.83 21.69-11.71L21.69-11.71L21.69-11.71Q20.96-12.59 20.00-13.22L20.00-13.22L20.00-13.22Q19.03-13.84 17.92-14.27L17.92-14.27L17.92-14.27Q16.41-13.62 14.73-13.24L14.73-13.24L14.73-13.24Q13.06-12.86 11.26-12.86L11.26-12.86L11.26-12.86Q11.22-12.14 11.20-11.37L11.20-11.37L11.20-11.37Q11.18-10.60 11.18-9.78L11.18-9.78L11.18-9.78Q11.18-7.81 11.38-5.66L11.38-5.66L11.38-5.66Q11.59-3.51 11.98-1.13L11.98-1.13ZM11.30-13.70L11.30-13.70L11.30-13.70Q12.39-13.74 13.65-14.02L13.65-14.02L13.65-14.02Q14.91-14.29 16.16-14.83L16.16-14.83L16.16-14.83Q14.99-15.11 13.81-15.25L13.81-15.25L13.81-15.25Q12.63-15.38 11.55-15.38L11.55-15.38L11.42-15.38L11.42-15.38Q11.38-14.97 11.36-14.55L11.36-14.55L11.36-14.55Q11.34-14.13 11.30-13.70ZM7.18-14.46L7.18-14.46L7.18-14.46Q7.18-14.31 7.63-14.11L7.63-14.11L7.63-14.11Q8.08-13.90 9.15-13.78L9.15-13.78L9.15-13.78Q9.19-14.15 9.23-14.52L9.23-14.52L9.23-14.52Q9.27-14.89 9.33-15.24L9.33-15.24L9.33-15.24Q8.16-15.07 7.67-14.83L7.67-14.83L7.67-14.83Q7.18-14.58 7.18-14.46ZM37.47-4.74L37.47-4.74L37.47-4.74Q36.83-3.59 36.24-2.83L36.24-2.83L36.24-2.83Q35.64-2.07 35.06-1.62L35.06-1.62L35.06-1.62Q34.47-1.17 33.88-0.98L33.88-0.98L33.88-0.98Q33.28-0.80 32.65-0.80L32.65-0.80L32.65-0.80Q32.14-0.80 31.48-0.96L31.48-0.96L31.48-0.96Q30.82-1.13 30.24-1.65L30.24-1.65L30.24-1.65Q29.65-2.17 29.25-3.16L29.25-3.16L29.25-3.16Q28.85-4.14 28.85-5.80L28.85-5.80L28.85-5.80Q28.85-7.46 29.24-8.93L29.24-8.93L29.24-8.93Q29.63-10.40 30.11-11.50L30.11-11.50L30.11-11.50Q30.66-12.78 31.38-13.86L31.38-13.86L32.14-13.62L32.14-13.62Q32.12-13.60 32.00-13.25L32.00-13.25L32.00-13.25Q31.89-12.90 31.72-12.30L31.72-12.30L31.72-12.30Q31.54-11.71 31.35-10.93L31.35-10.93L31.35-10.93Q31.15-10.15 30.98-9.28L30.98-9.28L30.98-9.28Q30.80-8.41 30.69-7.51L30.69-7.51L30.69-7.51Q30.58-6.60 30.58-5.76L30.58-5.76L30.58-5.76Q30.58-3.83 31.26-2.72L31.26-2.72L31.26-2.72Q31.95-1.60 33.06-1.60L33.06-1.60L33.06-1.60Q34.29-1.60 35.44-3.02L35.44-3.02L35.44-3.02Q36.59-4.45 37.63-7.01L37.63-7.01L37.63-7.01Q37.82-8.20 38.13-9.23L38.13-9.23L38.13-9.23Q38.45-10.25 38.77-11.05L38.77-11.05L38.77-11.05Q39.09-11.85 39.35-12.39L39.35-12.39L39.35-12.39Q39.62-12.92 39.74-13.10L39.74-13.10L40.46-12.94L40.46-12.94Q40.13-11.40 39.90-10.18L39.90-10.18L39.90-10.18Q39.66-8.96 39.52-7.98L39.52-7.98L39.52-7.98Q39.38-6.99 39.30-6.22L39.30-6.22L39.30-6.22Q39.23-5.46 39.23-4.84L39.23-4.84L39.23-4.84Q39.23-3.61 39.62-2.87L39.62-2.87L39.62-2.87Q40.01-2.13 40.83-2.13L40.83-2.13L40.83-2.13Q41.38-2.13 41.90-2.54L41.90-2.54L41.90-2.54Q42.41-2.95 42.96-3.90L42.96-3.90L42.96-3.90Q43.52-4.84 44.13-6.34L44.13-6.34L44.13-6.34Q44.75-7.83 45.53-10.03L45.53-10.03L46.33-9.82L46.33-9.82Q45.98-8.96 45.63-7.98L45.63-7.98L45.63-7.98Q45.28-6.99 44.88-6.01L44.88-6.01L44.88-6.01Q44.48-5.02 44.04-4.12L44.04-4.12L44.04-4.12Q43.60-3.22 43.06-2.52L43.06-2.52L43.06-2.52Q42.51-1.83 41.88-1.42L41.88-1.42L41.88-1.42Q41.24-1.00 40.46-1.00L40.46-1.00L40.46-1.00Q39.72-1.00 39.17-1.29L39.17-1.29L39.17-1.29Q38.62-1.58 38.24-2.07L38.24-2.07L38.24-2.07Q37.86-2.56 37.66-3.25L37.66-3.25L37.66-3.25Q37.47-3.94 37.47-4.74ZM40.87-16.51L41.20-17.27L41.20-17.27Q41.51-17.08 41.94-16.84L41.94-16.84L41.94-16.84Q42.37-16.59 42.94-16.37L42.94-16.37L42.94-16.37Q43.52-16.14 44.23-15.94L44.23-15.94L44.23-15.94Q44.93-15.75 45.77-15.67L45.77-15.67L45.77-15.67Q46.06-17.51 46.51-19.00L46.51-19.00L46.51-19.00Q46.96-20.49 47.51-21.54L47.51-21.54L47.51-21.54Q48.05-22.60 48.63-23.16L48.63-23.16L48.63-23.16Q49.22-23.73 49.77-23.73L49.77-23.73L49.77-23.73Q50.41-23.73 50.67-23.24L50.67-23.24L50.67-23.24Q50.94-22.74 50.94-21.92L50.94-21.92L50.94-21.92Q50.94-21.33 50.82-20.61L50.82-20.61L50.82-20.61Q50.70-19.89 50.49-19.08L50.49-19.08L50.49-19.08Q50.29-18.27 50.00-17.40L50.00-17.40L50.00-17.40Q49.71-16.53 49.40-15.67L49.40-15.67L49.40-15.67Q51.45-15.85 53.19-16.34L53.19-16.34L53.19-16.34Q54.92-16.84 56.19-17.35L56.19-17.35L56.58-16.59L56.58-16.59Q54.90-15.96 53.09-15.45L53.09-15.45L53.09-15.45Q51.29-14.95 49.05-14.83L49.05-14.83L49.05-14.83Q48.54-13.49 48.00-12.29L48.00-12.29L48.00-12.29Q47.46-11.09 47.00-10.21L47.00-10.21L47.00-10.21Q47.02-9.06 47.14-7.72L47.14-7.72L47.14-7.72Q47.25-6.38 47.59-5.21L47.59-5.21L47.59-5.21Q47.93-4.04 48.55-3.26L48.55-3.26L48.55-3.26Q49.18-2.48 50.20-2.48L50.20-2.48L50.20-2.48Q51.06-2.48 51.78-3.21L51.78-3.21L51.78-3.21Q52.50-3.94 53.10-5.06L53.10-5.06L53.10-5.06Q53.71-6.17 54.22-7.51L54.22-7.51L54.22-7.51Q54.74-8.84 55.19-10.03L55.19-10.03L55.99-9.82L55.99-9.82Q55.70-9.08 55.37-8.16L55.37-8.16L55.37-8.16Q55.04-7.24 54.63-6.29L54.63-6.29L54.63-6.29Q54.22-5.33 53.73-4.44L53.73-4.44L53.73-4.44Q53.24-3.55 52.64-2.84L52.64-2.84L52.64-2.84Q52.05-2.13 51.33-1.71L51.33-1.71L51.33-1.71Q50.61-1.29 49.77-1.29L49.77-1.29L49.77-1.29Q48.87-1.29 48.08-1.70L48.08-1.70L48.08-1.70Q47.29-2.11 46.71-3.17L46.71-3.17L46.71-3.17Q46.12-4.22 45.78-6.04L45.78-6.04L45.78-6.04Q45.45-7.85 45.45-10.66L45.45-10.66L45.45-10.66Q45.45-12.92 45.69-14.87L45.69-14.87L45.69-14.87Q43.93-15.09 42.73-15.58L42.73-15.58L42.73-15.58Q41.53-16.06 40.87-16.51L40.87-16.51ZM49.90-22.64L49.90-22.64L49.90-22.64Q49.71-22.64 49.34-22.27L49.34-22.27L49.34-22.27Q48.97-21.90 48.56-21.07L48.56-21.07L48.56-21.07Q48.15-20.24 47.77-18.90L47.77-18.90L47.77-18.90Q47.39-17.55 47.17-15.59L47.17-15.59L47.56-15.59L48.56-15.59L48.56-15.59Q48.93-16.61 49.21-17.58L49.21-17.58L49.21-17.58Q49.49-18.54 49.69-19.37L49.69-19.37L49.69-19.37Q49.90-20.20 50.00-20.87L50.00-20.87L50.00-20.87Q50.10-21.53 50.10-21.96L50.10-21.96L50.10-21.96Q50.10-22.64 49.90-22.64ZM47.00-11.89L47.00-11.85L47.00-11.85Q47.35-12.57 47.66-13.30L47.66-13.30L47.66-13.30Q47.97-14.03 48.25-14.79L48.25-14.79L47.50-14.79L47.09-14.79L47.09-14.79Q47.04-14.13 47.02-13.40L47.02-13.40L47.02-13.40Q47.00-12.67 47.00-11.89L47.00-11.89ZM50.53-16.51L50.86-17.27L50.86-17.27Q51.17-17.08 51.60-16.84L51.60-16.84L51.60-16.84Q52.03-16.59 52.60-16.37L52.60-16.37L52.60-16.37Q53.18-16.14 53.88-15.94L53.88-15.94L53.88-15.94Q54.59-15.75 55.43-15.67L55.43-15.67L55.43-15.67Q55.72-17.51 56.17-19.00L56.17-19.00L56.17-19.00Q56.62-20.49 57.17-21.54L57.17-21.54L57.17-21.54Q57.71-22.60 58.29-23.16L58.29-23.16L58.29-23.16Q58.88-23.73 59.43-23.73L59.43-23.73L59.43-23.73Q60.07-23.73 60.33-23.24L60.33-23.24L60.33-23.24Q60.60-22.74 60.60-21.92L60.60-21.92L60.60-21.92Q60.60-21.33 60.48-20.61L60.48-20.61L60.48-20.61Q60.35-19.89 60.15-19.08L60.15-19.08L60.15-19.08Q59.94-18.27 59.66-17.40L59.66-17.40L59.66-17.40Q59.37-16.53 59.06-15.67L59.06-15.67L59.06-15.67Q61.11-15.85 62.85-16.34L62.85-16.34L62.85-16.34Q64.58-16.84 65.85-17.35L65.85-17.35L66.24-16.59L66.24-16.59Q64.56-15.96 62.75-15.45L62.75-15.45L62.75-15.45Q60.95-14.95 58.71-14.83L58.71-14.83L58.71-14.83Q58.20-13.49 57.66-12.29L57.66-12.29L57.66-12.29Q57.11-11.09 56.66-10.21L56.66-10.21L56.66-10.21Q56.68-9.06 56.80-7.72L56.80-7.72L56.80-7.72Q56.91-6.38 57.25-5.21L57.25-5.21L57.25-5.21Q57.59-4.04 58.21-3.26L58.21-3.26L58.21-3.26Q58.84-2.48 59.86-2.48L59.86-2.48L59.86-2.48Q60.72-2.48 61.44-3.21L61.44-3.21L61.44-3.21Q62.16-3.94 62.76-5.06L62.76-5.06L62.76-5.06Q63.37-6.17 63.88-7.51L63.88-7.51L63.88-7.51Q64.39-8.84 64.85-10.03L64.85-10.03L65.65-9.82L65.65-9.82Q65.36-9.08 65.03-8.16L65.03-8.16L65.03-8.16Q64.70-7.24 64.29-6.29L64.29-6.29L64.29-6.29Q63.88-5.33 63.39-4.44L63.39-4.44L63.39-4.44Q62.90-3.55 62.30-2.84L62.30-2.84L62.30-2.84Q61.71-2.13 60.99-1.71L60.99-1.71L60.99-1.71Q60.27-1.29 59.43-1.29L59.43-1.29L59.43-1.29Q58.53-1.29 57.74-1.70L57.74-1.70L57.74-1.70Q56.95-2.11 56.37-3.17L56.37-3.17L56.37-3.17Q55.78-4.22 55.44-6.04L55.44-6.04L55.44-6.04Q55.10-7.85 55.10-10.66L55.10-10.66L55.10-10.66Q55.10-12.92 55.35-14.87L55.35-14.87L55.35-14.87Q53.59-15.09 52.39-15.58L52.39-15.58L52.39-15.58Q51.19-16.06 50.53-16.51L50.53-16.51ZM59.55-22.64L59.55-22.64L59.55-22.64Q59.37-22.64 59.00-22.27L59.00-22.27L59.00-22.27Q58.63-21.90 58.22-21.07L58.22-21.07L58.22-21.07Q57.81-20.24 57.43-18.90L57.43-18.90L57.43-18.90Q57.05-17.55 56.83-15.59L56.83-15.59L57.22-15.59L58.22-15.59L58.22-15.59Q58.59-16.61 58.87-17.58L58.87-17.58L58.87-17.58Q59.14-18.54 59.35-19.37L59.35-19.37L59.35-19.37Q59.55-20.20 59.66-20.87L59.66-20.87L59.66-20.87Q59.76-21.53 59.76-21.96L59.76-21.96L59.76-21.96Q59.76-22.64 59.55-22.64ZM56.66-11.89L56.66-11.85L56.66-11.85Q57.01-12.57 57.32-13.30L57.32-13.30L57.32-13.30Q57.63-14.03 57.91-14.79L57.91-14.79L57.16-14.79L56.75-14.79L56.75-14.79Q56.70-14.13 56.68-13.40L56.68-13.40L56.68-13.40Q56.66-12.67 56.66-11.89L56.66-11.89ZM69.34-0.29L69.34-0.29L69.34-0.29Q68.29-0.29 67.33-0.66L67.33-0.66L67.33-0.66Q66.36-1.03 65.64-1.77L65.64-1.77L65.64-1.77Q64.91-2.52 64.48-3.65L64.48-3.65L64.48-3.65Q64.05-4.78 64.05-6.30L64.05-6.30L64.05-6.30Q64.05-8.14 64.58-9.59L64.58-9.59L64.58-9.59Q65.11-11.03 65.94-12.03L65.94-12.03L65.94-12.03Q66.77-13.02 67.80-13.55L67.80-13.55L67.80-13.55Q68.82-14.07 69.81-14.07L69.81-14.07L69.81-14.07Q71.08-14.07 71.83-13.23L71.83-13.23L71.83-13.23Q72.58-12.39 72.58-11.05L72.58-11.05L72.58-11.05Q72.58-9.91 72.15-8.97L72.15-8.97L72.15-8.97Q71.72-8.04 71.01-7.37L71.01-7.37L71.01-7.37Q70.30-6.71 69.39-6.34L69.39-6.34L69.39-6.34Q68.48-5.97 67.49-5.97L67.49-5.97L67.49-5.97Q67.02-5.97 66.60-6.02L66.60-6.02L66.60-6.02Q66.18-6.07 65.85-6.13L65.85-6.13L65.85-6.13Q65.97-4.86 66.34-3.94L66.34-3.94L66.34-3.94Q66.71-3.01 67.27-2.42L67.27-2.42L67.27-2.42Q67.82-1.83 68.51-1.54L68.51-1.54L68.51-1.54Q69.19-1.25 69.93-1.25L69.93-1.25L69.93-1.25Q70.85-1.25 71.63-1.70L71.63-1.70L71.63-1.70Q72.41-2.15 73.07-2.88L73.07-2.88L73.07-2.88Q73.73-3.61 74.27-4.55L74.27-4.55L74.27-4.55Q74.81-5.50 75.24-6.47L75.24-6.47L75.24-6.47Q75.67-7.44 76.01-8.38L76.01-8.38L76.01-8.38Q76.35-9.31 76.62-10.03L76.62-10.03L77.42-9.82L77.42-9.82Q77.15-9.15 76.79-8.18L76.79-8.18L76.79-8.18Q76.43-7.22 75.96-6.16L75.96-6.16L75.96-6.16Q75.49-5.11 74.85-4.05L74.85-4.05L74.85-4.05Q74.22-2.99 73.42-2.16L73.42-2.16L73.42-2.16Q72.62-1.33 71.60-0.81L71.60-0.81L71.60-0.81Q70.59-0.29 69.34-0.29ZM69.85-13.27L69.85-13.27L69.85-13.27Q69.09-13.27 68.36-12.79L68.36-12.79L68.36-12.79Q67.63-12.30 67.06-11.46L67.06-11.46L67.06-11.46Q66.49-10.62 66.13-9.47L66.13-9.47L66.13-9.47Q65.77-8.33 65.77-7.01L65.77-7.01L65.77-7.01Q66.04-6.91 66.52-6.84L66.52-6.84L66.52-6.84Q67.00-6.77 67.70-6.77L67.70-6.77L67.70-6.77Q68.43-6.77 69.16-7.09L69.16-7.09L69.16-7.09Q69.89-7.40 70.48-7.97L70.48-7.97L70.48-7.97Q71.06-8.53 71.42-9.31L71.42-9.31L71.42-9.31Q71.78-10.09 71.78-11.01L71.78-11.01L71.78-11.01Q71.78-11.46 71.65-11.87L71.65-11.87L71.65-11.87Q71.53-12.28 71.29-12.59L71.29-12.59L71.29-12.59Q71.04-12.90 70.68-13.08L70.68-13.08L70.68-13.08Q70.32-13.27 69.85-13.27ZM77.79-10.91L77.79-10.91L77.79-10.91Q77.58-10.19 77.38-9.68L77.38-9.68L77.38-9.68Q77.17-9.17 76.92-8.73L76.92-8.73L76.92-8.73Q76.68-8.29 76.38-7.89L76.38-7.89L76.38-7.89Q76.08-7.49 75.71-7.01L75.71-7.01L75.55-7.18L75.55-7.18Q76.02-8.39 76.38-9.45L76.38-9.45L76.38-9.45Q76.74-10.52 77.03-11.59L77.03-11.59L77.03-11.59Q76.70-12.06 76.46-12.77L76.46-12.77L76.46-12.77Q76.23-13.47 76.23-14.46L76.23-14.46L76.23-14.46Q76.23-15.34 76.50-15.92L76.50-15.92L76.50-15.92Q76.78-16.51 77.23-16.51L77.23-16.51L77.23-16.51Q77.48-16.51 77.69-16.28L77.69-16.28L77.69-16.28Q77.91-16.06 78.05-15.69L78.05-15.69L78.05-15.69Q78.20-15.32 78.28-14.84L78.28-14.84L78.28-14.84Q78.36-14.36 78.36-13.82L78.36-13.82L78.36-13.82Q78.36-13.58 78.33-13.29L78.33-13.29L78.33-13.29Q78.30-13.00 78.26-12.70L78.26-12.70L78.26-12.70Q78.22-12.41 78.16-12.13L78.16-12.13L78.16-12.13Q78.09-11.85 78.03-11.67L78.03-11.67L78.03-11.67Q78.16-11.57 78.43-11.49L78.43-11.49L78.43-11.49Q78.71-11.42 79.16-11.42L79.16-11.42L79.16-11.42Q79.94-11.42 80.53-11.65L80.53-11.65L80.53-11.65Q81.13-11.87 81.48-12.22L81.48-12.22L81.48-12.22Q81.79-12.71 81.96-12.98L81.96-12.98L81.96-12.98Q82.13-13.25 82.24-13.38L82.24-13.38L82.24-13.38Q82.34-13.51 82.39-13.55L82.39-13.55L82.39-13.55Q82.44-13.58 82.52-13.58L82.52-13.58L82.52-13.58Q82.75-13.58 82.89-13.45L82.89-13.45L82.89-13.45Q83.04-13.33 83.04-13.10L83.04-13.10L83.04-13.10Q83.04-13.04 82.97-12.94L82.97-12.94L82.97-12.94Q82.91-12.84 82.81-12.67L82.81-12.67L82.81-12.67Q81.95-11.42 81.46-9.93L81.46-9.93L81.46-9.93Q80.96-8.43 80.96-6.60L80.96-6.60L80.96-6.60Q80.96-4.49 81.65-3.55L81.65-3.55L81.65-3.55Q82.34-2.60 83.61-2.60L83.61-2.60L83.61-2.60Q84.31-2.60 84.94-3.02L84.94-3.02L84.94-3.02Q85.58-3.45 86.19-4.34L86.19-4.34L86.19-4.34Q86.81-5.23 87.44-6.63L87.44-6.63L87.44-6.63Q88.06-8.04 88.78-10.03L88.78-10.03L89.58-9.82L89.58-9.82Q88.70-7.22 87.92-5.55L87.92-5.55L87.92-5.55Q87.14-3.88 86.38-2.90L86.38-2.90L86.38-2.90Q85.62-1.93 84.82-1.55L84.82-1.55L84.82-1.55Q84.02-1.17 83.08-1.17L83.08-1.17L83.08-1.17Q82.48-1.17 81.85-1.44L81.85-1.44L81.85-1.44Q81.21-1.70 80.69-2.28L80.69-2.28L80.69-2.28Q80.17-2.85 79.84-3.76L79.84-3.76L79.84-3.76Q79.51-4.68 79.51-5.97L79.51-5.97L79.51-5.97Q79.51-6.60 79.62-7.29L79.62-7.29L79.62-7.29Q79.73-7.98 79.92-8.62L79.92-8.62L79.92-8.62Q80.10-9.27 80.33-9.87L80.33-9.87L80.33-9.87Q80.55-10.48 80.80-10.97L80.80-10.97L80.80-10.97Q80.06-10.62 79.20-10.62L79.20-10.62L79.20-10.62Q78.36-10.62 77.79-10.91ZM93.70-10.66L93.70-10.66L93.70-10.66Q93.70-11.89 94.28-12.80L94.28-12.80L94.28-12.80Q94.87-13.70 95.79-14.54L95.79-14.54L95.79-14.54Q95.50-14.72 95.18-14.82L95.18-14.82L95.18-14.82Q94.85-14.91 94.54-14.91L94.54-14.91L94.54-14.91Q93.86-14.91 93.10-14.57L93.10-14.57L93.10-14.57Q92.33-14.23 91.68-13.43L91.68-13.43L91.68-13.43Q91.03-12.63 90.60-11.29L90.60-11.29L90.60-11.29Q90.17-9.95 90.17-7.94L90.17-7.94L90.17-7.94Q90.17-6.28 90.57-5.09L90.57-5.09L90.57-5.09Q90.97-3.90 91.67-3.13L91.67-3.13L91.67-3.13Q92.37-2.36 93.29-2.00L93.29-2.00L93.29-2.00Q94.21-1.64 95.26-1.64L95.26-1.64L95.26-1.64Q96.51-1.64 97.49-2.29L97.49-2.29L97.49-2.29Q98.48-2.93 99.30-4.07L99.30-4.07L99.30-4.07Q100.12-5.21 100.83-6.74L100.83-6.74L100.83-6.74Q101.53-8.26 102.23-10.03L102.23-10.03L103.01-9.82L103.01-9.82Q102.60-8.82 102.16-7.75L102.16-7.75L102.16-7.75Q101.72-6.69 101.20-5.65L101.20-5.65L101.20-5.65Q100.67-4.61 100.05-3.69L100.05-3.69L100.05-3.69Q99.42-2.77 98.61-2.07L98.61-2.07L98.61-2.07Q97.80-1.37 96.80-0.96L96.80-0.96L96.80-0.96Q95.79-0.55 94.54-0.55L94.54-0.55L94.54-0.55Q93.27-0.55 92.13-0.97L92.13-0.97L92.13-0.97Q90.99-1.39 90.13-2.25L90.13-2.25L90.13-2.25Q89.27-3.10 88.76-4.39L88.76-4.39L88.76-4.39Q88.25-5.68 88.25-7.42L88.25-7.42L88.25-7.42Q88.25-9.19 88.83-10.71L88.83-10.71L88.83-10.71Q89.41-12.22 90.32-13.33L90.32-13.33L90.32-13.33Q91.22-14.44 92.31-15.07L92.31-15.07L92.31-15.07Q93.39-15.71 94.38-15.71L94.38-15.71L94.38-15.71Q95.53-15.71 96.43-15.11L96.43-15.11L96.43-15.11Q96.59-15.24 96.75-15.37L96.75-15.37L96.75-15.37Q96.90-15.50 97.06-15.67L97.06-15.67L97.51-15.03L97.51-15.03Q97.39-14.91 97.27-14.81L97.27-14.81L97.27-14.81Q97.15-14.70 97.02-14.58L97.02-14.58L97.02-14.58Q97.39-14.13 97.63-13.51L97.63-13.51L97.63-13.51Q97.86-12.90 97.86-12.14L97.86-12.14L97.86-12.14Q97.86-11.30 97.67-10.65L97.67-10.65L97.67-10.65Q97.47-10.01 97.14-9.56L97.14-9.56L97.14-9.56Q96.80-9.11 96.37-8.88L96.37-8.88L96.37-8.88Q95.94-8.65 95.46-8.65L95.46-8.65L95.46-8.65Q95.22-8.65 94.91-8.77L94.91-8.77L94.91-8.77Q94.60-8.88 94.34-9.12L94.34-9.12L94.34-9.12Q94.07-9.35 93.88-9.73L93.88-9.73L93.88-9.73Q93.70-10.11 93.70-10.66ZM97.02-12.14L97.02-12.14L97.02-12.14Q97.02-12.74 96.85-13.21L96.85-13.21L96.85-13.21Q96.67-13.68 96.39-14.03L96.39-14.03L96.39-14.03Q95.63-13.37 95.08-12.56L95.08-12.56L95.08-12.56Q94.54-11.75 94.54-10.66L94.54-10.66L94.54-10.66Q94.54-10.09 94.83-9.77L94.83-9.77L94.83-9.77Q95.12-9.45 95.50-9.45L95.50-9.45L95.50-9.45Q95.96-9.45 96.25-9.74L96.25-9.74L96.25-9.74Q96.55-10.03 96.71-10.45L96.71-10.45L96.71-10.45Q96.88-10.87 96.95-11.33L96.95-11.33L96.95-11.33Q97.02-11.79 97.02-12.14ZM110.07-4.74L110.07-4.74L110.07-4.74Q109.43-3.59 108.83-2.83L108.83-2.83L108.83-2.83Q108.24-2.07 107.66-1.62L107.66-1.62L107.66-1.62Q107.07-1.17 106.48-0.98L106.48-0.98L106.48-0.98Q105.88-0.80 105.25-0.80L105.25-0.80L105.25-0.80Q104.73-0.80 104.08-0.96L104.08-0.96L104.08-0.96Q103.42-1.13 102.84-1.65L102.84-1.65L102.84-1.65Q102.25-2.17 101.85-3.16L101.85-3.16L101.85-3.16Q101.45-4.14 101.45-5.80L101.45-5.80L101.45-5.80Q101.45-7.46 101.84-8.93L101.84-8.93L101.84-8.93Q102.23-10.40 102.70-11.50L102.70-11.50L102.70-11.50Q103.26-12.78 103.97-13.86L103.97-13.86L104.73-13.62L104.73-13.62Q104.71-13.60 104.60-13.25L104.60-13.25L104.60-13.25Q104.49-12.90 104.31-12.30L104.31-12.30L104.31-12.30Q104.14-11.71 103.94-10.93L103.94-10.93L103.94-10.93Q103.75-10.15 103.57-9.28L103.57-9.28L103.57-9.28Q103.40-8.41 103.29-7.51L103.29-7.51L103.29-7.51Q103.17-6.60 103.17-5.76L103.17-5.76L103.17-5.76Q103.17-3.83 103.86-2.72L103.86-2.72L103.86-2.72Q104.55-1.60 105.66-1.60L105.66-1.60L105.66-1.60Q106.89-1.60 108.04-3.02L108.04-3.02L108.04-3.02Q109.18-4.45 110.23-7.01L110.23-7.01L110.23-7.01Q110.41-8.20 110.73-9.23L110.73-9.23L110.73-9.23Q111.05-10.25 111.37-11.05L111.37-11.05L111.37-11.05Q111.69-11.85 111.95-12.39L111.95-12.39L111.95-12.39Q112.22-12.92 112.34-13.10L112.34-13.10L113.06-12.94L113.06-12.94Q112.73-11.40 112.50-10.18L112.50-10.18L112.50-10.18Q112.26-8.96 112.12-7.98L112.12-7.98L112.12-7.98Q111.97-6.99 111.90-6.22L111.90-6.22L111.90-6.22Q111.83-5.46 111.83-4.84L111.83-4.84L111.83-4.84Q111.83-3.61 112.22-2.87L112.22-2.87L112.22-2.87Q112.61-2.13 113.43-2.13L113.43-2.13L113.43-2.13Q113.98-2.13 114.50-2.54L114.50-2.54L114.50-2.54Q115.01-2.95 115.56-3.90L115.56-3.90L115.56-3.90Q116.12-4.84 116.73-6.34L116.73-6.34L116.73-6.34Q117.35-7.83 118.13-10.03L118.13-10.03L118.92-9.82L118.92-9.82Q118.58-8.96 118.23-7.98L118.23-7.98L118.23-7.98Q117.88-6.99 117.48-6.01L117.48-6.01L117.48-6.01Q117.08-5.02 116.64-4.12L116.64-4.12L116.64-4.12Q116.20-3.22 115.65-2.52L115.65-2.52L115.65-2.52Q115.11-1.83 114.47-1.42L114.47-1.42L114.47-1.42Q113.84-1.00 113.06-1.00L113.06-1.00L113.06-1.00Q112.32-1.00 111.77-1.29L111.77-1.29L111.77-1.29Q111.21-1.58 110.83-2.07L110.83-2.07L110.83-2.07Q110.46-2.56 110.26-3.25L110.26-3.25L110.26-3.25Q110.07-3.94 110.07-4.74ZM128.26-2.77L128.26-2.77L128.26-2.77Q128.93-2.77 129.54-3.15L129.54-3.15L129.54-3.15Q130.14-3.53 130.69-4.15L130.69-4.15L130.69-4.15Q131.23-4.78 131.71-5.57L131.71-5.57L131.71-5.57Q132.19-6.36 132.59-7.17L132.59-7.17L132.59-7.17Q132.99-7.98 133.31-8.73L133.31-8.73L133.31-8.73Q133.63-9.47 133.88-10.03L133.88-10.03L134.67-9.82L134.67-9.82Q134.41-9.15 134.07-8.31L134.07-8.31L134.07-8.31Q133.73-7.46 133.29-6.58L133.29-6.58L133.29-6.58Q132.85-5.70 132.33-4.87L132.33-4.87L132.33-4.87Q131.80-4.04 131.17-3.38L131.17-3.38L131.17-3.38Q130.53-2.73 129.79-2.33L129.79-2.33L129.79-2.33Q129.06-1.93 128.21-1.93L128.21-1.93L128.21-1.93Q127.39-1.93 126.57-2.28L126.57-2.28L126.57-2.28Q125.88-1.74 125.04-1.44L125.04-1.44L125.04-1.44Q124.20-1.13 123.17-1.13L123.17-1.13L123.17-1.13Q122.53-1.13 122.14-1.29L122.14-1.29L122.14-1.29Q121.75-1.46 121.54-1.69L121.54-1.69L121.54-1.69Q121.32-1.93 121.24-2.17L121.24-2.17L121.24-2.17Q121.16-2.42 121.16-2.60L121.16-2.60L121.16-2.60Q121.16-3.01 121.34-3.33L121.34-3.33L121.34-3.33Q121.53-3.65 121.84-3.88L121.84-3.88L121.84-3.88Q122.14-4.10 122.54-4.21L122.54-4.21L122.54-4.21Q122.94-4.33 123.38-4.33L123.38-4.33L123.38-4.33Q124.07-4.33 124.71-4.07L124.71-4.07L124.71-4.07Q125.34-3.81 125.94-3.53L125.94-3.53L125.94-3.53Q126.41-4.12 126.78-4.86L126.78-4.86L126.78-4.86Q127.15-5.60 127.39-6.39L127.39-6.39L127.39-6.39Q127.64-7.18 127.77-7.96L127.77-7.96L127.77-7.96Q127.91-8.74 127.91-9.41L127.91-9.41L127.91-9.41Q127.91-10.99 127.38-11.69L127.38-11.69L127.38-11.69Q126.86-12.39 126.14-12.39L126.14-12.39L126.14-12.39Q125.34-12.39 124.60-11.89L124.60-11.89L124.60-11.89Q123.85-11.40 123.08-10.36L123.08-10.36L123.08-10.36Q122.31-9.31 121.50-7.70L121.50-7.70L121.50-7.70Q120.69-6.09 119.77-3.86L119.77-3.86L119.77-3.86Q119.66-3.67 119.60-3.47L119.60-3.47L119.60-3.47Q119.54-3.26 119.44-3.08L119.44-3.08L119.44-3.08Q119.62-0.66 119.82 1.57L119.82 1.57L119.82 1.57Q120.01 3.79 120.01 5.54L120.01 5.54L120.01 5.54Q120.01 8.84 119.25 10.43L119.25 10.43L119.25 10.43Q118.49 12.02 116.92 12.02L116.92 12.02L116.92 12.02Q116.30 12.02 115.85 11.73L115.85 11.73L115.85 11.73Q115.40 11.44 115.10 10.95L115.10 10.95L115.10 10.95Q114.80 10.46 114.66 9.79L114.66 9.79L114.66 9.79Q114.52 9.13 114.52 8.37L114.52 8.37L114.52 8.37Q114.52 7.18 114.81 5.74L114.81 5.74L114.81 5.74Q115.11 4.31 115.60 2.76L115.60 2.76L115.60 2.76Q116.09 1.21 116.75-0.43L116.75-0.43L116.75-0.43Q117.41-2.07 118.13-3.69L118.13-3.69L118.13-3.69Q117.94-5.74 117.81-7.72L117.81-7.72L117.81-7.72Q117.67-9.70 117.67-11.55L117.67-11.55L117.67-11.55Q117.67-13.15 117.90-14.05L117.90-14.05L117.90-14.05Q118.13-14.95 118.60-14.95L118.60-14.95L118.60-14.95Q118.74-14.95 118.98-14.87L118.98-14.87L118.98-14.87Q119.21-14.79 119.42-14.61L119.42-14.61L119.42-14.61Q119.62-14.44 119.78-14.19L119.78-14.19L119.78-14.19Q119.93-13.95 119.93-13.62L119.93-13.62L119.93-13.62Q119.93-12.78 119.70-11.89L119.70-11.89L119.70-11.89Q119.48-11.01 119.09-10.13L119.09-10.13L119.09-10.13Q119.09-9.17 119.12-8.16L119.12-8.16L119.12-8.16Q119.15-7.16 119.21-6.13L119.21-6.13L119.21-6.13Q120.11-8.02 120.98-9.36L120.98-9.36L120.98-9.36Q121.84-10.71 122.70-11.56L122.70-11.56L122.70-11.56Q123.56-12.41 124.41-12.80L124.41-12.80L124.41-12.80Q125.26-13.19 126.14-13.19L126.14-13.19L126.14-13.19Q126.90-13.19 127.52-12.86L127.52-12.86L127.52-12.86Q128.13-12.53 128.56-11.97L128.56-11.97L128.56-11.97Q128.99-11.40 129.23-10.62L129.23-10.62L129.23-10.62Q129.47-9.84 129.47-8.94L129.47-8.94L129.47-8.94Q129.47-7.28 128.93-5.68L128.93-5.68L128.93-5.68Q128.40-4.08 127.33-2.93L127.33-2.93L127.33-2.93Q127.72-2.77 128.26-2.77ZM118.84 6.97L118.84 6.97L118.84 6.97Q118.84 5.17 118.72 3.25L118.72 3.25L118.72 3.25Q118.60 1.33 118.43-0.59L118.43-0.59L118.43-0.59Q117.22 2.34 116.45 4.70L116.45 4.70L116.45 4.70Q115.68 7.05 115.68 8.98L115.68 8.98L115.68 8.98Q115.68 9.91 116.03 10.56L116.03 10.56L116.03 10.56Q116.38 11.22 117.08 11.22L117.08 11.22L117.08 11.22Q117.45 11.22 117.77 11.01L117.77 11.01L117.77 11.01Q118.08 10.81 118.32 10.32L118.32 10.32L118.32 10.32Q118.56 9.82 118.70 9.00L118.70 9.00L118.70 9.00Q118.84 8.18 118.84 6.97ZM123.09-1.93L123.09-1.93L123.09-1.93Q123.72-1.93 124.28-2.17L124.28-2.17L124.28-2.17Q124.83-2.42 125.30-2.85L125.30-2.85L125.30-2.85Q124.75-3.12 124.27-3.32L124.27-3.32L124.27-3.32Q123.79-3.53 123.33-3.53L123.33-3.53L123.33-3.53Q122.55-3.53 122.26-3.23L122.26-3.23L122.26-3.23Q121.96-2.93 121.96-2.65L121.96-2.65L121.96-2.65Q121.96-2.42 122.23-2.17L122.23-2.17L122.23-2.17Q122.49-1.93 123.09-1.93ZM157.58-8.94L157.58-8.94L157.58-8.94Q156.80-8.94 155.78-9.01L155.78-9.01L155.78-9.01Q154.75-9.08 153.71-9.25L153.71-9.25L153.71-9.25Q153.75-8.72 153.77-8.18L153.77-8.18L153.77-8.18Q153.79-7.65 153.79-7.14L153.79-7.14L153.79-7.14Q153.79-4.82 153.38-2.91L153.38-2.91L153.38-2.91Q152.97-1.00 152.15 0.35L152.15 0.35L152.15 0.35Q151.33 1.70 150.11 2.45L150.11 2.45L150.11 2.45Q148.89 3.20 147.29 3.20L147.29 3.20L147.29 3.20Q146.08 3.20 144.57 2.75L144.57 2.75L144.57 2.75Q143.06 2.30 141.20 1.13L141.20 1.13L141.61 0.47L141.61 0.47Q143.21 1.46 144.63 1.93L144.63 1.93L144.63 1.93Q146.06 2.40 147.29 2.40L147.29 2.40L147.29 2.40Q148.62 2.40 149.48 1.92L149.48 1.92L149.48 1.92Q150.34 1.44 150.85 0.65L150.85 0.65L150.85 0.65Q151.35-0.14 151.54-1.15L151.54-1.15L151.54-1.15Q151.74-2.15 151.74-3.20L151.74-3.20L151.74-3.20Q151.74-4.66 151.54-6.32L151.54-6.32L151.54-6.32Q151.35-7.98 151.18-9.82L151.18-9.82L151.18-9.82Q150.24-10.15 149.65-10.59L149.65-10.59L149.65-10.59Q149.05-11.03 149.05-11.63L149.05-11.63L149.05-11.63Q149.05-12.20 149.59-12.62L149.59-12.62L149.59-12.62Q150.14-13.04 151.02-13.27L151.02-13.27L151.02-13.27Q151.02-15.03 151.29-16.72L151.29-16.72L151.29-16.72Q151.55-18.42 151.95-19.91L151.95-19.91L151.95-19.91Q152.35-21.41 152.81-22.68L152.81-22.68L152.81-22.68Q153.28-23.95 153.69-24.87L153.69-24.87L153.69-24.87Q154.10-25.78 154.37-26.29L154.37-26.29L154.37-26.29Q154.65-26.80 154.67-26.80L154.67-26.80L155.39-26.46L155.39-26.46Q155.39-26.43 155.06-25.65L155.06-25.65L155.06-25.65Q154.73-24.86 154.34-23.42L154.34-23.42L154.34-23.42Q153.95-21.98 153.62-19.97L153.62-19.97L153.62-19.97Q153.30-17.96 153.30-15.50L153.30-15.50L153.30-15.50Q153.30-15.03 153.30-14.51L153.30-14.51L153.30-14.51Q153.30-13.99 153.34-13.47L153.34-13.47L153.34-13.47Q155.61-13.37 157.20-12.45L157.20-12.45L157.20-12.45Q158.79-11.53 159.96-9.91L159.96-9.91L159.96-9.91Q161.72-10.27 163.35-11.17L163.35-11.17L163.35-11.17Q164.99-12.06 166.23-13.43L166.23-13.43L166.23-13.43Q167.47-14.81 168.22-16.63L168.22-16.63L168.22-16.63Q168.96-18.46 168.96-20.67L168.96-20.67L168.96-20.67Q168.96-22.44 168.44-23.82L168.44-23.82L168.44-23.82Q167.92-25.20 167.05-26.24L167.05-26.24L167.05-26.24Q166.17-27.28 165.04-27.99L165.04-27.99L165.04-27.99Q163.90-28.71 162.69-29.15L162.69-29.15L162.69-29.15Q161.48-29.59 160.28-29.79L160.28-29.79L160.28-29.79Q159.08-29.98 158.07-29.98L158.07-29.98L158.07-29.98Q155.24-29.98 152.98-29.55L152.98-29.55L152.98-29.55Q150.71-29.12 148.97-28.46L148.97-28.46L148.97-28.46Q147.23-27.81 145.96-27.05L145.96-27.05L145.96-27.05Q144.70-26.29 143.88-25.63L143.88-25.63L143.88-25.63Q143.06-24.98 142.67-24.53L142.67-24.53L142.67-24.53Q142.28-24.08 142.28-24.08L142.28-24.08L141.61-24.53L141.61-24.53Q141.67-24.59 142.10-25.08L142.10-25.08L142.10-25.08Q142.53-25.57 143.38-26.26L143.38-26.26L143.38-26.26Q144.23-26.95 145.53-27.75L145.53-27.75L145.53-27.75Q146.84-28.55 148.65-29.21L148.65-29.21L148.65-29.21Q150.47-29.88 152.80-30.33L152.80-30.33L152.80-30.33Q155.14-30.78 158.07-30.78L158.07-30.78L158.07-30.78Q159.76-30.78 161.42-30.53L161.42-30.53L161.42-30.53Q163.08-30.27 164.58-29.75L164.58-29.75L164.58-29.75Q166.07-29.22 167.35-28.40L167.35-28.40L167.35-28.40Q168.64-27.58 169.57-26.47L169.57-26.47L169.57-26.47Q170.50-25.35 171.04-23.90L171.04-23.90L171.04-23.90Q171.57-22.46 171.57-20.67L171.57-20.67L171.57-20.67Q171.57-18.11 170.64-16.13L170.64-16.13L170.64-16.13Q169.70-14.15 168.15-12.73L168.15-12.73L168.15-12.73Q166.61-11.30 164.61-10.41L164.61-10.41L164.61-10.41Q162.61-9.52 160.47-9.15L160.47-9.15L160.47-9.15Q161.19-8.04 161.72-6.69L161.72-6.69L161.72-6.69Q162.36-5.17 162.88-3.54L162.88-3.54L162.88-3.54Q163.41-1.91 163.98-0.35L163.98-0.35L163.98-0.35Q164.55 1.21 165.24 2.60L165.24 2.60L165.24 2.60Q165.93 4.00 166.86 5.06L166.86 5.06L166.86 5.06Q167.79 6.11 169.06 6.73L169.06 6.73L169.06 6.73Q170.32 7.34 172.06 7.34L172.06 7.34L172.06 7.34Q173.29 7.34 174.57 6.80L174.57 6.80L174.57 6.80Q175.85 6.25 177.19 5.04L177.19 5.04L177.70 5.62L177.70 5.62Q176.94 6.36 176.14 7.02L176.14 7.02L176.14 7.02Q175.34 7.69 174.47 8.19L174.47 8.19L174.47 8.19Q173.60 8.70 172.63 8.99L172.63 8.99L172.63 8.99Q171.67 9.29 170.56 9.29L170.56 9.29L170.56 9.29Q168.90 9.29 167.68 8.83L167.68 8.83L167.68 8.83Q166.46 8.37 165.56 7.54L165.56 7.54L165.56 7.54Q164.66 6.71 164.04 5.58L164.04 5.58L164.04 5.58Q163.43 4.45 162.98 3.13L162.98 3.13L162.98 3.13Q162.52 1.80 162.19 0.32L162.19 0.32L162.19 0.32Q161.85-1.17 161.52-2.69L161.52-2.69L161.52-2.69Q161.11-4.55 160.61-6.15L160.61-6.15L160.61-6.15Q160.10-7.75 159.35-9.02L159.35-9.02L159.35-9.02Q158.89-8.96 158.45-8.95L158.45-8.95L158.45-8.95Q158.01-8.94 157.58-8.94ZM153.42-12.67L153.42-12.67L153.42-12.67Q153.46-12.02 153.53-11.33L153.53-11.33L153.53-11.33Q153.60-10.64 153.67-9.99L153.67-9.99L153.67-9.99Q154.44-9.82 155.45-9.76L155.45-9.76L155.45-9.76Q156.45-9.70 157.66-9.70L157.66-9.70L157.66-9.70Q157.95-9.70 158.26-9.70L158.26-9.70L158.26-9.70Q158.57-9.70 158.87-9.74L158.87-9.74L158.87-9.74Q157.93-11.03 156.63-11.80L156.63-11.80L156.63-11.80Q155.33-12.57 153.42-12.67ZM151.10-10.71L151.10-10.71L151.10-10.71Q151.06-11.12 151.04-11.56L151.04-11.56L151.04-11.56Q151.02-12.00 151.02-12.43L151.02-12.43L151.02-12.43Q150.49-12.30 150.17-12.10L150.17-12.10L150.17-12.10Q149.85-11.89 149.85-11.67L149.85-11.67L149.85-11.67Q149.85-11.50 150.15-11.25L150.15-11.25L150.15-11.25Q150.45-10.99 151.10-10.71ZM178.64-0.29L178.64-0.29L178.64-0.29Q177.60-0.29 176.63-0.66L176.63-0.66L176.63-0.66Q175.67-1.03 174.94-1.77L174.94-1.77L174.94-1.77Q174.21-2.52 173.78-3.65L173.78-3.65L173.78-3.65Q173.35-4.78 173.35-6.30L173.35-6.30L173.35-6.30Q173.35-8.14 173.89-9.59L173.89-9.59L173.89-9.59Q174.42-11.03 175.25-12.03L175.25-12.03L175.25-12.03Q176.08-13.02 177.11-13.55L177.11-13.55L177.11-13.55Q178.13-14.07 179.12-14.07L179.12-14.07L179.12-14.07Q180.39-14.07 181.14-13.23L181.14-13.23L181.14-13.23Q181.88-12.39 181.88-11.05L181.88-11.05L181.88-11.05Q181.88-9.91 181.45-8.97L181.45-8.97L181.45-8.97Q181.02-8.04 180.31-7.37L180.31-7.37L180.31-7.37Q179.61-6.71 178.69-6.34L178.69-6.34L178.69-6.34Q177.78-5.97 176.80-5.97L176.80-5.97L176.80-5.97Q176.33-5.97 175.91-6.02L175.91-6.02L175.91-6.02Q175.49-6.07 175.16-6.13L175.16-6.13L175.16-6.13Q175.28-4.86 175.65-3.94L175.65-3.94L175.65-3.94Q176.02-3.01 176.57-2.42L176.57-2.42L176.57-2.42Q177.13-1.83 177.81-1.54L177.81-1.54L177.81-1.54Q178.50-1.25 179.24-1.25L179.24-1.25L179.24-1.25Q180.16-1.25 180.94-1.70L180.94-1.70L180.94-1.70Q181.72-2.15 182.38-2.88L182.38-2.88L182.38-2.88Q183.03-3.61 183.58-4.55L183.58-4.55L183.58-4.55Q184.12-5.50 184.55-6.47L184.55-6.47L184.55-6.47Q184.98-7.44 185.32-8.38L185.32-8.38L185.32-8.38Q185.66-9.31 185.92-10.03L185.92-10.03L186.72-9.82L186.72-9.82Q186.46-9.15 186.10-8.18L186.10-8.18L186.10-8.18Q185.74-7.22 185.27-6.16L185.27-6.16L185.27-6.16Q184.80-5.11 184.16-4.05L184.16-4.05L184.16-4.05Q183.52-2.99 182.72-2.16L182.72-2.16L182.72-2.16Q181.92-1.33 180.91-0.81L180.91-0.81L180.91-0.81Q179.89-0.29 178.64-0.29ZM179.16-13.27L179.16-13.27L179.16-13.27Q178.40-13.27 177.67-12.79L177.67-12.79L177.67-12.79Q176.94-12.30 176.37-11.46L176.37-11.46L176.37-11.46Q175.79-10.62 175.43-9.47L175.43-9.47L175.43-9.47Q175.08-8.33 175.08-7.01L175.08-7.01L175.08-7.01Q175.34-6.91 175.82-6.84L175.82-6.84L175.82-6.84Q176.31-6.77 177.00-6.77L177.00-6.77L177.00-6.77Q177.74-6.77 178.47-7.09L178.47-7.09L178.47-7.09Q179.20-7.40 179.78-7.97L179.78-7.97L179.78-7.97Q180.37-8.53 180.73-9.31L180.73-9.31L180.73-9.31Q181.08-10.09 181.08-11.01L181.08-11.01L181.08-11.01Q181.08-11.46 180.96-11.87L180.96-11.87L180.96-11.87Q180.84-12.28 180.59-12.59L180.59-12.59L180.59-12.59Q180.35-12.90 179.99-13.08L179.99-13.08L179.99-13.08Q179.63-13.27 179.16-13.27ZM190.83-10.66L190.83-10.66L190.83-10.66Q190.83-11.89 191.41-12.80L191.41-12.80L191.41-12.80Q191.99-13.70 192.92-14.54L192.92-14.54L192.92-14.54Q192.63-14.72 192.30-14.82L192.30-14.82L192.30-14.82Q191.97-14.91 191.67-14.91L191.67-14.91L191.67-14.91Q190.99-14.91 190.22-14.57L190.22-14.57L190.22-14.57Q189.45-14.23 188.81-13.43L188.81-13.43L188.81-13.43Q188.16-12.63 187.73-11.29L187.73-11.29L187.73-11.29Q187.30-9.95 187.30-7.94L187.30-7.94L187.30-7.94Q187.30-6.28 187.70-5.09L187.70-5.09L187.70-5.09Q188.10-3.90 188.79-3.13L188.79-3.13L188.79-3.13Q189.49-2.36 190.42-2.00L190.42-2.00L190.42-2.00Q191.34-1.64 192.38-1.64L192.38-1.64L192.38-1.64Q193.63-1.64 194.62-2.29L194.62-2.29L194.62-2.29Q195.60-2.93 196.42-4.07L196.42-4.07L196.42-4.07Q197.24-5.21 197.95-6.74L197.95-6.74L197.95-6.74Q198.66-8.26 199.36-10.03L199.36-10.03L200.14-9.82L200.14-9.82Q199.73-8.82 199.28-7.75L199.28-7.75L199.28-7.75Q198.84-6.69 198.32-5.65L198.32-5.65L198.32-5.65Q197.80-4.61 197.17-3.69L197.17-3.69L197.17-3.69Q196.55-2.77 195.74-2.07L195.74-2.07L195.74-2.07Q194.93-1.37 193.92-0.96L193.92-0.96L193.92-0.96Q192.92-0.55 191.67-0.55L191.67-0.55L191.67-0.55Q190.39-0.55 189.26-0.97L189.26-0.97L189.26-0.97Q188.12-1.39 187.26-2.25L187.26-2.25L187.26-2.25Q186.40-3.10 185.88-4.39L185.88-4.39L185.88-4.39Q185.37-5.68 185.37-7.42L185.37-7.42L185.37-7.42Q185.37-9.19 185.95-10.71L185.95-10.71L185.95-10.71Q186.54-12.22 187.44-13.33L187.44-13.33L187.44-13.33Q188.34-14.44 189.43-15.07L189.43-15.07L189.43-15.07Q190.52-15.71 191.50-15.71L191.50-15.71L191.50-15.71Q192.65-15.71 193.55-15.11L193.55-15.11L193.55-15.11Q193.72-15.24 193.87-15.37L193.87-15.37L193.87-15.37Q194.02-15.50 194.19-15.67L194.19-15.67L194.64-15.03L194.64-15.03Q194.52-14.91 194.39-14.81L194.39-14.81L194.39-14.81Q194.27-14.70 194.15-14.58L194.15-14.58L194.15-14.58Q194.52-14.13 194.75-13.51L194.75-13.51L194.75-13.51Q194.99-12.90 194.99-12.14L194.99-12.14L194.99-12.14Q194.99-11.30 194.79-10.65L194.79-10.65L194.79-10.65Q194.60-10.01 194.26-9.56L194.26-9.56L194.26-9.56Q193.92-9.11 193.49-8.88L193.49-8.88L193.49-8.88Q193.06-8.65 192.59-8.65L192.59-8.65L192.59-8.65Q192.34-8.65 192.04-8.77L192.04-8.77L192.04-8.77Q191.73-8.88 191.46-9.12L191.46-9.12L191.46-9.12Q191.19-9.35 191.01-9.73L191.01-9.73L191.01-9.73Q190.83-10.11 190.83-10.66ZM194.15-12.14L194.15-12.14L194.15-12.14Q194.15-12.74 193.97-13.21L193.97-13.21L193.97-13.21Q193.80-13.68 193.51-14.03L193.51-14.03L193.51-14.03Q192.75-13.37 192.21-12.56L192.21-12.56L192.21-12.56Q191.67-11.75 191.67-10.66L191.67-10.66L191.67-10.66Q191.67-10.09 191.95-9.77L191.95-9.77L191.95-9.77Q192.24-9.45 192.63-9.45L192.63-9.45L192.63-9.45Q193.08-9.45 193.38-9.74L193.38-9.74L193.38-9.74Q193.68-10.03 193.84-10.45L193.84-10.45L193.84-10.45Q194.00-10.87 194.08-11.33L194.08-11.33L194.08-11.33Q194.15-11.79 194.15-12.14ZM201.69-2.13L201.69-2.13L201.69-2.13Q200.40-2.13 199.55-3.18L199.55-3.18L199.55-3.18Q198.70-4.22 198.70-6.34L198.70-6.34L198.70-6.34Q198.70-7.73 199.26-9.90L199.26-9.90L199.26-9.90Q199.83-12.06 201.22-14.79L201.22-14.79L201.98-14.58L201.98-14.58Q201.86-14.05 201.58-13.13L201.58-13.13L201.58-13.13Q201.30-12.20 201.03-11.06L201.03-11.06L201.03-11.06Q200.75-9.93 200.55-8.69L200.55-8.69L200.55-8.69Q200.34-7.44 200.34-6.30L200.34-6.30L200.34-6.30Q200.34-5.33 200.48-4.73L200.48-4.73L200.48-4.73Q200.63-4.12 200.86-3.78L200.86-3.78L200.86-3.78Q201.10-3.45 201.42-3.32L201.42-3.32L201.42-3.32Q201.74-3.20 202.10-3.20L202.10-3.20L202.10-3.20Q202.70-3.20 203.23-3.57L203.23-3.57L203.23-3.57Q203.77-3.94 204.25-4.54L204.25-4.54L204.25-4.54Q204.73-5.15 205.15-5.90L205.15-5.90L205.15-5.90Q205.57-6.64 205.91-7.40L205.91-7.40L205.91-7.40Q206.25-8.16 206.51-8.85L206.51-8.85L206.51-8.85Q206.78-9.54 206.94-10.03L206.94-10.03L207.74-9.82L207.74-9.82Q207.52-9.21 207.22-8.40L207.22-8.40L207.22-8.40Q206.92-7.59 206.54-6.73L206.54-6.73L206.54-6.73Q206.17-5.87 205.69-5.04L205.69-5.04L205.69-5.04Q205.22-4.22 204.63-3.58L204.63-3.58L204.63-3.58Q204.03-2.93 203.30-2.53L203.30-2.53L203.30-2.53Q202.58-2.13 201.69-2.13ZM205.02-21.25L205.02-21.25L205.02-21.25Q205.02-20.53 204.46-20.14L204.46-20.14L204.46-20.14Q203.91-19.75 203.07-19.75L203.07-19.75L203.07-19.75Q202.64-19.75 202.26-19.88L202.26-19.88L202.26-19.88Q201.88-20.02 201.60-20.23L201.60-20.23L201.60-20.23Q201.33-20.45 201.17-20.74L201.17-20.74L201.17-20.74Q201.02-21.04 201.02-21.37L201.02-21.37L201.02-21.37Q201.02-22.07 201.56-22.50L201.56-22.50L201.56-22.50Q202.10-22.93 202.82-22.93L202.82-22.93L202.82-22.93Q203.33-22.93 203.75-22.77L203.75-22.77L203.75-22.77Q204.16-22.62 204.44-22.37L204.44-22.37L204.44-22.37Q204.73-22.13 204.87-21.83L204.87-21.83L204.87-21.83Q205.02-21.53 205.02-21.25ZM203.91-21.25L203.91-21.25L203.91-21.25Q203.91-21.45 203.73-21.63L203.73-21.63L203.73-21.63Q203.56-21.80 203.21-21.80L203.21-21.80L203.21-21.80Q202.58-21.80 202.58-21.33L202.58-21.33L202.58-21.33Q202.58-21.10 202.77-20.95L202.77-20.95L202.77-20.95Q202.97-20.79 203.29-20.79L203.29-20.79L203.29-20.79Q203.60-20.79 203.76-20.93L203.76-20.93L203.76-20.93Q203.91-21.06 203.91-21.25ZM217.08-2.77L217.08-2.77L217.08-2.77Q217.75-2.77 218.36-3.15L218.36-3.15L218.36-3.15Q218.96-3.53 219.51-4.15L219.51-4.15L219.51-4.15Q220.05-4.78 220.53-5.57L220.53-5.57L220.53-5.57Q221.01-6.36 221.41-7.17L221.41-7.17L221.41-7.17Q221.81-7.98 222.13-8.73L222.13-8.73L222.13-8.73Q222.45-9.47 222.69-10.03L222.69-10.03L223.49-9.82L223.49-9.82Q223.23-9.15 222.89-8.31L222.89-8.31L222.89-8.31Q222.55-7.46 222.11-6.58L222.11-6.58L222.11-6.58Q221.67-5.70 221.15-4.87L221.15-4.87L221.15-4.87Q220.62-4.04 219.99-3.38L219.99-3.38L219.99-3.38Q219.35-2.73 218.61-2.33L218.61-2.33L218.61-2.33Q217.88-1.93 217.03-1.93L217.03-1.93L217.03-1.93Q216.21-1.93 215.39-2.28L215.39-2.28L215.39-2.28Q214.70-1.74 213.86-1.44L213.86-1.44L213.86-1.44Q213.01-1.13 211.99-1.13L211.99-1.13L211.99-1.13Q211.35-1.13 210.96-1.29L210.96-1.29L210.96-1.29Q210.57-1.46 210.36-1.69L210.36-1.69L210.36-1.69Q210.14-1.93 210.06-2.17L210.06-2.17L210.06-2.17Q209.98-2.42 209.98-2.60L209.98-2.60L209.98-2.60Q209.98-3.01 210.16-3.33L210.16-3.33L210.16-3.33Q210.35-3.65 210.66-3.88L210.66-3.88L210.66-3.88Q210.96-4.10 211.36-4.21L211.36-4.21L211.36-4.21Q211.76-4.33 212.19-4.33L212.19-4.33L212.19-4.33Q212.89-4.33 213.53-4.07L213.53-4.07L213.53-4.07Q214.16-3.81 214.76-3.53L214.76-3.53L214.76-3.53Q215.23-4.12 215.60-4.86L215.60-4.86L215.60-4.86Q215.97-5.60 216.21-6.39L216.21-6.39L216.21-6.39Q216.46-7.18 216.59-7.96L216.59-7.96L216.59-7.96Q216.73-8.74 216.73-9.41L216.73-9.41L216.73-9.41Q216.73-10.99 216.20-11.69L216.20-11.69L216.20-11.69Q215.68-12.39 214.96-12.39L214.96-12.39L214.96-12.39Q214.16-12.39 213.41-11.89L213.41-11.89L213.41-11.89Q212.67-11.40 211.90-10.36L211.90-10.36L211.90-10.36Q211.13-9.31 210.32-7.70L210.32-7.70L210.32-7.70Q209.51-6.09 208.58-3.86L208.58-3.86L208.58-3.86Q208.48-3.67 208.42-3.47L208.42-3.47L208.42-3.47Q208.36-3.26 208.26-3.08L208.26-3.08L208.26-3.08Q208.44-0.66 208.64 1.57L208.64 1.57L208.64 1.57Q208.83 3.79 208.83 5.54L208.83 5.54L208.83 5.54Q208.83 8.84 208.07 10.43L208.07 10.43L208.07 10.43Q207.31 12.02 205.73 12.02L205.73 12.02L205.73 12.02Q205.12 12.02 204.67 11.73L204.67 11.73L204.67 11.73Q204.22 11.44 203.92 10.95L203.92 10.95L203.92 10.95Q203.62 10.46 203.48 9.79L203.48 9.79L203.48 9.79Q203.33 9.13 203.33 8.37L203.33 8.37L203.33 8.37Q203.33 7.18 203.63 5.74L203.63 5.74L203.63 5.74Q203.93 4.31 204.42 2.76L204.42 2.76L204.42 2.76Q204.91 1.21 205.57-0.43L205.57-0.43L205.57-0.43Q206.23-2.07 206.94-3.69L206.94-3.69L206.94-3.69Q206.76-5.74 206.63-7.72L206.63-7.72L206.63-7.72Q206.49-9.70 206.49-11.55L206.49-11.55L206.49-11.55Q206.49-13.15 206.72-14.05L206.72-14.05L206.72-14.05Q206.94-14.95 207.42-14.95L207.42-14.95L207.42-14.95Q207.56-14.95 207.80-14.87L207.80-14.87L207.80-14.87Q208.03-14.79 208.24-14.61L208.24-14.61L208.24-14.61Q208.44-14.44 208.60-14.19L208.60-14.19L208.60-14.19Q208.75-13.95 208.75-13.62L208.75-13.62L208.75-13.62Q208.75-12.78 208.52-11.89L208.52-11.89L208.52-11.89Q208.30-11.01 207.91-10.13L207.91-10.13L207.91-10.13Q207.91-9.17 207.94-8.16L207.94-8.16L207.94-8.16Q207.97-7.16 208.03-6.13L208.03-6.13L208.03-6.13Q208.93-8.02 209.79-9.36L209.79-9.36L209.79-9.36Q210.66-10.71 211.52-11.56L211.52-11.56L211.52-11.56Q212.38-12.41 213.23-12.80L213.23-12.80L213.23-12.80Q214.08-13.19 214.96-13.19L214.96-13.19L214.96-13.19Q215.72-13.19 216.34-12.86L216.34-12.86L216.34-12.86Q216.95-12.53 217.38-11.97L217.38-11.97L217.38-11.97Q217.81-11.40 218.05-10.62L218.05-10.62L218.05-10.62Q218.29-9.84 218.29-8.94L218.29-8.94L218.29-8.94Q218.29-7.28 217.75-5.68L217.75-5.68L217.75-5.68Q217.22-4.08 216.15-2.93L216.15-2.93L216.15-2.93Q216.54-2.77 217.08-2.77ZM207.66 6.97L207.66 6.97L207.66 6.97Q207.66 5.17 207.54 3.25L207.54 3.25L207.54 3.25Q207.42 1.33 207.25-0.59L207.25-0.59L207.25-0.59Q206.04 2.34 205.27 4.70L205.27 4.70L205.27 4.70Q204.50 7.05 204.50 8.98L204.50 8.98L204.50 8.98Q204.50 9.91 204.85 10.56L204.85 10.56L204.85 10.56Q205.20 11.22 205.90 11.22L205.90 11.22L205.90 11.22Q206.27 11.22 206.59 11.01L206.59 11.01L206.59 11.01Q206.90 10.81 207.14 10.32L207.14 10.32L207.14 10.32Q207.38 9.82 207.52 9.00L207.52 9.00L207.52 9.00Q207.66 8.18 207.66 6.97ZM211.91-1.93L211.91-1.93L211.91-1.93Q212.54-1.93 213.10-2.17L213.10-2.17L213.10-2.17Q213.65-2.42 214.12-2.85L214.12-2.85L214.12-2.85Q213.57-3.12 213.09-3.32L213.09-3.32L213.09-3.32Q212.60-3.53 212.15-3.53L212.15-3.53L212.15-3.53Q211.37-3.53 211.08-3.23L211.08-3.23L211.08-3.23Q210.78-2.93 210.78-2.65L210.78-2.65L210.78-2.65Q210.78-2.42 211.05-2.17L211.05-2.17L211.05-2.17Q211.31-1.93 211.91-1.93ZM227.19-0.29L227.19-0.29L227.19-0.29Q226.14-0.29 225.18-0.66L225.18-0.66L225.18-0.66Q224.21-1.03 223.48-1.77L223.48-1.77L223.48-1.77Q222.76-2.52 222.33-3.65L222.33-3.65L222.33-3.65Q221.89-4.78 221.89-6.30L221.89-6.30L221.89-6.30Q221.89-8.14 222.43-9.59L222.43-9.59L222.43-9.59Q222.96-11.03 223.79-12.03L223.79-12.03L223.79-12.03Q224.62-13.02 225.65-13.55L225.65-13.55L225.65-13.55Q226.67-14.07 227.66-14.07L227.66-14.07L227.66-14.07Q228.93-14.07 229.68-13.23L229.68-13.23L229.68-13.23Q230.43-12.39 230.43-11.05L230.43-11.05L230.43-11.05Q230.43-9.91 230.00-8.97L230.00-8.97L230.00-8.97Q229.56-8.04 228.86-7.37L228.86-7.37L228.86-7.37Q228.15-6.71 227.24-6.34L227.24-6.34L227.24-6.34Q226.32-5.97 225.34-5.97L225.34-5.97L225.34-5.97Q224.87-5.97 224.45-6.02L224.45-6.02L224.45-6.02Q224.03-6.07 223.70-6.13L223.70-6.13L223.70-6.13Q223.82-4.86 224.19-3.94L224.19-3.94L224.19-3.94Q224.56-3.01 225.11-2.42L225.11-2.42L225.11-2.42Q225.67-1.83 226.35-1.54L226.35-1.54L226.35-1.54Q227.04-1.25 227.78-1.25L227.78-1.25L227.78-1.25Q228.70-1.25 229.48-1.70L229.48-1.70L229.48-1.70Q230.26-2.15 230.92-2.88L230.92-2.88L230.92-2.88Q231.57-3.61 232.12-4.55L232.12-4.55L232.12-4.55Q232.66-5.50 233.09-6.47L233.09-6.47L233.09-6.47Q233.52-7.44 233.86-8.38L233.86-8.38L233.86-8.38Q234.20-9.31 234.47-10.03L234.47-10.03L235.27-9.82L235.27-9.82Q235.00-9.15 234.64-8.18L234.64-8.18L234.64-8.18Q234.28-7.22 233.81-6.16L233.81-6.16L233.81-6.16Q233.34-5.11 232.70-4.05L232.70-4.05L232.70-4.05Q232.07-2.99 231.27-2.16L231.27-2.16L231.27-2.16Q230.47-1.33 229.45-0.81L229.45-0.81L229.45-0.81Q228.44-0.29 227.19-0.29ZM227.70-13.27L227.70-13.27L227.70-13.27Q226.94-13.27 226.21-12.79L226.21-12.79L226.21-12.79Q225.48-12.30 224.91-11.46L224.91-11.46L224.91-11.46Q224.33-10.62 223.98-9.47L223.98-9.47L223.98-9.47Q223.62-8.33 223.62-7.01L223.62-7.01L223.62-7.01Q223.88-6.91 224.37-6.84L224.37-6.84L224.37-6.84Q224.85-6.77 225.54-6.77L225.54-6.77L225.54-6.77Q226.28-6.77 227.01-7.09L227.01-7.09L227.01-7.09Q227.74-7.40 228.32-7.97L228.32-7.97L228.32-7.97Q228.91-8.53 229.27-9.31L229.27-9.31L229.27-9.31Q229.63-10.09 229.63-11.01L229.63-11.01L229.63-11.01Q229.63-11.46 229.50-11.87L229.50-11.87L229.50-11.87Q229.38-12.28 229.13-12.59L229.13-12.59L229.13-12.59Q228.89-12.90 228.53-13.08L228.53-13.08L228.53-13.08Q228.17-13.27 227.70-13.27ZM235.92-11.59L235.92-11.59L235.92-11.59Q235.70-10.99 235.48-10.42L235.48-10.42L235.48-10.42Q235.27-9.84 235.01-9.27L235.01-9.27L235.01-9.27Q234.75-8.70 234.40-8.14L234.40-8.14L234.40-8.14Q234.06-7.59 233.56-7.01L233.56-7.01L233.40-7.18L233.40-7.18Q233.93-8.47 234.34-9.82L234.34-9.82L234.34-9.82Q234.75-11.18 235.16-12.86L235.16-12.86L235.16-12.86Q235.06-13.15 234.98-13.35L234.98-13.35L234.98-13.35Q234.90-13.56 234.83-13.73L234.83-13.73L234.83-13.73Q234.77-13.90 234.73-14.10L234.73-14.10L234.73-14.10Q234.69-14.29 234.69-14.54L234.69-14.54L234.69-14.54Q234.69-14.87 234.78-15.27L234.78-15.27L234.78-15.27Q234.88-15.67 235.05-16.02L235.05-16.02L235.05-16.02Q235.22-16.37 235.45-16.60L235.45-16.60L235.45-16.60Q235.68-16.84 235.92-16.84L235.92-16.84L235.92-16.84Q236.21-16.84 236.38-16.70L236.38-16.70L236.38-16.70Q236.56-16.57 236.66-16.37L236.66-16.37L236.66-16.37Q236.76-16.16 236.80-15.93L236.80-15.93L236.80-15.93Q236.84-15.71 236.84-15.50L236.84-15.50L236.84-15.50Q236.84-15.20 236.77-14.80L236.77-14.80L236.77-14.80Q236.70-14.40 236.61-14.02L236.61-14.02L236.61-14.02Q236.52-13.64 236.44-13.35L236.44-13.35L236.44-13.35Q236.37-13.06 236.37-12.98L236.37-12.98L236.37-12.98Q236.54-12.43 236.94-11.85L236.94-11.85L236.94-11.85Q237.34-11.28 237.85-10.68L237.85-10.68L237.85-10.68Q238.36-10.09 238.93-9.44L238.93-9.44L238.93-9.44Q239.49-8.80 239.95-8.08L239.95-8.08L239.95-8.08Q240.41-7.36 240.71-6.55L240.71-6.55L240.71-6.55Q241.01-5.74 241.01-4.84L241.01-4.84L241.01-4.84Q241.01-3.55 240.63-2.75L240.63-2.75L240.63-2.75Q240.25-1.95 239.61-1.52L239.61-1.52L239.61-1.52Q240.54-1.89 241.35-2.83L241.35-2.83L241.35-2.83Q242.16-3.77 242.84-4.99L242.84-4.99L242.84-4.99Q243.53-6.21 244.11-7.55L244.11-7.55L244.11-7.55Q244.70-8.88 245.15-10.03L245.15-10.03L245.95-9.82L245.95-9.82Q245.25-8.04 244.47-6.34L244.47-6.34L244.47-6.34Q243.69-4.63 242.71-3.30L242.71-3.30L242.71-3.30Q241.73-1.97 240.48-1.15L240.48-1.15L240.48-1.15Q239.24-0.33 237.64-0.33L237.64-0.33L237.64-0.33Q237.21-0.33 236.77-0.40L236.77-0.40L236.77-0.40Q236.33-0.47 235.91-0.63L235.91-0.63L235.91-0.63Q235.49-0.78 235.12-1.05L235.12-1.05L235.12-1.05Q234.75-1.31 234.49-1.68L234.49-1.68L235.16-2.13L235.16-2.13Q235.35-1.85 235.74-1.60L235.74-1.60L235.74-1.60Q236.13-1.35 236.76-1.35L236.76-1.35L236.76-1.35Q237.38-1.35 237.84-1.61L237.84-1.61L237.84-1.61Q238.30-1.87 238.62-2.31L238.62-2.31L238.62-2.31Q238.94-2.75 239.09-3.34L239.09-3.34L239.09-3.34Q239.24-3.94 239.24-4.61L239.24-4.61L239.24-4.61Q239.24-6.01 238.84-7.01L238.84-7.01L238.84-7.01Q238.44-8.02 237.90-8.81L237.90-8.81L237.90-8.81Q237.36-9.60 236.79-10.25L236.79-10.25L236.79-10.25Q236.23-10.91 235.92-11.59Z" fill="url(#editing-shiny-gradient2)"></path></g></g><style>text {
  font-size: 64px;
  font-family: Arial Black;
  dominant-baseline: central;
  text-anchor: middle;
}</style></svg>